M48
;DRILL file {KiCad (5.0.2)-1} date 10/14/2019 8:22:46 PM
;FORMAT={-:-/ absolute / metric / decimal}
FMAT,2
METRIC,TZ
T1C0.750
T2C0.800
T3C1.000
%
G90
G05
T1
X156.21Y-69.85
X163.83Y-83.82
T2
X156.21Y-72.39
X156.21Y-74.93
X156.21Y-77.47
X156.21Y-80.01
X163.83Y-72.39
X163.83Y-74.93
X163.83Y-77.47
X163.83Y-80.01
T3
X148.59Y-67.31
X151.13Y-67.31
X147.32Y-77.47
X149.86Y-77.47
X148.59Y-71.12
X148.59Y-73.66
X171.45Y-86.36
X171.45Y-73.66
X147.32Y-82.55
X147.32Y-85.09
X152.4Y-85.09
X154.94Y-85.09
X171.45Y-80.01
X171.45Y-67.31
X142.24Y-74.93
X142.24Y-77.47
X142.24Y-80.01
T0
M30
