G04 #@! TF.GenerationSoftware,KiCad,Pcbnew,(5.0.2)-1*
G04 #@! TF.CreationDate,2019-10-14T20:22:39-04:00*
G04 #@! TF.ProjectId,TempSensorCircuit,54656d70-5365-46e7-936f-724369726375,rev?*
G04 #@! TF.SameCoordinates,Original*
G04 #@! TF.FileFunction,Copper,L1,Top*
G04 #@! TF.FilePolarity,Positive*
%FSLAX46Y46*%
G04 Gerber Fmt 4.6, Leading zero omitted, Abs format (unit mm)*
G04 Created by KiCad (PCBNEW (5.0.2)-1) date 10/14/2019 8:22:39 PM*
%MOMM*%
%LPD*%
G01*
G04 APERTURE LIST*
G04 #@! TA.AperFunction,ComponentPad*
%ADD10C,1.800000*%
G04 #@! TD*
G04 #@! TA.AperFunction,ComponentPad*
%ADD11R,1.700000X1.700000*%
G04 #@! TD*
G04 #@! TA.AperFunction,ComponentPad*
%ADD12O,1.700000X1.700000*%
G04 #@! TD*
G04 #@! TA.AperFunction,ComponentPad*
%ADD13O,2.400000X1.600000*%
G04 #@! TD*
G04 #@! TA.AperFunction,ComponentPad*
%ADD14R,2.400000X1.600000*%
G04 #@! TD*
G04 #@! TA.AperFunction,ViaPad*
%ADD15C,0.800000*%
G04 #@! TD*
G04 #@! TA.AperFunction,Conductor*
%ADD16C,0.800000*%
G04 #@! TD*
G04 #@! TA.AperFunction,Conductor*
%ADD17C,0.400000*%
G04 #@! TD*
G04 APERTURE END LIST*
D10*
G04 #@! TO.P,0.6k1,2*
G04 #@! TO.N,Net-(0.6k1-Pad2)*
X147320000Y-77470000D03*
G04 #@! TO.P,0.6k1,1*
G04 #@! TO.N,Net-(0.6k1-Pad1)*
X149860000Y-77470000D03*
G04 #@! TD*
G04 #@! TO.P,1.5k1,e*
G04 #@! TO.N,Net-(1.5k1-Pad1)*
X154940000Y-85090000D03*
G04 #@! TO.P,1.5k1,2*
G04 #@! TO.N,Net-(1.5k1-Pad2)*
X152400000Y-85090000D03*
G04 #@! TD*
G04 #@! TO.P,1k1,2*
G04 #@! TO.N,Net-(1.5k1-Pad2)*
X147320000Y-85090000D03*
G04 #@! TO.P,1k1,1*
G04 #@! TO.N,GND*
X147320000Y-82550000D03*
G04 #@! TD*
G04 #@! TO.P,2k1,2*
G04 #@! TO.N,Net-(2k1-Pad2)*
X148590000Y-71120000D03*
G04 #@! TO.P,2k1,1*
G04 #@! TO.N,+12V*
X148590000Y-73660000D03*
G04 #@! TD*
G04 #@! TO.P,4k1,e*
G04 #@! TO.N,Net-(2k1-Pad2)*
X148590000Y-67310000D03*
G04 #@! TO.P,4k1,2*
G04 #@! TO.N,GND*
X151130000Y-67310000D03*
G04 #@! TD*
D11*
G04 #@! TO.P,H1,1*
G04 #@! TO.N,GND*
X171450000Y-80010000D03*
G04 #@! TD*
G04 #@! TO.P,H2,1*
G04 #@! TO.N,Net-(1.5k1-Pad1)*
X171450000Y-73660000D03*
G04 #@! TD*
G04 #@! TO.P,H3,1*
G04 #@! TO.N,+12V*
X171450000Y-67310000D03*
G04 #@! TD*
G04 #@! TO.P,H4,1*
G04 #@! TO.N,-12V*
X171450000Y-86360000D03*
G04 #@! TD*
D12*
G04 #@! TO.P,U1,3*
G04 #@! TO.N,GND*
X142240000Y-80010000D03*
G04 #@! TO.P,U1,2*
G04 #@! TO.N,Net-(0.6k1-Pad2)*
X142240000Y-77470000D03*
D11*
G04 #@! TO.P,U1,1*
G04 #@! TO.N,Net-(2k1-Pad2)*
X142240000Y-74930000D03*
G04 #@! TD*
D13*
G04 #@! TO.P,U2,8*
G04 #@! TO.N,Net-(U2-Pad8)*
X163830000Y-72390000D03*
G04 #@! TO.P,U2,4*
G04 #@! TO.N,-12V*
X156210000Y-80010000D03*
G04 #@! TO.P,U2,7*
G04 #@! TO.N,+12V*
X163830000Y-74930000D03*
G04 #@! TO.P,U2,3*
G04 #@! TO.N,Net-(0.6k1-Pad1)*
X156210000Y-77470000D03*
G04 #@! TO.P,U2,6*
G04 #@! TO.N,Net-(1.5k1-Pad1)*
X163830000Y-77470000D03*
G04 #@! TO.P,U2,2*
G04 #@! TO.N,Net-(1.5k1-Pad2)*
X156210000Y-74930000D03*
G04 #@! TO.P,U2,5*
G04 #@! TO.N,GND*
X163830000Y-80010000D03*
D14*
G04 #@! TO.P,U2,1*
X156210000Y-72390000D03*
G04 #@! TD*
D15*
G04 #@! TO.N,GND*
X156210000Y-69850000D03*
X163830000Y-83820000D03*
G04 #@! TD*
D16*
G04 #@! TO.N,Net-(0.6k1-Pad2)*
X147320000Y-77470000D02*
X142240000Y-77470000D01*
G04 #@! TO.N,Net-(0.6k1-Pad1)*
X149860000Y-77470000D02*
X156210000Y-77470000D01*
D17*
G04 #@! TO.N,Net-(1.5k1-Pad1)*
X171450000Y-74910000D02*
X171450000Y-73660000D01*
D16*
X168890000Y-77470000D02*
X171450000Y-74910000D01*
X163830000Y-77470000D02*
X168890000Y-77470000D01*
D17*
X163430000Y-77470000D02*
X163830000Y-77470000D01*
D16*
X162230000Y-78670000D02*
X163430000Y-77470000D01*
X162230000Y-83707070D02*
X162230000Y-78670000D01*
X160847070Y-85090000D02*
X162117070Y-83820000D01*
X154940000Y-85090000D02*
X160847070Y-85090000D01*
D17*
X162117070Y-83820000D02*
X162230000Y-83707070D01*
D16*
G04 #@! TO.N,Net-(1.5k1-Pad2)*
X147320000Y-85090000D02*
X152400000Y-85090000D01*
X152400000Y-83820000D02*
X152400000Y-85090000D01*
X156210000Y-74930000D02*
X158210000Y-74930000D01*
X158750000Y-75470000D02*
X158750000Y-81280000D01*
X158210000Y-74930000D02*
X158750000Y-75470000D01*
X158750000Y-81280000D02*
X157480000Y-82550000D01*
X157480000Y-82550000D02*
X153670000Y-82550000D01*
X153670000Y-82550000D02*
X152400000Y-83820000D01*
G04 #@! TO.N,GND*
X163830000Y-80010000D02*
X171450000Y-80010000D01*
X156210000Y-72390000D02*
X156210000Y-69850000D01*
X163830000Y-80010000D02*
X163830000Y-83820000D01*
G04 #@! TO.N,Net-(2k1-Pad2)*
X144780000Y-74930000D02*
X148590000Y-71120000D01*
X142240000Y-74930000D02*
X144780000Y-74930000D01*
X148590000Y-71120000D02*
X148590000Y-67310000D01*
G04 #@! TO.N,+12V*
X152400000Y-69850000D02*
X154940000Y-67310000D01*
D17*
X164230000Y-74930000D02*
X163830000Y-74930000D01*
D16*
X167640000Y-71520000D02*
X164230000Y-74930000D01*
X167640000Y-67310000D02*
X167640000Y-71520000D01*
X167640000Y-67310000D02*
X171450000Y-67310000D01*
X154940000Y-67310000D02*
X167640000Y-67310000D01*
X152400000Y-72390000D02*
X152400000Y-69850000D01*
X151130000Y-73660000D02*
X152400000Y-72390000D01*
X148590000Y-73660000D02*
X151130000Y-73660000D01*
G04 #@! TO.N,-12V*
X169800000Y-86360000D02*
X171450000Y-86360000D01*
X156210000Y-80010000D02*
X146050000Y-80010000D01*
X146050000Y-80010000D02*
X144780000Y-81280000D01*
X144780000Y-81280000D02*
X144780000Y-84770002D01*
X144780000Y-84770002D02*
X146599999Y-86590001D01*
X146599999Y-86590001D02*
X169569999Y-86590001D01*
X169569999Y-86590001D02*
X169800000Y-86360000D01*
G04 #@! TD*
M02*
