G04 #@! TF.FileFunction,Copper,L2,Bot,Signal*
%FSLAX46Y46*%
G04 Gerber Fmt 4.6, Leading zero omitted, Abs format (unit mm)*
G04 Created by KiCad (PCBNEW 4.0.7) date 02/03/19 10:44:25*
%MOMM*%
%LPD*%
G01*
G04 APERTURE LIST*
%ADD10C,0.100000*%
%ADD11R,1.800000X1.800000*%
%ADD12C,1.800000*%
%ADD13R,1.700000X1.700000*%
%ADD14O,1.700000X1.700000*%
%ADD15C,2.000000*%
%ADD16R,1.600000X1.600000*%
%ADD17O,1.600000X1.600000*%
%ADD18C,0.508000*%
G04 APERTURE END LIST*
D10*
D11*
X193040000Y-102870000D03*
D12*
X193040000Y-100330000D03*
D11*
X193040000Y-91440000D03*
D12*
X193040000Y-88900000D03*
D13*
X173990000Y-77470000D03*
D14*
X176530000Y-77470000D03*
D15*
X168330000Y-93980000D03*
X163830000Y-93980000D03*
X168330000Y-87480000D03*
X163830000Y-87480000D03*
X158170000Y-93980000D03*
X153670000Y-93980000D03*
X158170000Y-87480000D03*
X153670000Y-87480000D03*
D16*
X177800000Y-88900000D03*
D17*
X185420000Y-104140000D03*
X177800000Y-91440000D03*
X185420000Y-101600000D03*
X177800000Y-93980000D03*
X185420000Y-99060000D03*
X177800000Y-96520000D03*
X185420000Y-96520000D03*
X177800000Y-99060000D03*
X185420000Y-93980000D03*
X177800000Y-101600000D03*
X185420000Y-91440000D03*
X177800000Y-104140000D03*
X185420000Y-88900000D03*
D18*
X185420000Y-99060000D02*
X189230000Y-99060000D01*
X189230000Y-99060000D02*
X193040000Y-102870000D01*
X185420000Y-96520000D02*
X189230000Y-96520000D01*
X189230000Y-96520000D02*
X193040000Y-100330000D01*
X185420000Y-93980000D02*
X190500000Y-93980000D01*
X190500000Y-93980000D02*
X193040000Y-91440000D01*
X193040000Y-88900000D02*
X196850000Y-88900000D01*
X187960000Y-106680000D02*
X185420000Y-104140000D01*
X198120000Y-106680000D02*
X187960000Y-106680000D01*
X199390000Y-105410000D02*
X198120000Y-106680000D01*
X199390000Y-91440000D02*
X199390000Y-105410000D01*
X196850000Y-88900000D02*
X199390000Y-91440000D01*
X185420000Y-88900000D02*
X185420000Y-86360000D01*
X182880000Y-83820000D02*
X163830000Y-83820000D01*
X185420000Y-86360000D02*
X182880000Y-83820000D01*
X168910000Y-77470000D02*
X170180000Y-77470000D01*
X163830000Y-87480000D02*
X163830000Y-93980000D01*
X153670000Y-87480000D02*
X153670000Y-93980000D01*
X163830000Y-87480000D02*
X163830000Y-83820000D01*
X163830000Y-83820000D02*
X163830000Y-82550000D01*
X163830000Y-82550000D02*
X168910000Y-77470000D01*
X153670000Y-87480000D02*
X153670000Y-82550000D01*
X158750000Y-77470000D02*
X168910000Y-77470000D01*
X168910000Y-77470000D02*
X170180000Y-77470000D01*
X170180000Y-77470000D02*
X173990000Y-77470000D01*
X153670000Y-82550000D02*
X158750000Y-77470000D01*
X168330000Y-93980000D02*
X168330000Y-87480000D01*
X168330000Y-87480000D02*
X176380000Y-87480000D01*
X176380000Y-87480000D02*
X177800000Y-88900000D01*
X158170000Y-93980000D02*
X158170000Y-95940000D01*
X172720000Y-96520000D02*
X177800000Y-91440000D01*
X158750000Y-96520000D02*
X172720000Y-96520000D01*
X158170000Y-95940000D02*
X158750000Y-96520000D01*
X182880000Y-104140000D02*
X185420000Y-101600000D01*
X182880000Y-105410000D02*
X182880000Y-104140000D01*
X180340000Y-107950000D02*
X182880000Y-105410000D01*
X177800000Y-107950000D02*
X180340000Y-107950000D01*
X175260000Y-105410000D02*
X177800000Y-107950000D01*
X175260000Y-96520000D02*
X175260000Y-105410000D01*
X177800000Y-93980000D02*
X175260000Y-96520000D01*
X177800000Y-101600000D02*
X179070000Y-101600000D01*
X182880000Y-93980000D02*
X185420000Y-91440000D01*
X182880000Y-97790000D02*
X182880000Y-93980000D01*
X179070000Y-101600000D02*
X182880000Y-97790000D01*
M02*
