G04 #@! TF.GenerationSoftware,KiCad,Pcbnew,(5.0.2)-1*
G04 #@! TF.CreationDate,2019-04-30T00:39:38-04:00*
G04 #@! TF.ProjectId,clock,636c6f63-6b2e-46b6-9963-61645f706362,rev?*
G04 #@! TF.SameCoordinates,Original*
G04 #@! TF.FileFunction,Copper,L1,Top*
G04 #@! TF.FilePolarity,Positive*
%FSLAX46Y46*%
G04 Gerber Fmt 4.6, Leading zero omitted, Abs format (unit mm)*
G04 Created by KiCad (PCBNEW (5.0.2)-1) date 4/30/2019 12:39:38 AM*
%MOMM*%
%LPD*%
G01*
G04 APERTURE LIST*
G04 #@! TA.AperFunction,ComponentPad*
%ADD10R,0.900000X1.500000*%
G04 #@! TD*
G04 #@! TA.AperFunction,ComponentPad*
%ADD11O,0.900000X1.500000*%
G04 #@! TD*
G04 #@! TA.AperFunction,ComponentPad*
%ADD12R,3.500000X3.500000*%
G04 #@! TD*
G04 #@! TA.AperFunction,ComponentPad*
%ADD13O,1.700000X1.700000*%
G04 #@! TD*
G04 #@! TA.AperFunction,ComponentPad*
%ADD14R,1.700000X1.700000*%
G04 #@! TD*
G04 #@! TA.AperFunction,ComponentPad*
%ADD15C,1.900000*%
G04 #@! TD*
G04 APERTURE END LIST*
D10*
G04 #@! TO.P,Q3,1*
G04 #@! TO.N,GND*
X165100000Y-80010000D03*
D11*
G04 #@! TO.P,Q3,3*
G04 #@! TO.N,GREEN*
X162560000Y-80010000D03*
G04 #@! TO.P,Q3,2*
G04 #@! TO.N,GREEN_CTRL*
X163830000Y-80010000D03*
G04 #@! TD*
G04 #@! TO.P,Q2,2*
G04 #@! TO.N,RED_CTRL*
X163830000Y-87630000D03*
G04 #@! TO.P,Q2,3*
G04 #@! TO.N,RED*
X162560000Y-87630000D03*
D10*
G04 #@! TO.P,Q2,1*
G04 #@! TO.N,GND*
X165100000Y-87630000D03*
G04 #@! TD*
G04 #@! TO.P,Q1,1*
G04 #@! TO.N,GND*
X165100000Y-95250000D03*
D11*
G04 #@! TO.P,Q1,3*
G04 #@! TO.N,BLUE*
X162560000Y-95250000D03*
G04 #@! TO.P,Q1,2*
G04 #@! TO.N,BLUE_CTRL*
X163830000Y-95250000D03*
G04 #@! TD*
D12*
G04 #@! TO.P,J1,3*
G04 #@! TO.N,N/C*
X104950000Y-75820000D03*
G04 #@! TO.P,J1,2*
G04 #@! TO.N,GND*
X101950000Y-71120000D03*
G04 #@! TO.P,J1,1*
G04 #@! TO.N,+12V*
X107950000Y-71120000D03*
G04 #@! TD*
D13*
G04 #@! TO.P,J2,4*
G04 #@! TO.N,BLUE*
X156210000Y-90170000D03*
G04 #@! TO.P,J2,3*
G04 #@! TO.N,RED*
X156210000Y-87630000D03*
G04 #@! TO.P,J2,2*
G04 #@! TO.N,GREEN*
X156210000Y-85090000D03*
D14*
G04 #@! TO.P,J2,1*
G04 #@! TO.N,+12V*
X156210000Y-82550000D03*
G04 #@! TD*
G04 #@! TO.P,J3,1*
G04 #@! TO.N,3.3V*
X149860000Y-72390000D03*
G04 #@! TD*
D13*
G04 #@! TO.P,J4,6*
G04 #@! TO.N,A5*
X115570000Y-87630000D03*
G04 #@! TO.P,J4,5*
G04 #@! TO.N,A4*
X115570000Y-90170000D03*
G04 #@! TO.P,J4,4*
G04 #@! TO.N,A3*
X115570000Y-92710000D03*
G04 #@! TO.P,J4,3*
G04 #@! TO.N,A2*
X115570000Y-95250000D03*
G04 #@! TO.P,J4,2*
G04 #@! TO.N,A1*
X115570000Y-97790000D03*
D14*
G04 #@! TO.P,J4,1*
G04 #@! TO.N,A0*
X115570000Y-100330000D03*
G04 #@! TD*
G04 #@! TO.P,J5,1*
G04 #@! TO.N,GND*
X115570000Y-82550000D03*
G04 #@! TD*
D13*
G04 #@! TO.P,J6,5*
G04 #@! TO.N,D3*
X149860000Y-92710000D03*
G04 #@! TO.P,J6,4*
G04 #@! TO.N,D4*
X149860000Y-90170000D03*
G04 #@! TO.P,J6,3*
G04 #@! TO.N,D5*
X149860000Y-87630000D03*
G04 #@! TO.P,J6,2*
G04 #@! TO.N,D6*
X149860000Y-85090000D03*
D14*
G04 #@! TO.P,J6,1*
G04 #@! TO.N,D7*
X149860000Y-82550000D03*
G04 #@! TD*
D13*
G04 #@! TO.P,U1,3*
G04 #@! TO.N,Net-(U1-Pad3)*
X115570000Y-76200000D03*
G04 #@! TO.P,U1,2*
G04 #@! TO.N,GND*
X115570000Y-73660000D03*
D14*
G04 #@! TO.P,U1,1*
G04 #@! TO.N,+12V*
X115570000Y-71120000D03*
G04 #@! TD*
D15*
G04 #@! TO.P,U2,1*
G04 #@! TO.N,Net-(U1-Pad3)*
X124930002Y-72033002D03*
G04 #@! TO.P,U2,2*
G04 #@! TO.N,GND*
X124930002Y-74573002D03*
G04 #@! TO.P,U2,3*
G04 #@! TO.N,Net-(U2-Pad3)*
X124930002Y-77113002D03*
G04 #@! TO.P,U2,4*
G04 #@! TO.N,Net-(U2-Pad4)*
X124930002Y-79653002D03*
G04 #@! TO.P,U2,5*
G04 #@! TO.N,Net-(U2-Pad5)*
X124930002Y-82193002D03*
G04 #@! TO.P,U2,6*
G04 #@! TO.N,Net-(U2-Pad6)*
X124930002Y-84733002D03*
G04 #@! TO.P,U2,7*
G04 #@! TO.N,A5*
X124930002Y-87273002D03*
G04 #@! TO.P,U2,8*
G04 #@! TO.N,A4*
X124930002Y-89813002D03*
G04 #@! TO.P,U2,9*
G04 #@! TO.N,A3*
X124930002Y-92353002D03*
G04 #@! TO.P,U2,10*
G04 #@! TO.N,A2*
X124930002Y-94893002D03*
G04 #@! TO.P,U2,11*
G04 #@! TO.N,A1*
X124930002Y-97433002D03*
G04 #@! TO.P,U2,12*
G04 #@! TO.N,A0*
X124930002Y-99973002D03*
G04 #@! TO.P,U2,24*
G04 #@! TO.N,3.3V*
X142710002Y-72033002D03*
G04 #@! TO.P,U2,23*
G04 #@! TO.N,Net-(U2-Pad23)*
X142710002Y-74573002D03*
G04 #@! TO.P,U2,22*
G04 #@! TO.N,Net-(U2-Pad22)*
X142710002Y-77113002D03*
G04 #@! TO.P,U2,21*
G04 #@! TO.N,N/C*
X142710002Y-79653002D03*
G04 #@! TO.P,U2,20*
G04 #@! TO.N,D7*
X142710002Y-82193002D03*
G04 #@! TO.P,U2,19*
G04 #@! TO.N,D6*
X142710002Y-84733002D03*
G04 #@! TO.P,U2,18*
G04 #@! TO.N,D5*
X142710002Y-87273002D03*
G04 #@! TO.P,U2,17*
G04 #@! TO.N,D4*
X142710002Y-89813002D03*
G04 #@! TO.P,U2,16*
G04 #@! TO.N,D3*
X142710002Y-92353002D03*
G04 #@! TO.P,U2,15*
G04 #@! TO.N,GREEN_CTRL*
X142710002Y-94893002D03*
G04 #@! TO.P,U2,14*
G04 #@! TO.N,RED_CTRL*
X142710002Y-97433002D03*
G04 #@! TO.P,U2,13*
G04 #@! TO.N,BLUE_CTRL*
X142710002Y-99973002D03*
G04 #@! TD*
M02*
