G04 #@! TF.GenerationSoftware,KiCad,Pcbnew,(5.0.2)-1*
G04 #@! TF.CreationDate,2019-04-30T00:39:38-04:00*
G04 #@! TF.ProjectId,clock,636c6f63-6b2e-46b6-9963-61645f706362,rev?*
G04 #@! TF.SameCoordinates,Original*
G04 #@! TF.FileFunction,Legend,Top*
G04 #@! TF.FilePolarity,Positive*
%FSLAX46Y46*%
G04 Gerber Fmt 4.6, Leading zero omitted, Abs format (unit mm)*
G04 Created by KiCad (PCBNEW (5.0.2)-1) date 4/30/2019 12:39:38 AM*
%MOMM*%
%LPD*%
G01*
G04 APERTURE LIST*
%ADD10C,0.120000*%
%ADD11C,0.150000*%
G04 APERTURE END LIST*
D10*
G04 #@! TO.C,Q3*
X161991522Y-78171522D02*
G75*
G03X163830000Y-82610000I1838478J-1838478D01*
G01*
X165668478Y-78171522D02*
G75*
G02X163830000Y-82610000I-1838478J-1838478D01*
G01*
X165630000Y-78160000D02*
X162030000Y-78160000D01*
G04 #@! TO.C,Q2*
X165630000Y-85780000D02*
X162030000Y-85780000D01*
X165668478Y-85791522D02*
G75*
G02X163830000Y-90230000I-1838478J-1838478D01*
G01*
X161991522Y-85791522D02*
G75*
G03X163830000Y-90230000I1838478J-1838478D01*
G01*
G04 #@! TO.C,Q1*
X161991522Y-93411522D02*
G75*
G03X163830000Y-97850000I1838478J-1838478D01*
G01*
X165668478Y-93411522D02*
G75*
G02X163830000Y-97850000I-1838478J-1838478D01*
G01*
X165630000Y-93400000D02*
X162030000Y-93400000D01*
G04 #@! TO.C,J1*
X108850000Y-66520000D02*
X108850000Y-69120000D01*
X94150000Y-66520000D02*
X108850000Y-66520000D01*
X108850000Y-75720000D02*
X106950000Y-75720000D01*
X108850000Y-73020000D02*
X108850000Y-75720000D01*
X94150000Y-75720000D02*
X94150000Y-66520000D01*
X102950000Y-75720000D02*
X94150000Y-75720000D01*
G04 #@! TO.C,J2*
X154880000Y-81220000D02*
X156210000Y-81220000D01*
X154880000Y-82550000D02*
X154880000Y-81220000D01*
X154880000Y-83820000D02*
X157540000Y-83820000D01*
X157540000Y-83820000D02*
X157540000Y-91500000D01*
X154880000Y-83820000D02*
X154880000Y-91500000D01*
X154880000Y-91500000D02*
X157540000Y-91500000D01*
G04 #@! TO.C,J3*
X148530000Y-71060000D02*
X149860000Y-71060000D01*
X148530000Y-72390000D02*
X148530000Y-71060000D01*
X148530000Y-73660000D02*
X151190000Y-73660000D01*
X151190000Y-73660000D02*
X151190000Y-73720000D01*
X148530000Y-73660000D02*
X148530000Y-73720000D01*
X148530000Y-73720000D02*
X151190000Y-73720000D01*
G04 #@! TO.C,J4*
X116900000Y-101660000D02*
X115570000Y-101660000D01*
X116900000Y-100330000D02*
X116900000Y-101660000D01*
X116900000Y-99060000D02*
X114240000Y-99060000D01*
X114240000Y-99060000D02*
X114240000Y-86300000D01*
X116900000Y-99060000D02*
X116900000Y-86300000D01*
X116900000Y-86300000D02*
X114240000Y-86300000D01*
G04 #@! TO.C,J5*
X114240000Y-83880000D02*
X116900000Y-83880000D01*
X114240000Y-83820000D02*
X114240000Y-83880000D01*
X116900000Y-83820000D02*
X116900000Y-83880000D01*
X114240000Y-83820000D02*
X116900000Y-83820000D01*
X114240000Y-82550000D02*
X114240000Y-81220000D01*
X114240000Y-81220000D02*
X115570000Y-81220000D01*
G04 #@! TO.C,J6*
X148530000Y-81220000D02*
X149860000Y-81220000D01*
X148530000Y-82550000D02*
X148530000Y-81220000D01*
X148530000Y-83820000D02*
X151190000Y-83820000D01*
X151190000Y-83820000D02*
X151190000Y-94040000D01*
X148530000Y-83820000D02*
X148530000Y-94040000D01*
X148530000Y-94040000D02*
X151190000Y-94040000D01*
G04 #@! TO.C,U1*
X114240000Y-69790000D02*
X115570000Y-69790000D01*
X114240000Y-71120000D02*
X114240000Y-69790000D01*
X114240000Y-72390000D02*
X116900000Y-72390000D01*
X116900000Y-72390000D02*
X116900000Y-77530000D01*
X114240000Y-72390000D02*
X114240000Y-77530000D01*
X114240000Y-77530000D02*
X116900000Y-77530000D01*
D11*
G04 #@! TO.C,U2*
X143980002Y-101243002D02*
X142456002Y-104291002D01*
X123660002Y-101243002D02*
X125184002Y-104291002D01*
X125184002Y-104291002D02*
X142456002Y-104291002D01*
X143980002Y-67715002D02*
X143980002Y-101243002D01*
X123660002Y-67715002D02*
X123660002Y-101243002D01*
X137833202Y-67715002D02*
X143980002Y-67715002D01*
X129806802Y-67715002D02*
X123660002Y-67715002D01*
X129806802Y-65810002D02*
X129806802Y-67715002D01*
X137833202Y-65810002D02*
X137833202Y-67715002D01*
X129806802Y-65810002D02*
X137833202Y-65810002D01*
G04 #@! TO.C,Q3*
X163734761Y-84117619D02*
X163639523Y-84070000D01*
X163544285Y-83974761D01*
X163401428Y-83831904D01*
X163306190Y-83784285D01*
X163210952Y-83784285D01*
X163258571Y-84022380D02*
X163163333Y-83974761D01*
X163068095Y-83879523D01*
X163020476Y-83689047D01*
X163020476Y-83355714D01*
X163068095Y-83165238D01*
X163163333Y-83070000D01*
X163258571Y-83022380D01*
X163449047Y-83022380D01*
X163544285Y-83070000D01*
X163639523Y-83165238D01*
X163687142Y-83355714D01*
X163687142Y-83689047D01*
X163639523Y-83879523D01*
X163544285Y-83974761D01*
X163449047Y-84022380D01*
X163258571Y-84022380D01*
X164020476Y-83022380D02*
X164639523Y-83022380D01*
X164306190Y-83403333D01*
X164449047Y-83403333D01*
X164544285Y-83450952D01*
X164591904Y-83498571D01*
X164639523Y-83593809D01*
X164639523Y-83831904D01*
X164591904Y-83927142D01*
X164544285Y-83974761D01*
X164449047Y-84022380D01*
X164163333Y-84022380D01*
X164068095Y-83974761D01*
X164020476Y-83927142D01*
G04 #@! TO.C,Q2*
X163734761Y-91737619D02*
X163639523Y-91690000D01*
X163544285Y-91594761D01*
X163401428Y-91451904D01*
X163306190Y-91404285D01*
X163210952Y-91404285D01*
X163258571Y-91642380D02*
X163163333Y-91594761D01*
X163068095Y-91499523D01*
X163020476Y-91309047D01*
X163020476Y-90975714D01*
X163068095Y-90785238D01*
X163163333Y-90690000D01*
X163258571Y-90642380D01*
X163449047Y-90642380D01*
X163544285Y-90690000D01*
X163639523Y-90785238D01*
X163687142Y-90975714D01*
X163687142Y-91309047D01*
X163639523Y-91499523D01*
X163544285Y-91594761D01*
X163449047Y-91642380D01*
X163258571Y-91642380D01*
X164068095Y-90737619D02*
X164115714Y-90690000D01*
X164210952Y-90642380D01*
X164449047Y-90642380D01*
X164544285Y-90690000D01*
X164591904Y-90737619D01*
X164639523Y-90832857D01*
X164639523Y-90928095D01*
X164591904Y-91070952D01*
X164020476Y-91642380D01*
X164639523Y-91642380D01*
G04 #@! TO.C,Q1*
X163734761Y-99357619D02*
X163639523Y-99310000D01*
X163544285Y-99214761D01*
X163401428Y-99071904D01*
X163306190Y-99024285D01*
X163210952Y-99024285D01*
X163258571Y-99262380D02*
X163163333Y-99214761D01*
X163068095Y-99119523D01*
X163020476Y-98929047D01*
X163020476Y-98595714D01*
X163068095Y-98405238D01*
X163163333Y-98310000D01*
X163258571Y-98262380D01*
X163449047Y-98262380D01*
X163544285Y-98310000D01*
X163639523Y-98405238D01*
X163687142Y-98595714D01*
X163687142Y-98929047D01*
X163639523Y-99119523D01*
X163544285Y-99214761D01*
X163449047Y-99262380D01*
X163258571Y-99262380D01*
X164639523Y-99262380D02*
X164068095Y-99262380D01*
X164353809Y-99262380D02*
X164353809Y-98262380D01*
X164258571Y-98405238D01*
X164163333Y-98500476D01*
X164068095Y-98548095D01*
G04 #@! TO.C,J1*
X99166666Y-76322380D02*
X99166666Y-77036666D01*
X99119047Y-77179523D01*
X99023809Y-77274761D01*
X98880952Y-77322380D01*
X98785714Y-77322380D01*
X100166666Y-77322380D02*
X99595238Y-77322380D01*
X99880952Y-77322380D02*
X99880952Y-76322380D01*
X99785714Y-76465238D01*
X99690476Y-76560476D01*
X99595238Y-76608095D01*
G04 #@! TO.C,J2*
X155876666Y-79672380D02*
X155876666Y-80386666D01*
X155829047Y-80529523D01*
X155733809Y-80624761D01*
X155590952Y-80672380D01*
X155495714Y-80672380D01*
X156305238Y-79767619D02*
X156352857Y-79720000D01*
X156448095Y-79672380D01*
X156686190Y-79672380D01*
X156781428Y-79720000D01*
X156829047Y-79767619D01*
X156876666Y-79862857D01*
X156876666Y-79958095D01*
X156829047Y-80100952D01*
X156257619Y-80672380D01*
X156876666Y-80672380D01*
G04 #@! TO.C,J3*
X149526666Y-69512380D02*
X149526666Y-70226666D01*
X149479047Y-70369523D01*
X149383809Y-70464761D01*
X149240952Y-70512380D01*
X149145714Y-70512380D01*
X149907619Y-69512380D02*
X150526666Y-69512380D01*
X150193333Y-69893333D01*
X150336190Y-69893333D01*
X150431428Y-69940952D01*
X150479047Y-69988571D01*
X150526666Y-70083809D01*
X150526666Y-70321904D01*
X150479047Y-70417142D01*
X150431428Y-70464761D01*
X150336190Y-70512380D01*
X150050476Y-70512380D01*
X149955238Y-70464761D01*
X149907619Y-70417142D01*
G04 #@! TO.C,J4*
X115236666Y-102112380D02*
X115236666Y-102826666D01*
X115189047Y-102969523D01*
X115093809Y-103064761D01*
X114950952Y-103112380D01*
X114855714Y-103112380D01*
X116141428Y-102445714D02*
X116141428Y-103112380D01*
X115903333Y-102064761D02*
X115665238Y-102779047D01*
X116284285Y-102779047D01*
G04 #@! TO.C,J5*
X115236666Y-79672380D02*
X115236666Y-80386666D01*
X115189047Y-80529523D01*
X115093809Y-80624761D01*
X114950952Y-80672380D01*
X114855714Y-80672380D01*
X116189047Y-79672380D02*
X115712857Y-79672380D01*
X115665238Y-80148571D01*
X115712857Y-80100952D01*
X115808095Y-80053333D01*
X116046190Y-80053333D01*
X116141428Y-80100952D01*
X116189047Y-80148571D01*
X116236666Y-80243809D01*
X116236666Y-80481904D01*
X116189047Y-80577142D01*
X116141428Y-80624761D01*
X116046190Y-80672380D01*
X115808095Y-80672380D01*
X115712857Y-80624761D01*
X115665238Y-80577142D01*
G04 #@! TO.C,J6*
X149526666Y-79672380D02*
X149526666Y-80386666D01*
X149479047Y-80529523D01*
X149383809Y-80624761D01*
X149240952Y-80672380D01*
X149145714Y-80672380D01*
X150431428Y-79672380D02*
X150240952Y-79672380D01*
X150145714Y-79720000D01*
X150098095Y-79767619D01*
X150002857Y-79910476D01*
X149955238Y-80100952D01*
X149955238Y-80481904D01*
X150002857Y-80577142D01*
X150050476Y-80624761D01*
X150145714Y-80672380D01*
X150336190Y-80672380D01*
X150431428Y-80624761D01*
X150479047Y-80577142D01*
X150526666Y-80481904D01*
X150526666Y-80243809D01*
X150479047Y-80148571D01*
X150431428Y-80100952D01*
X150336190Y-80053333D01*
X150145714Y-80053333D01*
X150050476Y-80100952D01*
X150002857Y-80148571D01*
X149955238Y-80243809D01*
G04 #@! TO.C,U1*
X114808095Y-68242380D02*
X114808095Y-69051904D01*
X114855714Y-69147142D01*
X114903333Y-69194761D01*
X114998571Y-69242380D01*
X115189047Y-69242380D01*
X115284285Y-69194761D01*
X115331904Y-69147142D01*
X115379523Y-69051904D01*
X115379523Y-68242380D01*
X116379523Y-69242380D02*
X115808095Y-69242380D01*
X116093809Y-69242380D02*
X116093809Y-68242380D01*
X115998571Y-68385238D01*
X115903333Y-68480476D01*
X115808095Y-68528095D01*
G04 #@! TO.C,U2*
X133058097Y-70215382D02*
X133058097Y-71024906D01*
X133105716Y-71120144D01*
X133153335Y-71167763D01*
X133248573Y-71215382D01*
X133439049Y-71215382D01*
X133534287Y-71167763D01*
X133581906Y-71120144D01*
X133629525Y-71024906D01*
X133629525Y-70215382D01*
X134058097Y-70310621D02*
X134105716Y-70263002D01*
X134200954Y-70215382D01*
X134439049Y-70215382D01*
X134534287Y-70263002D01*
X134581906Y-70310621D01*
X134629525Y-70405859D01*
X134629525Y-70501097D01*
X134581906Y-70643954D01*
X134010478Y-71215382D01*
X134629525Y-71215382D01*
X131081906Y-73755382D02*
X131081906Y-72755382D01*
X131462859Y-72755382D01*
X131558097Y-72803002D01*
X131605716Y-72850621D01*
X131653335Y-72945859D01*
X131653335Y-73088716D01*
X131605716Y-73183954D01*
X131558097Y-73231573D01*
X131462859Y-73279192D01*
X131081906Y-73279192D01*
X132081906Y-73755382D02*
X132081906Y-72755382D01*
X132081906Y-73231573D02*
X132653335Y-73231573D01*
X132653335Y-73755382D02*
X132653335Y-72755382D01*
X133320002Y-72755382D02*
X133510478Y-72755382D01*
X133605716Y-72803002D01*
X133700954Y-72898240D01*
X133748573Y-73088716D01*
X133748573Y-73422049D01*
X133700954Y-73612525D01*
X133605716Y-73707763D01*
X133510478Y-73755382D01*
X133320002Y-73755382D01*
X133224763Y-73707763D01*
X133129525Y-73612525D01*
X133081906Y-73422049D01*
X133081906Y-73088716D01*
X133129525Y-72898240D01*
X133224763Y-72803002D01*
X133320002Y-72755382D01*
X134034287Y-72755382D02*
X134605716Y-72755382D01*
X134320002Y-73755382D02*
X134320002Y-72755382D01*
X135129525Y-72755382D02*
X135320002Y-72755382D01*
X135415240Y-72803002D01*
X135510478Y-72898240D01*
X135558097Y-73088716D01*
X135558097Y-73422049D01*
X135510478Y-73612525D01*
X135415240Y-73707763D01*
X135320002Y-73755382D01*
X135129525Y-73755382D01*
X135034287Y-73707763D01*
X134939049Y-73612525D01*
X134891430Y-73422049D01*
X134891430Y-73088716D01*
X134939049Y-72898240D01*
X135034287Y-72803002D01*
X135129525Y-72755382D01*
X135986668Y-73755382D02*
X135986668Y-72755382D01*
X136558097Y-73755382D01*
X136558097Y-72755382D01*
X130891430Y-106775382D02*
X130891430Y-106251573D01*
X130843811Y-106156335D01*
X130748573Y-106108716D01*
X130558097Y-106108716D01*
X130462859Y-106156335D01*
X130891430Y-106727763D02*
X130796192Y-106775382D01*
X130558097Y-106775382D01*
X130462859Y-106727763D01*
X130415240Y-106632525D01*
X130415240Y-106537287D01*
X130462859Y-106442049D01*
X130558097Y-106394430D01*
X130796192Y-106394430D01*
X130891430Y-106346811D01*
X131510478Y-106775382D02*
X131415240Y-106727763D01*
X131367621Y-106632525D01*
X131367621Y-105775382D01*
X132034287Y-106775382D02*
X131939049Y-106727763D01*
X131891430Y-106632525D01*
X131891430Y-105775382D01*
X133320002Y-106775382D02*
X133224763Y-106727763D01*
X133177144Y-106632525D01*
X133177144Y-105775382D01*
X134129525Y-106775382D02*
X134129525Y-106251573D01*
X134081906Y-106156335D01*
X133986668Y-106108716D01*
X133796192Y-106108716D01*
X133700954Y-106156335D01*
X134129525Y-106727763D02*
X134034287Y-106775382D01*
X133796192Y-106775382D01*
X133700954Y-106727763D01*
X133653335Y-106632525D01*
X133653335Y-106537287D01*
X133700954Y-106442049D01*
X133796192Y-106394430D01*
X134034287Y-106394430D01*
X134129525Y-106346811D01*
X134510478Y-106108716D02*
X134748573Y-106775382D01*
X134986668Y-106108716D02*
X134748573Y-106775382D01*
X134653335Y-107013478D01*
X134605716Y-107061097D01*
X134510478Y-107108716D01*
X135748573Y-106727763D02*
X135653335Y-106775382D01*
X135462859Y-106775382D01*
X135367621Y-106727763D01*
X135320002Y-106632525D01*
X135320002Y-106251573D01*
X135367621Y-106156335D01*
X135462859Y-106108716D01*
X135653335Y-106108716D01*
X135748573Y-106156335D01*
X135796192Y-106251573D01*
X135796192Y-106346811D01*
X135320002Y-106442049D01*
X136224763Y-106775382D02*
X136224763Y-106108716D01*
X136224763Y-106299192D02*
X136272382Y-106203954D01*
X136320002Y-106156335D01*
X136415240Y-106108716D01*
X136510478Y-106108716D01*
X136796192Y-106727763D02*
X136891430Y-106775382D01*
X137081906Y-106775382D01*
X137177144Y-106727763D01*
X137224763Y-106632525D01*
X137224763Y-106584906D01*
X137177144Y-106489668D01*
X137081906Y-106442049D01*
X136939049Y-106442049D01*
X136843811Y-106394430D01*
X136796192Y-106299192D01*
X136796192Y-106251573D01*
X136843811Y-106156335D01*
X136939049Y-106108716D01*
X137081906Y-106108716D01*
X137177144Y-106156335D01*
X127605716Y-104235382D02*
X127605716Y-103568716D01*
X127605716Y-103759192D02*
X127653335Y-103663954D01*
X127700954Y-103616335D01*
X127796192Y-103568716D01*
X127891430Y-103568716D01*
X128605716Y-104187763D02*
X128510478Y-104235382D01*
X128320002Y-104235382D01*
X128224763Y-104187763D01*
X128177144Y-104092525D01*
X128177144Y-103711573D01*
X128224763Y-103616335D01*
X128320002Y-103568716D01*
X128510478Y-103568716D01*
X128605716Y-103616335D01*
X128653335Y-103711573D01*
X128653335Y-103806811D01*
X128177144Y-103902049D01*
X129510478Y-104187763D02*
X129415240Y-104235382D01*
X129224763Y-104235382D01*
X129129525Y-104187763D01*
X129081906Y-104140144D01*
X129034287Y-104044906D01*
X129034287Y-103759192D01*
X129081906Y-103663954D01*
X129129525Y-103616335D01*
X129224763Y-103568716D01*
X129415240Y-103568716D01*
X129510478Y-103616335D01*
X130081906Y-104235382D02*
X129986668Y-104187763D01*
X129939049Y-104140144D01*
X129891430Y-104044906D01*
X129891430Y-103759192D01*
X129939049Y-103663954D01*
X129986668Y-103616335D01*
X130081906Y-103568716D01*
X130224763Y-103568716D01*
X130320002Y-103616335D01*
X130367621Y-103663954D01*
X130415240Y-103759192D01*
X130415240Y-104044906D01*
X130367621Y-104140144D01*
X130320002Y-104187763D01*
X130224763Y-104235382D01*
X130081906Y-104235382D01*
X130843811Y-104235382D02*
X130843811Y-103568716D01*
X130843811Y-103663954D02*
X130891430Y-103616335D01*
X130986668Y-103568716D01*
X131129525Y-103568716D01*
X131224763Y-103616335D01*
X131272382Y-103711573D01*
X131272382Y-104235382D01*
X131272382Y-103711573D02*
X131320002Y-103616335D01*
X131415240Y-103568716D01*
X131558097Y-103568716D01*
X131653335Y-103616335D01*
X131700954Y-103711573D01*
X131700954Y-104235382D01*
X132177144Y-104235382D02*
X132177144Y-103568716D01*
X132177144Y-103663954D02*
X132224763Y-103616335D01*
X132320002Y-103568716D01*
X132462859Y-103568716D01*
X132558097Y-103616335D01*
X132605716Y-103711573D01*
X132605716Y-104235382D01*
X132605716Y-103711573D02*
X132653335Y-103616335D01*
X132748573Y-103568716D01*
X132891430Y-103568716D01*
X132986668Y-103616335D01*
X133034287Y-103711573D01*
X133034287Y-104235382D01*
X133891430Y-104187763D02*
X133796192Y-104235382D01*
X133605716Y-104235382D01*
X133510478Y-104187763D01*
X133462859Y-104092525D01*
X133462859Y-103711573D01*
X133510478Y-103616335D01*
X133605716Y-103568716D01*
X133796192Y-103568716D01*
X133891430Y-103616335D01*
X133939049Y-103711573D01*
X133939049Y-103806811D01*
X133462859Y-103902049D01*
X134367621Y-103568716D02*
X134367621Y-104235382D01*
X134367621Y-103663954D02*
X134415240Y-103616335D01*
X134510478Y-103568716D01*
X134653335Y-103568716D01*
X134748573Y-103616335D01*
X134796192Y-103711573D01*
X134796192Y-104235382D01*
X135700954Y-104235382D02*
X135700954Y-103235382D01*
X135700954Y-104187763D02*
X135605716Y-104235382D01*
X135415240Y-104235382D01*
X135320002Y-104187763D01*
X135272382Y-104140144D01*
X135224763Y-104044906D01*
X135224763Y-103759192D01*
X135272382Y-103663954D01*
X135320002Y-103616335D01*
X135415240Y-103568716D01*
X135605716Y-103568716D01*
X135700954Y-103616335D01*
X136558097Y-104187763D02*
X136462859Y-104235382D01*
X136272382Y-104235382D01*
X136177144Y-104187763D01*
X136129525Y-104092525D01*
X136129525Y-103711573D01*
X136177144Y-103616335D01*
X136272382Y-103568716D01*
X136462859Y-103568716D01*
X136558097Y-103616335D01*
X136605716Y-103711573D01*
X136605716Y-103806811D01*
X136129525Y-103902049D01*
X137462859Y-104235382D02*
X137462859Y-103235382D01*
X137462859Y-104187763D02*
X137367621Y-104235382D01*
X137177144Y-104235382D01*
X137081906Y-104187763D01*
X137034287Y-104140144D01*
X136986668Y-104044906D01*
X136986668Y-103759192D01*
X137034287Y-103663954D01*
X137081906Y-103616335D01*
X137177144Y-103568716D01*
X137367621Y-103568716D01*
X137462859Y-103616335D01*
X138843811Y-104235382D02*
X138748573Y-104187763D01*
X138700954Y-104140144D01*
X138653335Y-104044906D01*
X138653335Y-103759192D01*
X138700954Y-103663954D01*
X138748573Y-103616335D01*
X138843811Y-103568716D01*
X138986668Y-103568716D01*
X139081906Y-103616335D01*
X139129525Y-103663954D01*
X139177144Y-103759192D01*
X139177144Y-104044906D01*
X139129525Y-104140144D01*
X139081906Y-104187763D01*
X138986668Y-104235382D01*
X138843811Y-104235382D01*
X139605716Y-103568716D02*
X139605716Y-104235382D01*
X139605716Y-103663954D02*
X139653335Y-103616335D01*
X139748573Y-103568716D01*
X139891430Y-103568716D01*
X139986668Y-103616335D01*
X140034287Y-103711573D01*
X140034287Y-104235382D01*
X128081906Y-101647763D02*
X128177144Y-101695382D01*
X128367621Y-101695382D01*
X128462859Y-101647763D01*
X128510478Y-101552525D01*
X128510478Y-101504906D01*
X128462859Y-101409668D01*
X128367621Y-101362049D01*
X128224763Y-101362049D01*
X128129525Y-101314430D01*
X128081906Y-101219192D01*
X128081906Y-101171573D01*
X128129525Y-101076335D01*
X128224763Y-101028716D01*
X128367621Y-101028716D01*
X128462859Y-101076335D01*
X128939049Y-101695382D02*
X128939049Y-101028716D01*
X128939049Y-100695382D02*
X128891430Y-100743002D01*
X128939049Y-100790621D01*
X128986668Y-100743002D01*
X128939049Y-100695382D01*
X128939049Y-100790621D01*
X129843811Y-101028716D02*
X129843811Y-101838240D01*
X129796192Y-101933478D01*
X129748573Y-101981097D01*
X129653335Y-102028716D01*
X129510478Y-102028716D01*
X129415240Y-101981097D01*
X129843811Y-101647763D02*
X129748573Y-101695382D01*
X129558097Y-101695382D01*
X129462859Y-101647763D01*
X129415240Y-101600144D01*
X129367621Y-101504906D01*
X129367621Y-101219192D01*
X129415240Y-101123954D01*
X129462859Y-101076335D01*
X129558097Y-101028716D01*
X129748573Y-101028716D01*
X129843811Y-101076335D01*
X130320002Y-101028716D02*
X130320002Y-101695382D01*
X130320002Y-101123954D02*
X130367621Y-101076335D01*
X130462859Y-101028716D01*
X130605716Y-101028716D01*
X130700954Y-101076335D01*
X130748573Y-101171573D01*
X130748573Y-101695382D01*
X131653335Y-101695382D02*
X131653335Y-101171573D01*
X131605716Y-101076335D01*
X131510478Y-101028716D01*
X131320002Y-101028716D01*
X131224763Y-101076335D01*
X131653335Y-101647763D02*
X131558097Y-101695382D01*
X131320002Y-101695382D01*
X131224763Y-101647763D01*
X131177144Y-101552525D01*
X131177144Y-101457287D01*
X131224763Y-101362049D01*
X131320002Y-101314430D01*
X131558097Y-101314430D01*
X131653335Y-101266811D01*
X132272382Y-101695382D02*
X132177144Y-101647763D01*
X132129525Y-101552525D01*
X132129525Y-100695382D01*
X133415240Y-101695382D02*
X133415240Y-100695382D01*
X133510478Y-101314430D02*
X133796192Y-101695382D01*
X133796192Y-101028716D02*
X133415240Y-101409668D01*
X134605716Y-101647763D02*
X134510478Y-101695382D01*
X134320002Y-101695382D01*
X134224763Y-101647763D01*
X134177144Y-101552525D01*
X134177144Y-101171573D01*
X134224763Y-101076335D01*
X134320002Y-101028716D01*
X134510478Y-101028716D01*
X134605716Y-101076335D01*
X134653335Y-101171573D01*
X134653335Y-101266811D01*
X134177144Y-101362049D01*
X135462859Y-101647763D02*
X135367621Y-101695382D01*
X135177144Y-101695382D01*
X135081906Y-101647763D01*
X135034287Y-101552525D01*
X135034287Y-101171573D01*
X135081906Y-101076335D01*
X135177144Y-101028716D01*
X135367621Y-101028716D01*
X135462859Y-101076335D01*
X135510478Y-101171573D01*
X135510478Y-101266811D01*
X135034287Y-101362049D01*
X135939049Y-101028716D02*
X135939049Y-102028716D01*
X135939049Y-101076335D02*
X136034287Y-101028716D01*
X136224763Y-101028716D01*
X136320002Y-101076335D01*
X136367621Y-101123954D01*
X136415240Y-101219192D01*
X136415240Y-101504906D01*
X136367621Y-101600144D01*
X136320002Y-101647763D01*
X136224763Y-101695382D01*
X136034287Y-101695382D01*
X135939049Y-101647763D01*
X137748573Y-101695382D02*
X137653335Y-101647763D01*
X137605716Y-101600144D01*
X137558097Y-101504906D01*
X137558097Y-101219192D01*
X137605716Y-101123954D01*
X137653335Y-101076335D01*
X137748573Y-101028716D01*
X137891430Y-101028716D01*
X137986668Y-101076335D01*
X138034287Y-101123954D01*
X138081906Y-101219192D01*
X138081906Y-101504906D01*
X138034287Y-101600144D01*
X137986668Y-101647763D01*
X137891430Y-101695382D01*
X137748573Y-101695382D01*
X138939049Y-101028716D02*
X138939049Y-101695382D01*
X138510478Y-101028716D02*
X138510478Y-101552525D01*
X138558097Y-101647763D01*
X138653335Y-101695382D01*
X138796192Y-101695382D01*
X138891430Y-101647763D01*
X138939049Y-101600144D01*
X139272382Y-101028716D02*
X139653335Y-101028716D01*
X139415240Y-100695382D02*
X139415240Y-101552525D01*
X139462859Y-101647763D01*
X139558097Y-101695382D01*
X139653335Y-101695382D01*
X127748573Y-98488716D02*
X127748573Y-99298240D01*
X127700954Y-99393478D01*
X127653335Y-99441097D01*
X127558097Y-99488716D01*
X127415240Y-99488716D01*
X127320002Y-99441097D01*
X127748573Y-99107763D02*
X127653335Y-99155382D01*
X127462859Y-99155382D01*
X127367621Y-99107763D01*
X127320002Y-99060144D01*
X127272382Y-98964906D01*
X127272382Y-98679192D01*
X127320002Y-98583954D01*
X127367621Y-98536335D01*
X127462859Y-98488716D01*
X127653335Y-98488716D01*
X127748573Y-98536335D01*
X128224763Y-99155382D02*
X128224763Y-98488716D01*
X128224763Y-98679192D02*
X128272382Y-98583954D01*
X128320002Y-98536335D01*
X128415240Y-98488716D01*
X128510478Y-98488716D01*
X128986668Y-99155382D02*
X128891430Y-99107763D01*
X128843811Y-99060144D01*
X128796192Y-98964906D01*
X128796192Y-98679192D01*
X128843811Y-98583954D01*
X128891430Y-98536335D01*
X128986668Y-98488716D01*
X129129525Y-98488716D01*
X129224763Y-98536335D01*
X129272382Y-98583954D01*
X129320002Y-98679192D01*
X129320002Y-98964906D01*
X129272382Y-99060144D01*
X129224763Y-99107763D01*
X129129525Y-99155382D01*
X128986668Y-99155382D01*
X130177144Y-98488716D02*
X130177144Y-99155382D01*
X129748573Y-98488716D02*
X129748573Y-99012525D01*
X129796192Y-99107763D01*
X129891430Y-99155382D01*
X130034287Y-99155382D01*
X130129525Y-99107763D01*
X130177144Y-99060144D01*
X130653335Y-98488716D02*
X130653335Y-99155382D01*
X130653335Y-98583954D02*
X130700954Y-98536335D01*
X130796192Y-98488716D01*
X130939049Y-98488716D01*
X131034287Y-98536335D01*
X131081906Y-98631573D01*
X131081906Y-99155382D01*
X131986668Y-99155382D02*
X131986668Y-98155382D01*
X131986668Y-99107763D02*
X131891430Y-99155382D01*
X131700954Y-99155382D01*
X131605716Y-99107763D01*
X131558097Y-99060144D01*
X131510478Y-98964906D01*
X131510478Y-98679192D01*
X131558097Y-98583954D01*
X131605716Y-98536335D01*
X131700954Y-98488716D01*
X131891430Y-98488716D01*
X131986668Y-98536335D01*
X133224763Y-98488716D02*
X133224763Y-99488716D01*
X133224763Y-98536335D02*
X133320002Y-98488716D01*
X133510478Y-98488716D01*
X133605716Y-98536335D01*
X133653335Y-98583954D01*
X133700954Y-98679192D01*
X133700954Y-98964906D01*
X133653335Y-99060144D01*
X133605716Y-99107763D01*
X133510478Y-99155382D01*
X133320002Y-99155382D01*
X133224763Y-99107763D01*
X134272382Y-99155382D02*
X134177144Y-99107763D01*
X134129525Y-99012525D01*
X134129525Y-98155382D01*
X135081906Y-99155382D02*
X135081906Y-98631573D01*
X135034287Y-98536335D01*
X134939049Y-98488716D01*
X134748573Y-98488716D01*
X134653335Y-98536335D01*
X135081906Y-99107763D02*
X134986668Y-99155382D01*
X134748573Y-99155382D01*
X134653335Y-99107763D01*
X134605716Y-99012525D01*
X134605716Y-98917287D01*
X134653335Y-98822049D01*
X134748573Y-98774430D01*
X134986668Y-98774430D01*
X135081906Y-98726811D01*
X135558097Y-98488716D02*
X135558097Y-99155382D01*
X135558097Y-98583954D02*
X135605716Y-98536335D01*
X135700954Y-98488716D01*
X135843811Y-98488716D01*
X135939049Y-98536335D01*
X135986668Y-98631573D01*
X135986668Y-99155382D01*
X136843811Y-99107763D02*
X136748573Y-99155382D01*
X136558097Y-99155382D01*
X136462859Y-99107763D01*
X136415240Y-99012525D01*
X136415240Y-98631573D01*
X136462859Y-98536335D01*
X136558097Y-98488716D01*
X136748573Y-98488716D01*
X136843811Y-98536335D01*
X136891430Y-98631573D01*
X136891430Y-98726811D01*
X136415240Y-98822049D01*
X138510478Y-99155382D02*
X138510478Y-98631573D01*
X138462859Y-98536335D01*
X138367621Y-98488716D01*
X138177144Y-98488716D01*
X138081906Y-98536335D01*
X138510478Y-99107763D02*
X138415240Y-99155382D01*
X138177144Y-99155382D01*
X138081906Y-99107763D01*
X138034287Y-99012525D01*
X138034287Y-98917287D01*
X138081906Y-98822049D01*
X138177144Y-98774430D01*
X138415240Y-98774430D01*
X138510478Y-98726811D01*
X138986668Y-98488716D02*
X138986668Y-99155382D01*
X138986668Y-98583954D02*
X139034287Y-98536335D01*
X139129525Y-98488716D01*
X139272382Y-98488716D01*
X139367621Y-98536335D01*
X139415240Y-98631573D01*
X139415240Y-99155382D01*
X140320002Y-99155382D02*
X140320002Y-98155382D01*
X140320002Y-99107763D02*
X140224763Y-99155382D01*
X140034287Y-99155382D01*
X139939049Y-99107763D01*
X139891430Y-99060144D01*
X139843811Y-98964906D01*
X139843811Y-98679192D01*
X139891430Y-98583954D01*
X139939049Y-98536335D01*
X140034287Y-98488716D01*
X140224763Y-98488716D01*
X140320002Y-98536335D01*
G04 #@! TD*
M02*
