G04 #@! TF.GenerationSoftware,KiCad,Pcbnew,(5.0.2)-1*
G04 #@! TF.CreationDate,2019-04-23T00:54:52-04:00*
G04 #@! TF.ProjectId,ATTINY_Bootloader,41545449-4e59-45f4-926f-6f746c6f6164,rev?*
G04 #@! TF.SameCoordinates,Original*
G04 #@! TF.FileFunction,Copper,L2,Bot*
G04 #@! TF.FilePolarity,Positive*
%FSLAX46Y46*%
G04 Gerber Fmt 4.6, Leading zero omitted, Abs format (unit mm)*
G04 Created by KiCad (PCBNEW (5.0.2)-1) date 4/23/2019 12:54:52 AM*
%MOMM*%
%LPD*%
G01*
G04 APERTURE LIST*
G04 #@! TA.AperFunction,ComponentPad*
%ADD10O,1.727200X1.727200*%
G04 #@! TD*
G04 #@! TA.AperFunction,ComponentPad*
%ADD11C,1.600000*%
G04 #@! TD*
G04 #@! TA.AperFunction,ComponentPad*
%ADD12R,1.600000X1.600000*%
G04 #@! TD*
G04 #@! TA.AperFunction,ComponentPad*
%ADD13O,1.600000X1.600000*%
G04 #@! TD*
G04 #@! TA.AperFunction,ViaPad*
%ADD14C,1.400000*%
G04 #@! TD*
G04 #@! TA.AperFunction,Conductor*
%ADD15C,0.800000*%
G04 #@! TD*
G04 #@! TA.AperFunction,Conductor*
%ADD16C,0.254000*%
G04 #@! TD*
G04 APERTURE END LIST*
D10*
G04 #@! TO.P,XA1,*
G04 #@! TO.N,*
X156210000Y-128270000D03*
G04 #@! TO.P,XA1,D11*
G04 #@! TO.N,PIN11_PIN5*
X162306000Y-80010000D03*
G04 #@! TO.P,XA1,D12*
G04 #@! TO.N,PIN12_PIN6*
X159766000Y-80010000D03*
G04 #@! TO.P,XA1,D13*
G04 #@! TO.N,PIN13_PIN7*
X157226000Y-80010000D03*
G04 #@! TO.P,XA1,AREF*
G04 #@! TO.N,Net-(XA1-PadAREF)*
X152146000Y-80010000D03*
G04 #@! TO.P,XA1,D10*
G04 #@! TO.N,PIN10_PIN1*
X164846000Y-80010000D03*
G04 #@! TO.P,XA1,D9*
G04 #@! TO.N,Net-(XA1-PadD9)*
X167386000Y-80010000D03*
G04 #@! TO.P,XA1,D8*
G04 #@! TO.N,Net-(XA1-PadD8)*
X169926000Y-80010000D03*
G04 #@! TO.P,XA1,GND1*
G04 #@! TO.N,Net-(XA1-PadGND1)*
X154686000Y-80010000D03*
G04 #@! TO.P,XA1,IORF*
G04 #@! TO.N,Net-(XA1-PadIORF)*
X158750000Y-128270000D03*
G04 #@! TO.P,XA1,RST1*
G04 #@! TO.N,Net-(C1-Pad1)*
X161290000Y-128270000D03*
G04 #@! TO.P,XA1,3V3*
G04 #@! TO.N,Net-(XA1-Pad3V3)*
X163830000Y-128270000D03*
G04 #@! TO.P,XA1,5V1*
G04 #@! TO.N,+5V*
X166370000Y-128270000D03*
G04 #@! TO.P,XA1,GND2*
G04 #@! TO.N,Net-(XA1-PadGND2)*
X168910000Y-128270000D03*
G04 #@! TO.P,XA1,GND3*
G04 #@! TO.N,GND*
X171450000Y-128270000D03*
G04 #@! TO.P,XA1,VIN*
G04 #@! TO.N,Net-(XA1-PadVIN)*
X173990000Y-128270000D03*
G04 #@! TD*
D11*
G04 #@! TO.P,C1,2*
G04 #@! TO.N,GND*
X162520000Y-113030000D03*
D12*
G04 #@! TO.P,C1,1*
G04 #@! TO.N,Net-(C1-Pad1)*
X160020000Y-113030000D03*
G04 #@! TD*
D13*
G04 #@! TO.P,U1,8*
G04 #@! TO.N,+5V*
X154940000Y-91440000D03*
G04 #@! TO.P,U1,4*
G04 #@! TO.N,GND*
X162560000Y-99060000D03*
G04 #@! TO.P,U1,7*
G04 #@! TO.N,PIN13_PIN7*
X157480000Y-91440000D03*
G04 #@! TO.P,U1,3*
G04 #@! TO.N,Net-(U1-Pad3)*
X160020000Y-99060000D03*
G04 #@! TO.P,U1,6*
G04 #@! TO.N,PIN12_PIN6*
X160020000Y-91440000D03*
G04 #@! TO.P,U1,2*
G04 #@! TO.N,Net-(U1-Pad2)*
X157480000Y-99060000D03*
G04 #@! TO.P,U1,5*
G04 #@! TO.N,PIN11_PIN5*
X162560000Y-91440000D03*
D12*
G04 #@! TO.P,U1,1*
G04 #@! TO.N,PIN10_PIN1*
X154940000Y-99060000D03*
G04 #@! TD*
D14*
G04 #@! TO.N,GND*
X171450000Y-123190000D03*
G04 #@! TO.N,+5V*
X168910000Y-113030000D03*
G04 #@! TO.N,PIN13_PIN7*
X157480000Y-85090000D03*
G04 #@! TO.N,PIN12_PIN6*
X160020000Y-85090000D03*
G04 #@! TO.N,PIN11_PIN5*
X162560000Y-85090000D03*
G04 #@! TO.N,PIN10_PIN1*
X165100000Y-85090000D03*
G04 #@! TD*
D15*
G04 #@! TO.N,GND*
X171450000Y-123190000D02*
X162560000Y-123190000D01*
X162520000Y-123150000D02*
X162520000Y-113030000D01*
X162560000Y-123190000D02*
X162520000Y-123150000D01*
G04 #@! TO.N,+5V*
X168910000Y-113030000D02*
X168910000Y-107950000D01*
X168910000Y-107950000D02*
X167640000Y-106680000D01*
X167640000Y-106680000D02*
X154940000Y-106680000D01*
X154940000Y-106680000D02*
X151130000Y-102870000D01*
X151130000Y-95250000D02*
X154940000Y-91440000D01*
X151130000Y-102870000D02*
X151130000Y-95250000D01*
G04 #@! TO.N,PIN13_PIN7*
X157480000Y-85090000D02*
X157480000Y-91440000D01*
G04 #@! TO.N,PIN12_PIN6*
X160020000Y-85090000D02*
X160020000Y-91440000D01*
G04 #@! TO.N,PIN11_PIN5*
X162560000Y-85090000D02*
X162560000Y-91440000D01*
G04 #@! TO.N,PIN10_PIN1*
X165100000Y-85090000D02*
X167640000Y-87630000D01*
X167640000Y-87630000D02*
X167640000Y-102870000D01*
X154940000Y-100660000D02*
X154940000Y-99060000D01*
X157150000Y-102870000D02*
X154940000Y-100660000D01*
X167640000Y-102870000D02*
X157150000Y-102870000D01*
G04 #@! TD*
D16*
G04 #@! TO.N,GND*
G36*
X175133000Y-127283212D02*
X175070430Y-127189570D01*
X174574725Y-126858350D01*
X174137598Y-126771400D01*
X173842402Y-126771400D01*
X173405275Y-126858350D01*
X172909570Y-127189570D01*
X172716963Y-127477826D01*
X172338490Y-127063179D01*
X171809027Y-126815032D01*
X171577000Y-126935531D01*
X171577000Y-128143000D01*
X171597000Y-128143000D01*
X171597000Y-128397000D01*
X171577000Y-128397000D01*
X171577000Y-129604469D01*
X171809027Y-129724968D01*
X172338490Y-129476821D01*
X172716963Y-129062174D01*
X172909570Y-129350430D01*
X173405275Y-129681650D01*
X173842402Y-129768600D01*
X174137598Y-129768600D01*
X174574725Y-129681650D01*
X175070430Y-129350430D01*
X175133000Y-129256788D01*
X175133000Y-130683000D01*
X148717000Y-130683000D01*
X148717000Y-128270000D01*
X154682041Y-128270000D01*
X154798350Y-128854725D01*
X155129570Y-129350430D01*
X155625275Y-129681650D01*
X156062402Y-129768600D01*
X156357598Y-129768600D01*
X156794725Y-129681650D01*
X157290430Y-129350430D01*
X157480000Y-129066719D01*
X157669570Y-129350430D01*
X158165275Y-129681650D01*
X158602402Y-129768600D01*
X158897598Y-129768600D01*
X159334725Y-129681650D01*
X159830430Y-129350430D01*
X160020000Y-129066719D01*
X160209570Y-129350430D01*
X160705275Y-129681650D01*
X161142402Y-129768600D01*
X161437598Y-129768600D01*
X161874725Y-129681650D01*
X162370430Y-129350430D01*
X162560000Y-129066719D01*
X162749570Y-129350430D01*
X163245275Y-129681650D01*
X163682402Y-129768600D01*
X163977598Y-129768600D01*
X164414725Y-129681650D01*
X164910430Y-129350430D01*
X165100000Y-129066719D01*
X165289570Y-129350430D01*
X165785275Y-129681650D01*
X166222402Y-129768600D01*
X166517598Y-129768600D01*
X166954725Y-129681650D01*
X167450430Y-129350430D01*
X167640000Y-129066719D01*
X167829570Y-129350430D01*
X168325275Y-129681650D01*
X168762402Y-129768600D01*
X169057598Y-129768600D01*
X169494725Y-129681650D01*
X169990430Y-129350430D01*
X170183037Y-129062174D01*
X170561510Y-129476821D01*
X171090973Y-129724968D01*
X171323000Y-129604469D01*
X171323000Y-128397000D01*
X171303000Y-128397000D01*
X171303000Y-128143000D01*
X171323000Y-128143000D01*
X171323000Y-126935531D01*
X171090973Y-126815032D01*
X170561510Y-127063179D01*
X170183037Y-127477826D01*
X169990430Y-127189570D01*
X169494725Y-126858350D01*
X169057598Y-126771400D01*
X168762402Y-126771400D01*
X168325275Y-126858350D01*
X167829570Y-127189570D01*
X167640000Y-127473281D01*
X167450430Y-127189570D01*
X166954725Y-126858350D01*
X166517598Y-126771400D01*
X166222402Y-126771400D01*
X165785275Y-126858350D01*
X165289570Y-127189570D01*
X165100000Y-127473281D01*
X164910430Y-127189570D01*
X164414725Y-126858350D01*
X163977598Y-126771400D01*
X163682402Y-126771400D01*
X163245275Y-126858350D01*
X162749570Y-127189570D01*
X162560000Y-127473281D01*
X162370430Y-127189570D01*
X161874725Y-126858350D01*
X161437598Y-126771400D01*
X161142402Y-126771400D01*
X160705275Y-126858350D01*
X160209570Y-127189570D01*
X160020000Y-127473281D01*
X159830430Y-127189570D01*
X159334725Y-126858350D01*
X158897598Y-126771400D01*
X158602402Y-126771400D01*
X158165275Y-126858350D01*
X157669570Y-127189570D01*
X157480000Y-127473281D01*
X157290430Y-127189570D01*
X156794725Y-126858350D01*
X156357598Y-126771400D01*
X156062402Y-126771400D01*
X155625275Y-126858350D01*
X155129570Y-127189570D01*
X154798350Y-127685275D01*
X154682041Y-128270000D01*
X148717000Y-128270000D01*
X148717000Y-112230000D01*
X158572560Y-112230000D01*
X158572560Y-113830000D01*
X158621843Y-114077765D01*
X158762191Y-114287809D01*
X158972235Y-114428157D01*
X159220000Y-114477440D01*
X160820000Y-114477440D01*
X161067765Y-114428157D01*
X161277809Y-114287809D01*
X161418157Y-114077765D01*
X161426117Y-114037745D01*
X161691861Y-114037745D01*
X161765995Y-114283864D01*
X162303223Y-114476965D01*
X162873454Y-114449778D01*
X163274005Y-114283864D01*
X163348139Y-114037745D01*
X162520000Y-113209605D01*
X161691861Y-114037745D01*
X161426117Y-114037745D01*
X161464693Y-113843813D01*
X161512255Y-113858139D01*
X162340395Y-113030000D01*
X162699605Y-113030000D01*
X163527745Y-113858139D01*
X163773864Y-113784005D01*
X163966965Y-113246777D01*
X163939778Y-112676546D01*
X163773864Y-112275995D01*
X163527745Y-112201861D01*
X162699605Y-113030000D01*
X162340395Y-113030000D01*
X161512255Y-112201861D01*
X161464693Y-112216187D01*
X161426118Y-112022255D01*
X161691861Y-112022255D01*
X162520000Y-112850395D01*
X163348139Y-112022255D01*
X163274005Y-111776136D01*
X162736777Y-111583035D01*
X162166546Y-111610222D01*
X161765995Y-111776136D01*
X161691861Y-112022255D01*
X161426118Y-112022255D01*
X161418157Y-111982235D01*
X161277809Y-111772191D01*
X161067765Y-111631843D01*
X160820000Y-111582560D01*
X159220000Y-111582560D01*
X158972235Y-111631843D01*
X158762191Y-111772191D01*
X158621843Y-111982235D01*
X158572560Y-112230000D01*
X148717000Y-112230000D01*
X148717000Y-95250000D01*
X150074724Y-95250000D01*
X150095001Y-95351939D01*
X150095000Y-102768066D01*
X150074724Y-102870000D01*
X150095000Y-102971934D01*
X150155052Y-103273836D01*
X150383807Y-103616193D01*
X150470227Y-103673937D01*
X154136065Y-107339776D01*
X154193807Y-107426193D01*
X154280223Y-107483934D01*
X154536163Y-107654948D01*
X154940000Y-107735276D01*
X155041934Y-107715000D01*
X167211290Y-107715000D01*
X167875001Y-108378712D01*
X167875000Y-112177025D01*
X167778242Y-112273783D01*
X167575000Y-112764452D01*
X167575000Y-113295548D01*
X167778242Y-113786217D01*
X168153783Y-114161758D01*
X168644452Y-114365000D01*
X169175548Y-114365000D01*
X169666217Y-114161758D01*
X170041758Y-113786217D01*
X170245000Y-113295548D01*
X170245000Y-112764452D01*
X170041758Y-112273783D01*
X169945000Y-112177025D01*
X169945000Y-108051934D01*
X169965276Y-107949999D01*
X169884948Y-107546163D01*
X169843368Y-107483934D01*
X169656193Y-107203807D01*
X169569776Y-107146065D01*
X168443937Y-106020227D01*
X168386193Y-105933807D01*
X168043837Y-105705052D01*
X167741935Y-105645000D01*
X167741934Y-105645000D01*
X167640000Y-105624724D01*
X167538066Y-105645000D01*
X155368711Y-105645000D01*
X152165000Y-102441290D01*
X152165000Y-95678710D01*
X154968711Y-92875000D01*
X155081333Y-92875000D01*
X155499909Y-92791740D01*
X155974577Y-92474577D01*
X156210000Y-92122242D01*
X156445423Y-92474577D01*
X156920091Y-92791740D01*
X157338667Y-92875000D01*
X157621333Y-92875000D01*
X158039909Y-92791740D01*
X158514577Y-92474577D01*
X158750000Y-92122242D01*
X158985423Y-92474577D01*
X159460091Y-92791740D01*
X159878667Y-92875000D01*
X160161333Y-92875000D01*
X160579909Y-92791740D01*
X161054577Y-92474577D01*
X161290000Y-92122242D01*
X161525423Y-92474577D01*
X162000091Y-92791740D01*
X162418667Y-92875000D01*
X162701333Y-92875000D01*
X163119909Y-92791740D01*
X163594577Y-92474577D01*
X163911740Y-91999909D01*
X164023113Y-91440000D01*
X163911740Y-90880091D01*
X163595000Y-90406056D01*
X163595000Y-85942975D01*
X163691758Y-85846217D01*
X163830000Y-85512472D01*
X163968242Y-85846217D01*
X164343783Y-86221758D01*
X164834452Y-86425000D01*
X164971290Y-86425000D01*
X166605000Y-88058711D01*
X166605001Y-101835000D01*
X157578711Y-101835000D01*
X156116110Y-100372399D01*
X156197809Y-100317809D01*
X156338157Y-100107765D01*
X156364785Y-99973894D01*
X156445423Y-100094577D01*
X156920091Y-100411740D01*
X157338667Y-100495000D01*
X157621333Y-100495000D01*
X158039909Y-100411740D01*
X158514577Y-100094577D01*
X158750000Y-99742242D01*
X158985423Y-100094577D01*
X159460091Y-100411740D01*
X159878667Y-100495000D01*
X160161333Y-100495000D01*
X160579909Y-100411740D01*
X161054577Y-100094577D01*
X161310947Y-99710892D01*
X161407611Y-99915134D01*
X161822577Y-100291041D01*
X162210961Y-100451904D01*
X162433000Y-100329915D01*
X162433000Y-99187000D01*
X162687000Y-99187000D01*
X162687000Y-100329915D01*
X162909039Y-100451904D01*
X163297423Y-100291041D01*
X163712389Y-99915134D01*
X163951914Y-99409041D01*
X163830629Y-99187000D01*
X162687000Y-99187000D01*
X162433000Y-99187000D01*
X162413000Y-99187000D01*
X162413000Y-98933000D01*
X162433000Y-98933000D01*
X162433000Y-97790085D01*
X162687000Y-97790085D01*
X162687000Y-98933000D01*
X163830629Y-98933000D01*
X163951914Y-98710959D01*
X163712389Y-98204866D01*
X163297423Y-97828959D01*
X162909039Y-97668096D01*
X162687000Y-97790085D01*
X162433000Y-97790085D01*
X162210961Y-97668096D01*
X161822577Y-97828959D01*
X161407611Y-98204866D01*
X161310947Y-98409108D01*
X161054577Y-98025423D01*
X160579909Y-97708260D01*
X160161333Y-97625000D01*
X159878667Y-97625000D01*
X159460091Y-97708260D01*
X158985423Y-98025423D01*
X158750000Y-98377758D01*
X158514577Y-98025423D01*
X158039909Y-97708260D01*
X157621333Y-97625000D01*
X157338667Y-97625000D01*
X156920091Y-97708260D01*
X156445423Y-98025423D01*
X156364785Y-98146106D01*
X156338157Y-98012235D01*
X156197809Y-97802191D01*
X155987765Y-97661843D01*
X155740000Y-97612560D01*
X154140000Y-97612560D01*
X153892235Y-97661843D01*
X153682191Y-97802191D01*
X153541843Y-98012235D01*
X153492560Y-98260000D01*
X153492560Y-99860000D01*
X153541843Y-100107765D01*
X153682191Y-100317809D01*
X153892235Y-100458157D01*
X153905000Y-100460696D01*
X153905000Y-100558065D01*
X153884724Y-100660000D01*
X153905000Y-100761934D01*
X153965052Y-101063836D01*
X154193807Y-101406193D01*
X154280227Y-101463937D01*
X156346065Y-103529776D01*
X156403807Y-103616193D01*
X156490223Y-103673934D01*
X156746163Y-103844948D01*
X157150000Y-103925276D01*
X157251934Y-103905000D01*
X167538066Y-103905000D01*
X167640000Y-103925276D01*
X168043837Y-103844948D01*
X168386193Y-103616193D01*
X168614948Y-103273837D01*
X168675000Y-102971935D01*
X168675000Y-102971934D01*
X168695276Y-102870000D01*
X168675000Y-102768065D01*
X168675000Y-87731929D01*
X168695275Y-87629999D01*
X168675000Y-87528070D01*
X168675000Y-87528065D01*
X168614948Y-87226163D01*
X168386193Y-86883807D01*
X168299776Y-86826065D01*
X166435000Y-84961290D01*
X166435000Y-84824452D01*
X166231758Y-84333783D01*
X165856217Y-83958242D01*
X165365548Y-83755000D01*
X164834452Y-83755000D01*
X164343783Y-83958242D01*
X163968242Y-84333783D01*
X163830000Y-84667528D01*
X163691758Y-84333783D01*
X163316217Y-83958242D01*
X162825548Y-83755000D01*
X162294452Y-83755000D01*
X161803783Y-83958242D01*
X161428242Y-84333783D01*
X161290000Y-84667528D01*
X161151758Y-84333783D01*
X160776217Y-83958242D01*
X160285548Y-83755000D01*
X159754452Y-83755000D01*
X159263783Y-83958242D01*
X158888242Y-84333783D01*
X158750000Y-84667528D01*
X158611758Y-84333783D01*
X158236217Y-83958242D01*
X157745548Y-83755000D01*
X157214452Y-83755000D01*
X156723783Y-83958242D01*
X156348242Y-84333783D01*
X156145000Y-84824452D01*
X156145000Y-85355548D01*
X156348242Y-85846217D01*
X156445000Y-85942975D01*
X156445001Y-90406055D01*
X156210000Y-90757758D01*
X155974577Y-90405423D01*
X155499909Y-90088260D01*
X155081333Y-90005000D01*
X154798667Y-90005000D01*
X154380091Y-90088260D01*
X153905423Y-90405423D01*
X153588260Y-90880091D01*
X153477035Y-91439254D01*
X150470225Y-94446065D01*
X150383808Y-94503807D01*
X150326066Y-94590224D01*
X150155052Y-94846164D01*
X150074724Y-95250000D01*
X148717000Y-95250000D01*
X148717000Y-80010000D01*
X150618041Y-80010000D01*
X150734350Y-80594725D01*
X151065570Y-81090430D01*
X151561275Y-81421650D01*
X151998402Y-81508600D01*
X152293598Y-81508600D01*
X152730725Y-81421650D01*
X153226430Y-81090430D01*
X153416000Y-80806719D01*
X153605570Y-81090430D01*
X154101275Y-81421650D01*
X154538402Y-81508600D01*
X154833598Y-81508600D01*
X155270725Y-81421650D01*
X155766430Y-81090430D01*
X155956000Y-80806719D01*
X156145570Y-81090430D01*
X156641275Y-81421650D01*
X157078402Y-81508600D01*
X157373598Y-81508600D01*
X157810725Y-81421650D01*
X158306430Y-81090430D01*
X158496000Y-80806719D01*
X158685570Y-81090430D01*
X159181275Y-81421650D01*
X159618402Y-81508600D01*
X159913598Y-81508600D01*
X160350725Y-81421650D01*
X160846430Y-81090430D01*
X161036000Y-80806719D01*
X161225570Y-81090430D01*
X161721275Y-81421650D01*
X162158402Y-81508600D01*
X162453598Y-81508600D01*
X162890725Y-81421650D01*
X163386430Y-81090430D01*
X163576000Y-80806719D01*
X163765570Y-81090430D01*
X164261275Y-81421650D01*
X164698402Y-81508600D01*
X164993598Y-81508600D01*
X165430725Y-81421650D01*
X165926430Y-81090430D01*
X166116000Y-80806719D01*
X166305570Y-81090430D01*
X166801275Y-81421650D01*
X167238402Y-81508600D01*
X167533598Y-81508600D01*
X167970725Y-81421650D01*
X168466430Y-81090430D01*
X168656000Y-80806719D01*
X168845570Y-81090430D01*
X169341275Y-81421650D01*
X169778402Y-81508600D01*
X170073598Y-81508600D01*
X170510725Y-81421650D01*
X171006430Y-81090430D01*
X171337650Y-80594725D01*
X171453959Y-80010000D01*
X171337650Y-79425275D01*
X171006430Y-78929570D01*
X170510725Y-78598350D01*
X170073598Y-78511400D01*
X169778402Y-78511400D01*
X169341275Y-78598350D01*
X168845570Y-78929570D01*
X168656000Y-79213281D01*
X168466430Y-78929570D01*
X167970725Y-78598350D01*
X167533598Y-78511400D01*
X167238402Y-78511400D01*
X166801275Y-78598350D01*
X166305570Y-78929570D01*
X166116000Y-79213281D01*
X165926430Y-78929570D01*
X165430725Y-78598350D01*
X164993598Y-78511400D01*
X164698402Y-78511400D01*
X164261275Y-78598350D01*
X163765570Y-78929570D01*
X163576000Y-79213281D01*
X163386430Y-78929570D01*
X162890725Y-78598350D01*
X162453598Y-78511400D01*
X162158402Y-78511400D01*
X161721275Y-78598350D01*
X161225570Y-78929570D01*
X161036000Y-79213281D01*
X160846430Y-78929570D01*
X160350725Y-78598350D01*
X159913598Y-78511400D01*
X159618402Y-78511400D01*
X159181275Y-78598350D01*
X158685570Y-78929570D01*
X158496000Y-79213281D01*
X158306430Y-78929570D01*
X157810725Y-78598350D01*
X157373598Y-78511400D01*
X157078402Y-78511400D01*
X156641275Y-78598350D01*
X156145570Y-78929570D01*
X155956000Y-79213281D01*
X155766430Y-78929570D01*
X155270725Y-78598350D01*
X154833598Y-78511400D01*
X154538402Y-78511400D01*
X154101275Y-78598350D01*
X153605570Y-78929570D01*
X153416000Y-79213281D01*
X153226430Y-78929570D01*
X152730725Y-78598350D01*
X152293598Y-78511400D01*
X151998402Y-78511400D01*
X151561275Y-78598350D01*
X151065570Y-78929570D01*
X150734350Y-79425275D01*
X150618041Y-80010000D01*
X148717000Y-80010000D01*
X148717000Y-77597000D01*
X175133000Y-77597000D01*
X175133000Y-127283212D01*
X175133000Y-127283212D01*
G37*
X175133000Y-127283212D02*
X175070430Y-127189570D01*
X174574725Y-126858350D01*
X174137598Y-126771400D01*
X173842402Y-126771400D01*
X173405275Y-126858350D01*
X172909570Y-127189570D01*
X172716963Y-127477826D01*
X172338490Y-127063179D01*
X171809027Y-126815032D01*
X171577000Y-126935531D01*
X171577000Y-128143000D01*
X171597000Y-128143000D01*
X171597000Y-128397000D01*
X171577000Y-128397000D01*
X171577000Y-129604469D01*
X171809027Y-129724968D01*
X172338490Y-129476821D01*
X172716963Y-129062174D01*
X172909570Y-129350430D01*
X173405275Y-129681650D01*
X173842402Y-129768600D01*
X174137598Y-129768600D01*
X174574725Y-129681650D01*
X175070430Y-129350430D01*
X175133000Y-129256788D01*
X175133000Y-130683000D01*
X148717000Y-130683000D01*
X148717000Y-128270000D01*
X154682041Y-128270000D01*
X154798350Y-128854725D01*
X155129570Y-129350430D01*
X155625275Y-129681650D01*
X156062402Y-129768600D01*
X156357598Y-129768600D01*
X156794725Y-129681650D01*
X157290430Y-129350430D01*
X157480000Y-129066719D01*
X157669570Y-129350430D01*
X158165275Y-129681650D01*
X158602402Y-129768600D01*
X158897598Y-129768600D01*
X159334725Y-129681650D01*
X159830430Y-129350430D01*
X160020000Y-129066719D01*
X160209570Y-129350430D01*
X160705275Y-129681650D01*
X161142402Y-129768600D01*
X161437598Y-129768600D01*
X161874725Y-129681650D01*
X162370430Y-129350430D01*
X162560000Y-129066719D01*
X162749570Y-129350430D01*
X163245275Y-129681650D01*
X163682402Y-129768600D01*
X163977598Y-129768600D01*
X164414725Y-129681650D01*
X164910430Y-129350430D01*
X165100000Y-129066719D01*
X165289570Y-129350430D01*
X165785275Y-129681650D01*
X166222402Y-129768600D01*
X166517598Y-129768600D01*
X166954725Y-129681650D01*
X167450430Y-129350430D01*
X167640000Y-129066719D01*
X167829570Y-129350430D01*
X168325275Y-129681650D01*
X168762402Y-129768600D01*
X169057598Y-129768600D01*
X169494725Y-129681650D01*
X169990430Y-129350430D01*
X170183037Y-129062174D01*
X170561510Y-129476821D01*
X171090973Y-129724968D01*
X171323000Y-129604469D01*
X171323000Y-128397000D01*
X171303000Y-128397000D01*
X171303000Y-128143000D01*
X171323000Y-128143000D01*
X171323000Y-126935531D01*
X171090973Y-126815032D01*
X170561510Y-127063179D01*
X170183037Y-127477826D01*
X169990430Y-127189570D01*
X169494725Y-126858350D01*
X169057598Y-126771400D01*
X168762402Y-126771400D01*
X168325275Y-126858350D01*
X167829570Y-127189570D01*
X167640000Y-127473281D01*
X167450430Y-127189570D01*
X166954725Y-126858350D01*
X166517598Y-126771400D01*
X166222402Y-126771400D01*
X165785275Y-126858350D01*
X165289570Y-127189570D01*
X165100000Y-127473281D01*
X164910430Y-127189570D01*
X164414725Y-126858350D01*
X163977598Y-126771400D01*
X163682402Y-126771400D01*
X163245275Y-126858350D01*
X162749570Y-127189570D01*
X162560000Y-127473281D01*
X162370430Y-127189570D01*
X161874725Y-126858350D01*
X161437598Y-126771400D01*
X161142402Y-126771400D01*
X160705275Y-126858350D01*
X160209570Y-127189570D01*
X160020000Y-127473281D01*
X159830430Y-127189570D01*
X159334725Y-126858350D01*
X158897598Y-126771400D01*
X158602402Y-126771400D01*
X158165275Y-126858350D01*
X157669570Y-127189570D01*
X157480000Y-127473281D01*
X157290430Y-127189570D01*
X156794725Y-126858350D01*
X156357598Y-126771400D01*
X156062402Y-126771400D01*
X155625275Y-126858350D01*
X155129570Y-127189570D01*
X154798350Y-127685275D01*
X154682041Y-128270000D01*
X148717000Y-128270000D01*
X148717000Y-112230000D01*
X158572560Y-112230000D01*
X158572560Y-113830000D01*
X158621843Y-114077765D01*
X158762191Y-114287809D01*
X158972235Y-114428157D01*
X159220000Y-114477440D01*
X160820000Y-114477440D01*
X161067765Y-114428157D01*
X161277809Y-114287809D01*
X161418157Y-114077765D01*
X161426117Y-114037745D01*
X161691861Y-114037745D01*
X161765995Y-114283864D01*
X162303223Y-114476965D01*
X162873454Y-114449778D01*
X163274005Y-114283864D01*
X163348139Y-114037745D01*
X162520000Y-113209605D01*
X161691861Y-114037745D01*
X161426117Y-114037745D01*
X161464693Y-113843813D01*
X161512255Y-113858139D01*
X162340395Y-113030000D01*
X162699605Y-113030000D01*
X163527745Y-113858139D01*
X163773864Y-113784005D01*
X163966965Y-113246777D01*
X163939778Y-112676546D01*
X163773864Y-112275995D01*
X163527745Y-112201861D01*
X162699605Y-113030000D01*
X162340395Y-113030000D01*
X161512255Y-112201861D01*
X161464693Y-112216187D01*
X161426118Y-112022255D01*
X161691861Y-112022255D01*
X162520000Y-112850395D01*
X163348139Y-112022255D01*
X163274005Y-111776136D01*
X162736777Y-111583035D01*
X162166546Y-111610222D01*
X161765995Y-111776136D01*
X161691861Y-112022255D01*
X161426118Y-112022255D01*
X161418157Y-111982235D01*
X161277809Y-111772191D01*
X161067765Y-111631843D01*
X160820000Y-111582560D01*
X159220000Y-111582560D01*
X158972235Y-111631843D01*
X158762191Y-111772191D01*
X158621843Y-111982235D01*
X158572560Y-112230000D01*
X148717000Y-112230000D01*
X148717000Y-95250000D01*
X150074724Y-95250000D01*
X150095001Y-95351939D01*
X150095000Y-102768066D01*
X150074724Y-102870000D01*
X150095000Y-102971934D01*
X150155052Y-103273836D01*
X150383807Y-103616193D01*
X150470227Y-103673937D01*
X154136065Y-107339776D01*
X154193807Y-107426193D01*
X154280223Y-107483934D01*
X154536163Y-107654948D01*
X154940000Y-107735276D01*
X155041934Y-107715000D01*
X167211290Y-107715000D01*
X167875001Y-108378712D01*
X167875000Y-112177025D01*
X167778242Y-112273783D01*
X167575000Y-112764452D01*
X167575000Y-113295548D01*
X167778242Y-113786217D01*
X168153783Y-114161758D01*
X168644452Y-114365000D01*
X169175548Y-114365000D01*
X169666217Y-114161758D01*
X170041758Y-113786217D01*
X170245000Y-113295548D01*
X170245000Y-112764452D01*
X170041758Y-112273783D01*
X169945000Y-112177025D01*
X169945000Y-108051934D01*
X169965276Y-107949999D01*
X169884948Y-107546163D01*
X169843368Y-107483934D01*
X169656193Y-107203807D01*
X169569776Y-107146065D01*
X168443937Y-106020227D01*
X168386193Y-105933807D01*
X168043837Y-105705052D01*
X167741935Y-105645000D01*
X167741934Y-105645000D01*
X167640000Y-105624724D01*
X167538066Y-105645000D01*
X155368711Y-105645000D01*
X152165000Y-102441290D01*
X152165000Y-95678710D01*
X154968711Y-92875000D01*
X155081333Y-92875000D01*
X155499909Y-92791740D01*
X155974577Y-92474577D01*
X156210000Y-92122242D01*
X156445423Y-92474577D01*
X156920091Y-92791740D01*
X157338667Y-92875000D01*
X157621333Y-92875000D01*
X158039909Y-92791740D01*
X158514577Y-92474577D01*
X158750000Y-92122242D01*
X158985423Y-92474577D01*
X159460091Y-92791740D01*
X159878667Y-92875000D01*
X160161333Y-92875000D01*
X160579909Y-92791740D01*
X161054577Y-92474577D01*
X161290000Y-92122242D01*
X161525423Y-92474577D01*
X162000091Y-92791740D01*
X162418667Y-92875000D01*
X162701333Y-92875000D01*
X163119909Y-92791740D01*
X163594577Y-92474577D01*
X163911740Y-91999909D01*
X164023113Y-91440000D01*
X163911740Y-90880091D01*
X163595000Y-90406056D01*
X163595000Y-85942975D01*
X163691758Y-85846217D01*
X163830000Y-85512472D01*
X163968242Y-85846217D01*
X164343783Y-86221758D01*
X164834452Y-86425000D01*
X164971290Y-86425000D01*
X166605000Y-88058711D01*
X166605001Y-101835000D01*
X157578711Y-101835000D01*
X156116110Y-100372399D01*
X156197809Y-100317809D01*
X156338157Y-100107765D01*
X156364785Y-99973894D01*
X156445423Y-100094577D01*
X156920091Y-100411740D01*
X157338667Y-100495000D01*
X157621333Y-100495000D01*
X158039909Y-100411740D01*
X158514577Y-100094577D01*
X158750000Y-99742242D01*
X158985423Y-100094577D01*
X159460091Y-100411740D01*
X159878667Y-100495000D01*
X160161333Y-100495000D01*
X160579909Y-100411740D01*
X161054577Y-100094577D01*
X161310947Y-99710892D01*
X161407611Y-99915134D01*
X161822577Y-100291041D01*
X162210961Y-100451904D01*
X162433000Y-100329915D01*
X162433000Y-99187000D01*
X162687000Y-99187000D01*
X162687000Y-100329915D01*
X162909039Y-100451904D01*
X163297423Y-100291041D01*
X163712389Y-99915134D01*
X163951914Y-99409041D01*
X163830629Y-99187000D01*
X162687000Y-99187000D01*
X162433000Y-99187000D01*
X162413000Y-99187000D01*
X162413000Y-98933000D01*
X162433000Y-98933000D01*
X162433000Y-97790085D01*
X162687000Y-97790085D01*
X162687000Y-98933000D01*
X163830629Y-98933000D01*
X163951914Y-98710959D01*
X163712389Y-98204866D01*
X163297423Y-97828959D01*
X162909039Y-97668096D01*
X162687000Y-97790085D01*
X162433000Y-97790085D01*
X162210961Y-97668096D01*
X161822577Y-97828959D01*
X161407611Y-98204866D01*
X161310947Y-98409108D01*
X161054577Y-98025423D01*
X160579909Y-97708260D01*
X160161333Y-97625000D01*
X159878667Y-97625000D01*
X159460091Y-97708260D01*
X158985423Y-98025423D01*
X158750000Y-98377758D01*
X158514577Y-98025423D01*
X158039909Y-97708260D01*
X157621333Y-97625000D01*
X157338667Y-97625000D01*
X156920091Y-97708260D01*
X156445423Y-98025423D01*
X156364785Y-98146106D01*
X156338157Y-98012235D01*
X156197809Y-97802191D01*
X155987765Y-97661843D01*
X155740000Y-97612560D01*
X154140000Y-97612560D01*
X153892235Y-97661843D01*
X153682191Y-97802191D01*
X153541843Y-98012235D01*
X153492560Y-98260000D01*
X153492560Y-99860000D01*
X153541843Y-100107765D01*
X153682191Y-100317809D01*
X153892235Y-100458157D01*
X153905000Y-100460696D01*
X153905000Y-100558065D01*
X153884724Y-100660000D01*
X153905000Y-100761934D01*
X153965052Y-101063836D01*
X154193807Y-101406193D01*
X154280227Y-101463937D01*
X156346065Y-103529776D01*
X156403807Y-103616193D01*
X156490223Y-103673934D01*
X156746163Y-103844948D01*
X157150000Y-103925276D01*
X157251934Y-103905000D01*
X167538066Y-103905000D01*
X167640000Y-103925276D01*
X168043837Y-103844948D01*
X168386193Y-103616193D01*
X168614948Y-103273837D01*
X168675000Y-102971935D01*
X168675000Y-102971934D01*
X168695276Y-102870000D01*
X168675000Y-102768065D01*
X168675000Y-87731929D01*
X168695275Y-87629999D01*
X168675000Y-87528070D01*
X168675000Y-87528065D01*
X168614948Y-87226163D01*
X168386193Y-86883807D01*
X168299776Y-86826065D01*
X166435000Y-84961290D01*
X166435000Y-84824452D01*
X166231758Y-84333783D01*
X165856217Y-83958242D01*
X165365548Y-83755000D01*
X164834452Y-83755000D01*
X164343783Y-83958242D01*
X163968242Y-84333783D01*
X163830000Y-84667528D01*
X163691758Y-84333783D01*
X163316217Y-83958242D01*
X162825548Y-83755000D01*
X162294452Y-83755000D01*
X161803783Y-83958242D01*
X161428242Y-84333783D01*
X161290000Y-84667528D01*
X161151758Y-84333783D01*
X160776217Y-83958242D01*
X160285548Y-83755000D01*
X159754452Y-83755000D01*
X159263783Y-83958242D01*
X158888242Y-84333783D01*
X158750000Y-84667528D01*
X158611758Y-84333783D01*
X158236217Y-83958242D01*
X157745548Y-83755000D01*
X157214452Y-83755000D01*
X156723783Y-83958242D01*
X156348242Y-84333783D01*
X156145000Y-84824452D01*
X156145000Y-85355548D01*
X156348242Y-85846217D01*
X156445000Y-85942975D01*
X156445001Y-90406055D01*
X156210000Y-90757758D01*
X155974577Y-90405423D01*
X155499909Y-90088260D01*
X155081333Y-90005000D01*
X154798667Y-90005000D01*
X154380091Y-90088260D01*
X153905423Y-90405423D01*
X153588260Y-90880091D01*
X153477035Y-91439254D01*
X150470225Y-94446065D01*
X150383808Y-94503807D01*
X150326066Y-94590224D01*
X150155052Y-94846164D01*
X150074724Y-95250000D01*
X148717000Y-95250000D01*
X148717000Y-80010000D01*
X150618041Y-80010000D01*
X150734350Y-80594725D01*
X151065570Y-81090430D01*
X151561275Y-81421650D01*
X151998402Y-81508600D01*
X152293598Y-81508600D01*
X152730725Y-81421650D01*
X153226430Y-81090430D01*
X153416000Y-80806719D01*
X153605570Y-81090430D01*
X154101275Y-81421650D01*
X154538402Y-81508600D01*
X154833598Y-81508600D01*
X155270725Y-81421650D01*
X155766430Y-81090430D01*
X155956000Y-80806719D01*
X156145570Y-81090430D01*
X156641275Y-81421650D01*
X157078402Y-81508600D01*
X157373598Y-81508600D01*
X157810725Y-81421650D01*
X158306430Y-81090430D01*
X158496000Y-80806719D01*
X158685570Y-81090430D01*
X159181275Y-81421650D01*
X159618402Y-81508600D01*
X159913598Y-81508600D01*
X160350725Y-81421650D01*
X160846430Y-81090430D01*
X161036000Y-80806719D01*
X161225570Y-81090430D01*
X161721275Y-81421650D01*
X162158402Y-81508600D01*
X162453598Y-81508600D01*
X162890725Y-81421650D01*
X163386430Y-81090430D01*
X163576000Y-80806719D01*
X163765570Y-81090430D01*
X164261275Y-81421650D01*
X164698402Y-81508600D01*
X164993598Y-81508600D01*
X165430725Y-81421650D01*
X165926430Y-81090430D01*
X166116000Y-80806719D01*
X166305570Y-81090430D01*
X166801275Y-81421650D01*
X167238402Y-81508600D01*
X167533598Y-81508600D01*
X167970725Y-81421650D01*
X168466430Y-81090430D01*
X168656000Y-80806719D01*
X168845570Y-81090430D01*
X169341275Y-81421650D01*
X169778402Y-81508600D01*
X170073598Y-81508600D01*
X170510725Y-81421650D01*
X171006430Y-81090430D01*
X171337650Y-80594725D01*
X171453959Y-80010000D01*
X171337650Y-79425275D01*
X171006430Y-78929570D01*
X170510725Y-78598350D01*
X170073598Y-78511400D01*
X169778402Y-78511400D01*
X169341275Y-78598350D01*
X168845570Y-78929570D01*
X168656000Y-79213281D01*
X168466430Y-78929570D01*
X167970725Y-78598350D01*
X167533598Y-78511400D01*
X167238402Y-78511400D01*
X166801275Y-78598350D01*
X166305570Y-78929570D01*
X166116000Y-79213281D01*
X165926430Y-78929570D01*
X165430725Y-78598350D01*
X164993598Y-78511400D01*
X164698402Y-78511400D01*
X164261275Y-78598350D01*
X163765570Y-78929570D01*
X163576000Y-79213281D01*
X163386430Y-78929570D01*
X162890725Y-78598350D01*
X162453598Y-78511400D01*
X162158402Y-78511400D01*
X161721275Y-78598350D01*
X161225570Y-78929570D01*
X161036000Y-79213281D01*
X160846430Y-78929570D01*
X160350725Y-78598350D01*
X159913598Y-78511400D01*
X159618402Y-78511400D01*
X159181275Y-78598350D01*
X158685570Y-78929570D01*
X158496000Y-79213281D01*
X158306430Y-78929570D01*
X157810725Y-78598350D01*
X157373598Y-78511400D01*
X157078402Y-78511400D01*
X156641275Y-78598350D01*
X156145570Y-78929570D01*
X155956000Y-79213281D01*
X155766430Y-78929570D01*
X155270725Y-78598350D01*
X154833598Y-78511400D01*
X154538402Y-78511400D01*
X154101275Y-78598350D01*
X153605570Y-78929570D01*
X153416000Y-79213281D01*
X153226430Y-78929570D01*
X152730725Y-78598350D01*
X152293598Y-78511400D01*
X151998402Y-78511400D01*
X151561275Y-78598350D01*
X151065570Y-78929570D01*
X150734350Y-79425275D01*
X150618041Y-80010000D01*
X148717000Y-80010000D01*
X148717000Y-77597000D01*
X175133000Y-77597000D01*
X175133000Y-127283212D01*
G04 #@! TD*
M02*
