M48
;DRILL file {KiCad (5.0.2)-1} date 4/23/2019 12:54:55 AM
;FORMAT={-:-/ absolute / metric / decimal}
FMAT,2
METRIC,TZ
T1C0.700
T2C0.800
T3C1.016
%
G90
G05
T1
X157.48Y-85.09
X160.02Y-85.09
X162.56Y-85.09
X165.1Y-85.09
X168.91Y-113.03
X171.45Y-123.19
T2
X160.02Y-113.03
X162.52Y-113.03
X154.94Y-91.44
X154.94Y-99.06
X157.48Y-91.44
X157.48Y-99.06
X160.02Y-91.44
X160.02Y-99.06
X162.56Y-91.44
X162.56Y-99.06
T3
X152.146Y-80.01
X154.686Y-80.01
X156.21Y-128.27
X157.226Y-80.01
X158.75Y-128.27
X159.766Y-80.01
X161.29Y-128.27
X162.306Y-80.01
X163.83Y-128.27
X164.846Y-80.01
X166.37Y-128.27
X167.386Y-80.01
X168.91Y-128.27
X169.926Y-80.01
X171.45Y-128.27
X173.99Y-128.27
T0
M30
