G04 #@! TF.GenerationSoftware,KiCad,Pcbnew,(5.0.2)-1*
G04 #@! TF.CreationDate,2019-08-18T23:26:54-04:00*
G04 #@! TF.ProjectId,ATTINY_Bootloader,41545449-4e59-45f4-926f-6f746c6f6164,rev?*
G04 #@! TF.SameCoordinates,Original*
G04 #@! TF.FileFunction,Copper,L1,Top*
G04 #@! TF.FilePolarity,Positive*
%FSLAX46Y46*%
G04 Gerber Fmt 4.6, Leading zero omitted, Abs format (unit mm)*
G04 Created by KiCad (PCBNEW (5.0.2)-1) date 8/18/2019 11:26:54 PM*
%MOMM*%
%LPD*%
G01*
G04 APERTURE LIST*
G04 #@! TA.AperFunction,NonConductor*
%ADD10C,0.300000*%
G04 #@! TD*
G04 #@! TA.AperFunction,ComponentPad*
%ADD11O,1.727200X1.727200*%
G04 #@! TD*
G04 #@! TA.AperFunction,ComponentPad*
%ADD12C,1.600000*%
G04 #@! TD*
G04 #@! TA.AperFunction,ComponentPad*
%ADD13R,1.600000X1.600000*%
G04 #@! TD*
G04 #@! TA.AperFunction,ComponentPad*
%ADD14O,1.600000X1.600000*%
G04 #@! TD*
G04 #@! TA.AperFunction,ViaPad*
%ADD15C,1.400000*%
G04 #@! TD*
G04 #@! TA.AperFunction,Conductor*
%ADD16C,0.800000*%
G04 #@! TD*
G04 APERTURE END LIST*
D10*
X164528571Y-113137142D02*
X165671428Y-113137142D01*
D11*
G04 #@! TO.P,XA1,VIN*
G04 #@! TO.N,Net-(XA1-PadVIN)*
X173990000Y-128270000D03*
G04 #@! TO.P,XA1,GND3*
G04 #@! TO.N,GND*
X171450000Y-128270000D03*
G04 #@! TO.P,XA1,GND2*
G04 #@! TO.N,Net-(XA1-PadGND2)*
X168910000Y-128270000D03*
G04 #@! TO.P,XA1,5V1*
G04 #@! TO.N,+5V*
X166370000Y-128270000D03*
G04 #@! TO.P,XA1,3V3*
G04 #@! TO.N,Net-(XA1-Pad3V3)*
X163830000Y-128270000D03*
G04 #@! TO.P,XA1,RST1*
G04 #@! TO.N,Net-(C1-Pad1)*
X161290000Y-128270000D03*
G04 #@! TO.P,XA1,IORF*
G04 #@! TO.N,Net-(XA1-PadIORF)*
X158750000Y-128270000D03*
G04 #@! TO.P,XA1,GND1*
G04 #@! TO.N,Net-(XA1-PadGND1)*
X154686000Y-80010000D03*
G04 #@! TO.P,XA1,D8*
G04 #@! TO.N,Net-(XA1-PadD8)*
X169926000Y-80010000D03*
G04 #@! TO.P,XA1,D9*
G04 #@! TO.N,Net-(XA1-PadD9)*
X167386000Y-80010000D03*
G04 #@! TO.P,XA1,D10*
G04 #@! TO.N,PIN10_PIN1*
X164846000Y-80010000D03*
G04 #@! TO.P,XA1,AREF*
G04 #@! TO.N,Net-(XA1-PadAREF)*
X152146000Y-80010000D03*
G04 #@! TO.P,XA1,D13*
G04 #@! TO.N,PIN13_PIN7*
X157226000Y-80010000D03*
G04 #@! TO.P,XA1,D12*
G04 #@! TO.N,PIN12_PIN6*
X159766000Y-80010000D03*
G04 #@! TO.P,XA1,D11*
G04 #@! TO.N,PIN11_PIN5*
X162306000Y-80010000D03*
G04 #@! TO.P,XA1,*
G04 #@! TO.N,*
X156210000Y-128270000D03*
G04 #@! TD*
D12*
G04 #@! TO.P,C1,2*
G04 #@! TO.N,GND*
X162520000Y-113030000D03*
D13*
G04 #@! TO.P,C1,1*
G04 #@! TO.N,Net-(C1-Pad1)*
X160020000Y-113030000D03*
G04 #@! TD*
D14*
G04 #@! TO.P,U1,8*
G04 #@! TO.N,+5V*
X154940000Y-91440000D03*
G04 #@! TO.P,U1,4*
G04 #@! TO.N,GND*
X162560000Y-99060000D03*
G04 #@! TO.P,U1,7*
G04 #@! TO.N,PIN13_PIN7*
X157480000Y-91440000D03*
G04 #@! TO.P,U1,3*
G04 #@! TO.N,Net-(U1-Pad3)*
X160020000Y-99060000D03*
G04 #@! TO.P,U1,6*
G04 #@! TO.N,PIN12_PIN6*
X160020000Y-91440000D03*
G04 #@! TO.P,U1,2*
G04 #@! TO.N,Net-(U1-Pad2)*
X157480000Y-99060000D03*
G04 #@! TO.P,U1,5*
G04 #@! TO.N,PIN11_PIN5*
X162560000Y-91440000D03*
D13*
G04 #@! TO.P,U1,1*
G04 #@! TO.N,PIN10_PIN1*
X154940000Y-99060000D03*
G04 #@! TD*
D15*
G04 #@! TO.N,GND*
X171450000Y-123190000D03*
G04 #@! TO.N,+5V*
X168910000Y-113030000D03*
G04 #@! TO.N,PIN13_PIN7*
X157480000Y-85090000D03*
G04 #@! TO.N,PIN12_PIN6*
X160020000Y-85090000D03*
G04 #@! TO.N,PIN11_PIN5*
X162560000Y-85090000D03*
G04 #@! TO.N,PIN10_PIN1*
X165100000Y-85090000D03*
G04 #@! TD*
D16*
G04 #@! TO.N,GND*
X171450000Y-128270000D02*
X171450000Y-123190000D01*
G04 #@! TO.N,Net-(C1-Pad1)*
X161365001Y-128345001D02*
X161365001Y-125805001D01*
X160020000Y-124460000D02*
X160020000Y-113030000D01*
X161365001Y-125805001D02*
X160020000Y-124460000D01*
G04 #@! TO.N,+5V*
X166445001Y-128345001D02*
X166445001Y-121844999D01*
X166445001Y-121844999D02*
X168910000Y-119380000D01*
X168910000Y-119380000D02*
X168910000Y-113030000D01*
G04 #@! TO.N,PIN13_PIN7*
X157301001Y-80085001D02*
X157301001Y-84911001D01*
X157301001Y-84911001D02*
X157480000Y-85090000D01*
G04 #@! TO.N,PIN12_PIN6*
X159841001Y-80085001D02*
X159841001Y-84911001D01*
X159841001Y-84911001D02*
X160020000Y-85090000D01*
G04 #@! TO.N,PIN11_PIN5*
X162381001Y-80085001D02*
X162381001Y-84911001D01*
X162381001Y-84911001D02*
X162560000Y-85090000D01*
G04 #@! TO.N,PIN10_PIN1*
X164921001Y-80085001D02*
X164921001Y-84911001D01*
X164921001Y-84911001D02*
X165100000Y-85090000D01*
G04 #@! TD*
M02*
