G04 #@! TF.GenerationSoftware,KiCad,Pcbnew,(5.0.2)-1*
G04 #@! TF.CreationDate,2019-08-18T23:26:54-04:00*
G04 #@! TF.ProjectId,ATTINY_Bootloader,41545449-4e59-45f4-926f-6f746c6f6164,rev?*
G04 #@! TF.SameCoordinates,Original*
G04 #@! TF.FileFunction,Legend,Top*
G04 #@! TF.FilePolarity,Positive*
%FSLAX46Y46*%
G04 Gerber Fmt 4.6, Leading zero omitted, Abs format (unit mm)*
G04 Created by KiCad (PCBNEW (5.0.2)-1) date 8/18/2019 11:26:54 PM*
%MOMM*%
%LPD*%
G01*
G04 APERTURE LIST*
%ADD10C,0.250000*%
%ADD11C,0.120000*%
%ADD12C,0.150000*%
G04 APERTURE END LIST*
D10*
X153606666Y-88352380D02*
X153940000Y-89352380D01*
X154273333Y-88352380D01*
X155178095Y-89257142D02*
X155130476Y-89304761D01*
X154987619Y-89352380D01*
X154892380Y-89352380D01*
X154749523Y-89304761D01*
X154654285Y-89209523D01*
X154606666Y-89114285D01*
X154559047Y-88923809D01*
X154559047Y-88780952D01*
X154606666Y-88590476D01*
X154654285Y-88495238D01*
X154749523Y-88400000D01*
X154892380Y-88352380D01*
X154987619Y-88352380D01*
X155130476Y-88400000D01*
X155178095Y-88447619D01*
X156178095Y-89257142D02*
X156130476Y-89304761D01*
X155987619Y-89352380D01*
X155892380Y-89352380D01*
X155749523Y-89304761D01*
X155654285Y-89209523D01*
X155606666Y-89114285D01*
X155559047Y-88923809D01*
X155559047Y-88780952D01*
X155606666Y-88590476D01*
X155654285Y-88495238D01*
X155749523Y-88400000D01*
X155892380Y-88352380D01*
X155987619Y-88352380D01*
X156130476Y-88400000D01*
X156178095Y-88447619D01*
X161798095Y-101100000D02*
X161702857Y-101052380D01*
X161560000Y-101052380D01*
X161417142Y-101100000D01*
X161321904Y-101195238D01*
X161274285Y-101290476D01*
X161226666Y-101480952D01*
X161226666Y-101623809D01*
X161274285Y-101814285D01*
X161321904Y-101909523D01*
X161417142Y-102004761D01*
X161560000Y-102052380D01*
X161655238Y-102052380D01*
X161798095Y-102004761D01*
X161845714Y-101957142D01*
X161845714Y-101623809D01*
X161655238Y-101623809D01*
X162274285Y-102052380D02*
X162274285Y-101052380D01*
X162845714Y-102052380D01*
X162845714Y-101052380D01*
X163321904Y-102052380D02*
X163321904Y-101052380D01*
X163560000Y-101052380D01*
X163702857Y-101100000D01*
X163798095Y-101195238D01*
X163845714Y-101290476D01*
X163893333Y-101480952D01*
X163893333Y-101623809D01*
X163845714Y-101814285D01*
X163798095Y-101909523D01*
X163702857Y-102004761D01*
X163560000Y-102052380D01*
X163321904Y-102052380D01*
X157289523Y-77922380D02*
X156718095Y-77922380D01*
X157003809Y-77922380D02*
X157003809Y-76922380D01*
X156908571Y-77065238D01*
X156813333Y-77160476D01*
X156718095Y-77208095D01*
X157622857Y-76922380D02*
X158241904Y-76922380D01*
X157908571Y-77303333D01*
X158051428Y-77303333D01*
X158146666Y-77350952D01*
X158194285Y-77398571D01*
X158241904Y-77493809D01*
X158241904Y-77731904D01*
X158194285Y-77827142D01*
X158146666Y-77874761D01*
X158051428Y-77922380D01*
X157765714Y-77922380D01*
X157670476Y-77874761D01*
X157622857Y-77827142D01*
X159829523Y-77922380D02*
X159258095Y-77922380D01*
X159543809Y-77922380D02*
X159543809Y-76922380D01*
X159448571Y-77065238D01*
X159353333Y-77160476D01*
X159258095Y-77208095D01*
X160210476Y-77017619D02*
X160258095Y-76970000D01*
X160353333Y-76922380D01*
X160591428Y-76922380D01*
X160686666Y-76970000D01*
X160734285Y-77017619D01*
X160781904Y-77112857D01*
X160781904Y-77208095D01*
X160734285Y-77350952D01*
X160162857Y-77922380D01*
X160781904Y-77922380D01*
X162369523Y-77922380D02*
X161798095Y-77922380D01*
X162083809Y-77922380D02*
X162083809Y-76922380D01*
X161988571Y-77065238D01*
X161893333Y-77160476D01*
X161798095Y-77208095D01*
X163321904Y-77922380D02*
X162750476Y-77922380D01*
X163036190Y-77922380D02*
X163036190Y-76922380D01*
X162940952Y-77065238D01*
X162845714Y-77160476D01*
X162750476Y-77208095D01*
X164909523Y-77922380D02*
X164338095Y-77922380D01*
X164623809Y-77922380D02*
X164623809Y-76922380D01*
X164528571Y-77065238D01*
X164433333Y-77160476D01*
X164338095Y-77208095D01*
X165528571Y-76922380D02*
X165623809Y-76922380D01*
X165719047Y-76970000D01*
X165766666Y-77017619D01*
X165814285Y-77112857D01*
X165861904Y-77303333D01*
X165861904Y-77541428D01*
X165814285Y-77731904D01*
X165766666Y-77827142D01*
X165719047Y-77874761D01*
X165623809Y-77922380D01*
X165528571Y-77922380D01*
X165433333Y-77874761D01*
X165385714Y-77827142D01*
X165338095Y-77731904D01*
X165290476Y-77541428D01*
X165290476Y-77303333D01*
X165338095Y-77112857D01*
X165385714Y-77017619D01*
X165433333Y-76970000D01*
X165528571Y-76922380D01*
D11*
G04 #@! TO.C,C1*
X158420000Y-112380000D02*
X158420000Y-113680000D01*
X157820000Y-113030000D02*
X159020000Y-113030000D01*
X166351000Y-112751000D02*
X166351000Y-113309000D01*
X166311000Y-112358000D02*
X166311000Y-113702000D01*
X166271000Y-112117000D02*
X166271000Y-113943000D01*
X166231000Y-111926000D02*
X166231000Y-114134000D01*
X166191000Y-111765000D02*
X166191000Y-114295000D01*
X166151000Y-111623000D02*
X166151000Y-114437000D01*
X166111000Y-111494000D02*
X166111000Y-114566000D01*
X166071000Y-111376000D02*
X166071000Y-114684000D01*
X166031000Y-111267000D02*
X166031000Y-114793000D01*
X165991000Y-111164000D02*
X165991000Y-114896000D01*
X165951000Y-111068000D02*
X165951000Y-114992000D01*
X165911000Y-110977000D02*
X165911000Y-115083000D01*
X165871000Y-110890000D02*
X165871000Y-115170000D01*
X165831000Y-110808000D02*
X165831000Y-115252000D01*
X165791000Y-110729000D02*
X165791000Y-115331000D01*
X165751000Y-110653000D02*
X165751000Y-115407000D01*
X165711000Y-110581000D02*
X165711000Y-115479000D01*
X165671000Y-110511000D02*
X165671000Y-115549000D01*
X165631000Y-110443000D02*
X165631000Y-115617000D01*
X165591000Y-110378000D02*
X165591000Y-115682000D01*
X165551000Y-110315000D02*
X165551000Y-115745000D01*
X165511000Y-110253000D02*
X165511000Y-115807000D01*
X165471000Y-110194000D02*
X165471000Y-115866000D01*
X165431000Y-110136000D02*
X165431000Y-115924000D01*
X165391000Y-110081000D02*
X165391000Y-115979000D01*
X165351000Y-110026000D02*
X165351000Y-116034000D01*
X165311000Y-109973000D02*
X165311000Y-116087000D01*
X165271000Y-109922000D02*
X165271000Y-116138000D01*
X165231000Y-109872000D02*
X165231000Y-116188000D01*
X165191000Y-109823000D02*
X165191000Y-116237000D01*
X165151000Y-109775000D02*
X165151000Y-116285000D01*
X165111000Y-109728000D02*
X165111000Y-116332000D01*
X165071000Y-109683000D02*
X165071000Y-116377000D01*
X165031000Y-109639000D02*
X165031000Y-116421000D01*
X164991000Y-109595000D02*
X164991000Y-116465000D01*
X164951000Y-109553000D02*
X164951000Y-116507000D01*
X164911000Y-109512000D02*
X164911000Y-116548000D01*
X164871000Y-109471000D02*
X164871000Y-116589000D01*
X164831000Y-109432000D02*
X164831000Y-116628000D01*
X164791000Y-109393000D02*
X164791000Y-116667000D01*
X164751000Y-109355000D02*
X164751000Y-116705000D01*
X164711000Y-109318000D02*
X164711000Y-116742000D01*
X164671000Y-109282000D02*
X164671000Y-116778000D01*
X164631000Y-109246000D02*
X164631000Y-116814000D01*
X164591000Y-109211000D02*
X164591000Y-116849000D01*
X164551000Y-109177000D02*
X164551000Y-116883000D01*
X164511000Y-109144000D02*
X164511000Y-116916000D01*
X164471000Y-109111000D02*
X164471000Y-116949000D01*
X164431000Y-109079000D02*
X164431000Y-116981000D01*
X164391000Y-109048000D02*
X164391000Y-117012000D01*
X164351000Y-109017000D02*
X164351000Y-117043000D01*
X164311000Y-108987000D02*
X164311000Y-117073000D01*
X164271000Y-108958000D02*
X164271000Y-117102000D01*
X164231000Y-108929000D02*
X164231000Y-117131000D01*
X164191000Y-108900000D02*
X164191000Y-117160000D01*
X164151000Y-108873000D02*
X164151000Y-117187000D01*
X164111000Y-108845000D02*
X164111000Y-117215000D01*
X164071000Y-108819000D02*
X164071000Y-117241000D01*
X164031000Y-108793000D02*
X164031000Y-117267000D01*
X163991000Y-108767000D02*
X163991000Y-117293000D01*
X163951000Y-108742000D02*
X163951000Y-117318000D01*
X163911000Y-108718000D02*
X163911000Y-117342000D01*
X163871000Y-108694000D02*
X163871000Y-117366000D01*
X163831000Y-108670000D02*
X163831000Y-117390000D01*
X163791000Y-108647000D02*
X163791000Y-117413000D01*
X163751000Y-108625000D02*
X163751000Y-117435000D01*
X163711000Y-108602000D02*
X163711000Y-117458000D01*
X163671000Y-108581000D02*
X163671000Y-117479000D01*
X163631000Y-108560000D02*
X163631000Y-117500000D01*
X163591000Y-108539000D02*
X163591000Y-117521000D01*
X163551000Y-108519000D02*
X163551000Y-117541000D01*
X163511000Y-108499000D02*
X163511000Y-117561000D01*
X163471000Y-114010000D02*
X163471000Y-117580000D01*
X163471000Y-108480000D02*
X163471000Y-112050000D01*
X163431000Y-114010000D02*
X163431000Y-117599000D01*
X163431000Y-108461000D02*
X163431000Y-112050000D01*
X163391000Y-114010000D02*
X163391000Y-117618000D01*
X163391000Y-108442000D02*
X163391000Y-112050000D01*
X163351000Y-114010000D02*
X163351000Y-117636000D01*
X163351000Y-108424000D02*
X163351000Y-112050000D01*
X163311000Y-114010000D02*
X163311000Y-117654000D01*
X163311000Y-108406000D02*
X163311000Y-112050000D01*
X163271000Y-114010000D02*
X163271000Y-117671000D01*
X163271000Y-108389000D02*
X163271000Y-112050000D01*
X163231000Y-114010000D02*
X163231000Y-117688000D01*
X163231000Y-108372000D02*
X163231000Y-112050000D01*
X163191000Y-114010000D02*
X163191000Y-117704000D01*
X163191000Y-108356000D02*
X163191000Y-112050000D01*
X163151000Y-114010000D02*
X163151000Y-117721000D01*
X163151000Y-108339000D02*
X163151000Y-112050000D01*
X163111000Y-114010000D02*
X163111000Y-117736000D01*
X163111000Y-108324000D02*
X163111000Y-112050000D01*
X163071000Y-114010000D02*
X163071000Y-117752000D01*
X163071000Y-108308000D02*
X163071000Y-112050000D01*
X163031000Y-114010000D02*
X163031000Y-117767000D01*
X163031000Y-108293000D02*
X163031000Y-112050000D01*
X162991000Y-114010000D02*
X162991000Y-117781000D01*
X162991000Y-108279000D02*
X162991000Y-112050000D01*
X162951000Y-114010000D02*
X162951000Y-117795000D01*
X162951000Y-108265000D02*
X162951000Y-112050000D01*
X162911000Y-114010000D02*
X162911000Y-117809000D01*
X162911000Y-108251000D02*
X162911000Y-112050000D01*
X162871000Y-114010000D02*
X162871000Y-117822000D01*
X162871000Y-108238000D02*
X162871000Y-112050000D01*
X162831000Y-114010000D02*
X162831000Y-117836000D01*
X162831000Y-108224000D02*
X162831000Y-112050000D01*
X162791000Y-114010000D02*
X162791000Y-117848000D01*
X162791000Y-108212000D02*
X162791000Y-112050000D01*
X162751000Y-114010000D02*
X162751000Y-117861000D01*
X162751000Y-108199000D02*
X162751000Y-112050000D01*
X162711000Y-114010000D02*
X162711000Y-117873000D01*
X162711000Y-108187000D02*
X162711000Y-112050000D01*
X162671000Y-114010000D02*
X162671000Y-117884000D01*
X162671000Y-108176000D02*
X162671000Y-112050000D01*
X162631000Y-114010000D02*
X162631000Y-117895000D01*
X162631000Y-108165000D02*
X162631000Y-112050000D01*
X162591000Y-114010000D02*
X162591000Y-117906000D01*
X162591000Y-108154000D02*
X162591000Y-112050000D01*
X162551000Y-114010000D02*
X162551000Y-117917000D01*
X162551000Y-108143000D02*
X162551000Y-112050000D01*
X162511000Y-114010000D02*
X162511000Y-117927000D01*
X162511000Y-108133000D02*
X162511000Y-112050000D01*
X162471000Y-114010000D02*
X162471000Y-117937000D01*
X162471000Y-108123000D02*
X162471000Y-112050000D01*
X162431000Y-114010000D02*
X162431000Y-117947000D01*
X162431000Y-108113000D02*
X162431000Y-112050000D01*
X162391000Y-114010000D02*
X162391000Y-117956000D01*
X162391000Y-108104000D02*
X162391000Y-112050000D01*
X162351000Y-114010000D02*
X162351000Y-117965000D01*
X162351000Y-108095000D02*
X162351000Y-112050000D01*
X162311000Y-114010000D02*
X162311000Y-117973000D01*
X162311000Y-108087000D02*
X162311000Y-112050000D01*
X162271000Y-114010000D02*
X162271000Y-117981000D01*
X162271000Y-108079000D02*
X162271000Y-112050000D01*
X162231000Y-114010000D02*
X162231000Y-117989000D01*
X162231000Y-108071000D02*
X162231000Y-112050000D01*
X162191000Y-114010000D02*
X162191000Y-117997000D01*
X162191000Y-108063000D02*
X162191000Y-112050000D01*
X162151000Y-114010000D02*
X162151000Y-118004000D01*
X162151000Y-108056000D02*
X162151000Y-112050000D01*
X162111000Y-114010000D02*
X162111000Y-118011000D01*
X162111000Y-108049000D02*
X162111000Y-112050000D01*
X162071000Y-114010000D02*
X162071000Y-118017000D01*
X162071000Y-108043000D02*
X162071000Y-112050000D01*
X162031000Y-114010000D02*
X162031000Y-118023000D01*
X162031000Y-108037000D02*
X162031000Y-112050000D01*
X161991000Y-114010000D02*
X161991000Y-118029000D01*
X161991000Y-108031000D02*
X161991000Y-112050000D01*
X161950000Y-114010000D02*
X161950000Y-118035000D01*
X161950000Y-108025000D02*
X161950000Y-112050000D01*
X161910000Y-114010000D02*
X161910000Y-118040000D01*
X161910000Y-108020000D02*
X161910000Y-112050000D01*
X161870000Y-114010000D02*
X161870000Y-118045000D01*
X161870000Y-108015000D02*
X161870000Y-112050000D01*
X161830000Y-114010000D02*
X161830000Y-118050000D01*
X161830000Y-108010000D02*
X161830000Y-112050000D01*
X161790000Y-114010000D02*
X161790000Y-118054000D01*
X161790000Y-108006000D02*
X161790000Y-112050000D01*
X161750000Y-114010000D02*
X161750000Y-118058000D01*
X161750000Y-108002000D02*
X161750000Y-112050000D01*
X161710000Y-114010000D02*
X161710000Y-118061000D01*
X161710000Y-107999000D02*
X161710000Y-112050000D01*
X161670000Y-114010000D02*
X161670000Y-118065000D01*
X161670000Y-107995000D02*
X161670000Y-112050000D01*
X161630000Y-114010000D02*
X161630000Y-118068000D01*
X161630000Y-107992000D02*
X161630000Y-112050000D01*
X161590000Y-114010000D02*
X161590000Y-118070000D01*
X161590000Y-107990000D02*
X161590000Y-112050000D01*
X161550000Y-114010000D02*
X161550000Y-118073000D01*
X161550000Y-107987000D02*
X161550000Y-112050000D01*
X161510000Y-107985000D02*
X161510000Y-118075000D01*
X161470000Y-107983000D02*
X161470000Y-118077000D01*
X161430000Y-107982000D02*
X161430000Y-118078000D01*
X161390000Y-107981000D02*
X161390000Y-118079000D01*
X161350000Y-107980000D02*
X161350000Y-118080000D01*
X161310000Y-107980000D02*
X161310000Y-118080000D01*
X161270000Y-107980000D02*
X161270000Y-118080000D01*
X166360000Y-113030000D02*
G75*
G03X166360000Y-113030000I-5090000J0D01*
G01*
G04 #@! TO.C,U1*
X153610000Y-92600000D02*
X153610000Y-94250000D01*
X163890000Y-92600000D02*
X153610000Y-92600000D01*
X163890000Y-97900000D02*
X163890000Y-92600000D01*
X153610000Y-97900000D02*
X163890000Y-97900000D01*
X153610000Y-96250000D02*
X153610000Y-97900000D01*
X153610000Y-94250000D02*
G75*
G02X153610000Y-96250000I0J-1000000D01*
G01*
G04 #@! TO.C,XA1*
D12*
X149891904Y-84542380D02*
X150558571Y-85542380D01*
X150558571Y-84542380D02*
X149891904Y-85542380D01*
X150891904Y-85256666D02*
X151368095Y-85256666D01*
X150796666Y-85542380D02*
X151130000Y-84542380D01*
X151463333Y-85542380D01*
X152320476Y-85542380D02*
X151749047Y-85542380D01*
X152034761Y-85542380D02*
X152034761Y-84542380D01*
X151939523Y-84685238D01*
X151844285Y-84780476D01*
X151749047Y-84828095D01*
G04 #@! TO.C,C1*
X161103333Y-107077142D02*
X161055714Y-107124761D01*
X160912857Y-107172380D01*
X160817619Y-107172380D01*
X160674761Y-107124761D01*
X160579523Y-107029523D01*
X160531904Y-106934285D01*
X160484285Y-106743809D01*
X160484285Y-106600952D01*
X160531904Y-106410476D01*
X160579523Y-106315238D01*
X160674761Y-106220000D01*
X160817619Y-106172380D01*
X160912857Y-106172380D01*
X161055714Y-106220000D01*
X161103333Y-106267619D01*
X162055714Y-107172380D02*
X161484285Y-107172380D01*
X161770000Y-107172380D02*
X161770000Y-106172380D01*
X161674761Y-106315238D01*
X161579523Y-106410476D01*
X161484285Y-106458095D01*
G04 #@! TO.C,U1*
X152062380Y-96011904D02*
X152871904Y-96011904D01*
X152967142Y-95964285D01*
X153014761Y-95916666D01*
X153062380Y-95821428D01*
X153062380Y-95630952D01*
X153014761Y-95535714D01*
X152967142Y-95488095D01*
X152871904Y-95440476D01*
X152062380Y-95440476D01*
X153062380Y-94440476D02*
X153062380Y-95011904D01*
X153062380Y-94726190D02*
X152062380Y-94726190D01*
X152205238Y-94821428D01*
X152300476Y-94916666D01*
X152348095Y-95011904D01*
G04 #@! TD*
M02*
