G04 #@! TF.FileFunction,Legend,Top*
%FSLAX46Y46*%
G04 Gerber Fmt 4.6, Leading zero omitted, Abs format (unit mm)*
G04 Created by KiCad (PCBNEW 4.0.7) date 02/04/19 22:31:31*
%MOMM*%
%LPD*%
G01*
G04 APERTURE LIST*
%ADD10C,0.100000*%
%ADD11C,0.120000*%
%ADD12C,0.150000*%
G04 APERTURE END LIST*
D10*
D11*
X205490000Y-99040000D02*
G75*
G02X205490000Y-104160000I0J-2560000D01*
G01*
X199330000Y-104160000D02*
X205490000Y-104160000D01*
X199330000Y-99040000D02*
X205490000Y-99040000D01*
X199330000Y-104160000D02*
X199330000Y-99040000D01*
X199330000Y-98640000D02*
X200450000Y-98640000D01*
X200450000Y-98640000D02*
X200450000Y-99040000D01*
X200450000Y-99040000D02*
X199330000Y-99040000D01*
X199330000Y-99040000D02*
X199330000Y-98640000D01*
X194120000Y-102870000D02*
X199330000Y-102870000D01*
X199330000Y-102870000D02*
X199330000Y-102870000D01*
X199330000Y-102870000D02*
X194120000Y-102870000D01*
X194120000Y-102870000D02*
X194120000Y-102870000D01*
X194120000Y-100330000D02*
X199330000Y-100330000D01*
X199330000Y-100330000D02*
X199330000Y-100330000D01*
X199330000Y-100330000D02*
X194120000Y-100330000D01*
X194120000Y-100330000D02*
X194120000Y-100330000D01*
X205490000Y-87610000D02*
G75*
G02X205490000Y-92730000I0J-2560000D01*
G01*
X199330000Y-92730000D02*
X205490000Y-92730000D01*
X199330000Y-87610000D02*
X205490000Y-87610000D01*
X199330000Y-92730000D02*
X199330000Y-87610000D01*
X199330000Y-87210000D02*
X200450000Y-87210000D01*
X200450000Y-87210000D02*
X200450000Y-87610000D01*
X200450000Y-87610000D02*
X199330000Y-87610000D01*
X199330000Y-87610000D02*
X199330000Y-87210000D01*
X194120000Y-91440000D02*
X199330000Y-91440000D01*
X199330000Y-91440000D02*
X199330000Y-91440000D01*
X199330000Y-91440000D02*
X194120000Y-91440000D01*
X194120000Y-91440000D02*
X194120000Y-91440000D01*
X194120000Y-88900000D02*
X199330000Y-88900000D01*
X199330000Y-88900000D02*
X199330000Y-88900000D01*
X199330000Y-88900000D02*
X194120000Y-88900000D01*
X194120000Y-88900000D02*
X194120000Y-88900000D01*
X177860000Y-78800000D02*
X177860000Y-76140000D01*
X175260000Y-78800000D02*
X177860000Y-78800000D01*
X175260000Y-76140000D02*
X177860000Y-76140000D01*
X175260000Y-78800000D02*
X175260000Y-76140000D01*
X173990000Y-78800000D02*
X172660000Y-78800000D01*
X172660000Y-78800000D02*
X172660000Y-77470000D01*
X169330000Y-92980000D02*
X169330000Y-88480000D01*
X165330000Y-94230000D02*
X166830000Y-94230000D01*
X162830000Y-88480000D02*
X162830000Y-92980000D01*
X166830000Y-87230000D02*
X165330000Y-87230000D01*
X159170000Y-92980000D02*
X159170000Y-88480000D01*
X155170000Y-94230000D02*
X156670000Y-94230000D01*
X152670000Y-88480000D02*
X152670000Y-92980000D01*
X156670000Y-87230000D02*
X155170000Y-87230000D01*
X182610000Y-87570000D02*
G75*
G02X180610000Y-87570000I-1000000J0D01*
G01*
X180610000Y-87570000D02*
X178960000Y-87570000D01*
X178960000Y-87570000D02*
X178960000Y-105470000D01*
X178960000Y-105470000D02*
X184260000Y-105470000D01*
X184260000Y-105470000D02*
X184260000Y-87570000D01*
X184260000Y-87570000D02*
X182610000Y-87570000D01*
D12*
X191532381Y-102338095D02*
X190532381Y-102338095D01*
X190532381Y-102100000D01*
X190580000Y-101957142D01*
X190675238Y-101861904D01*
X190770476Y-101814285D01*
X190960952Y-101766666D01*
X191103810Y-101766666D01*
X191294286Y-101814285D01*
X191389524Y-101861904D01*
X191484762Y-101957142D01*
X191532381Y-102100000D01*
X191532381Y-102338095D01*
X191532381Y-100814285D02*
X191532381Y-101385714D01*
X191532381Y-101100000D02*
X190532381Y-101100000D01*
X190675238Y-101195238D01*
X190770476Y-101290476D01*
X190818095Y-101385714D01*
X191532381Y-90908095D02*
X190532381Y-90908095D01*
X190532381Y-90670000D01*
X190580000Y-90527142D01*
X190675238Y-90431904D01*
X190770476Y-90384285D01*
X190960952Y-90336666D01*
X191103810Y-90336666D01*
X191294286Y-90384285D01*
X191389524Y-90431904D01*
X191484762Y-90527142D01*
X191532381Y-90670000D01*
X191532381Y-90908095D01*
X190627619Y-89955714D02*
X190580000Y-89908095D01*
X190532381Y-89812857D01*
X190532381Y-89574761D01*
X190580000Y-89479523D01*
X190627619Y-89431904D01*
X190722857Y-89384285D01*
X190818095Y-89384285D01*
X190960952Y-89431904D01*
X191532381Y-90003333D01*
X191532381Y-89384285D01*
X171112381Y-77803333D02*
X171826667Y-77803333D01*
X171969524Y-77850953D01*
X172064762Y-77946191D01*
X172112381Y-78089048D01*
X172112381Y-78184286D01*
X172112381Y-76803333D02*
X172112381Y-77374762D01*
X172112381Y-77089048D02*
X171112381Y-77089048D01*
X171255238Y-77184286D01*
X171350476Y-77279524D01*
X171398095Y-77374762D01*
X162234762Y-92063333D02*
X162282381Y-91920476D01*
X162282381Y-91682380D01*
X162234762Y-91587142D01*
X162187143Y-91539523D01*
X162091905Y-91491904D01*
X161996667Y-91491904D01*
X161901429Y-91539523D01*
X161853810Y-91587142D01*
X161806190Y-91682380D01*
X161758571Y-91872857D01*
X161710952Y-91968095D01*
X161663333Y-92015714D01*
X161568095Y-92063333D01*
X161472857Y-92063333D01*
X161377619Y-92015714D01*
X161330000Y-91968095D01*
X161282381Y-91872857D01*
X161282381Y-91634761D01*
X161330000Y-91491904D01*
X161282381Y-91158571D02*
X162282381Y-90920476D01*
X161568095Y-90729999D01*
X162282381Y-90539523D01*
X161282381Y-90301428D01*
X162282381Y-89396666D02*
X162282381Y-89968095D01*
X162282381Y-89682381D02*
X161282381Y-89682381D01*
X161425238Y-89777619D01*
X161520476Y-89872857D01*
X161568095Y-89968095D01*
X152074762Y-92063333D02*
X152122381Y-91920476D01*
X152122381Y-91682380D01*
X152074762Y-91587142D01*
X152027143Y-91539523D01*
X151931905Y-91491904D01*
X151836667Y-91491904D01*
X151741429Y-91539523D01*
X151693810Y-91587142D01*
X151646190Y-91682380D01*
X151598571Y-91872857D01*
X151550952Y-91968095D01*
X151503333Y-92015714D01*
X151408095Y-92063333D01*
X151312857Y-92063333D01*
X151217619Y-92015714D01*
X151170000Y-91968095D01*
X151122381Y-91872857D01*
X151122381Y-91634761D01*
X151170000Y-91491904D01*
X151122381Y-91158571D02*
X152122381Y-90920476D01*
X151408095Y-90729999D01*
X152122381Y-90539523D01*
X151122381Y-90301428D01*
X151217619Y-89968095D02*
X151170000Y-89920476D01*
X151122381Y-89825238D01*
X151122381Y-89587142D01*
X151170000Y-89491904D01*
X151217619Y-89444285D01*
X151312857Y-89396666D01*
X151408095Y-89396666D01*
X151550952Y-89444285D01*
X152122381Y-90015714D01*
X152122381Y-89396666D01*
X180848095Y-86022381D02*
X180848095Y-86831905D01*
X180895714Y-86927143D01*
X180943333Y-86974762D01*
X181038571Y-87022381D01*
X181229048Y-87022381D01*
X181324286Y-86974762D01*
X181371905Y-86927143D01*
X181419524Y-86831905D01*
X181419524Y-86022381D01*
X182419524Y-87022381D02*
X181848095Y-87022381D01*
X182133809Y-87022381D02*
X182133809Y-86022381D01*
X182038571Y-86165238D01*
X181943333Y-86260476D01*
X181848095Y-86308095D01*
M02*
