M48
;DRILL file {KiCad 4.0.7} date 02/04/19 22:31:33
;FORMAT={-:-/ absolute / inch / decimal}
FMAT,2
INCH,TZ
T1C0.031
T2C0.039
%
G90
G05
M72
T1
X7.Y-3.5
X7.Y-3.6
X7.Y-3.7
X7.Y-3.8
X7.Y-3.9
X7.Y-4.
X7.Y-4.1
X7.3Y-3.5
X7.3Y-3.6
X7.3Y-3.7
X7.3Y-3.8
X7.3Y-3.9
X7.3Y-4.
X7.3Y-4.1
X7.6Y-3.5
X7.6Y-3.6
X7.6Y-3.95
X7.6Y-4.05
T2
X6.05Y-3.4441
X6.05Y-3.7
X6.2272Y-3.4441
X6.2272Y-3.7
X6.45Y-3.4441
X6.45Y-3.7
X6.6272Y-3.4441
X6.6272Y-3.7
X6.85Y-3.05
X6.95Y-3.05
T0
M30
