G04 #@! TF.GenerationSoftware,KiCad,Pcbnew,(5.0.2)-1*
G04 #@! TF.CreationDate,2019-04-13T00:16:19-04:00*
G04 #@! TF.ProjectId,clock,636c6f63-6b2e-46b6-9963-61645f706362,rev?*
G04 #@! TF.SameCoordinates,Original*
G04 #@! TF.FileFunction,Copper,L2,Bot*
G04 #@! TF.FilePolarity,Positive*
%FSLAX46Y46*%
G04 Gerber Fmt 4.6, Leading zero omitted, Abs format (unit mm)*
G04 Created by KiCad (PCBNEW (5.0.2)-1) date 4/13/2019 12:16:19 AM*
%MOMM*%
%LPD*%
G01*
G04 APERTURE LIST*
G04 #@! TA.AperFunction,ComponentPad*
%ADD10R,0.900000X1.500000*%
G04 #@! TD*
G04 #@! TA.AperFunction,ComponentPad*
%ADD11O,0.900000X1.500000*%
G04 #@! TD*
G04 #@! TA.AperFunction,ComponentPad*
%ADD12R,3.500000X3.500000*%
G04 #@! TD*
G04 #@! TA.AperFunction,ComponentPad*
%ADD13O,1.700000X1.700000*%
G04 #@! TD*
G04 #@! TA.AperFunction,ComponentPad*
%ADD14R,1.700000X1.700000*%
G04 #@! TD*
G04 #@! TA.AperFunction,ComponentPad*
%ADD15C,1.900000*%
G04 #@! TD*
G04 #@! TA.AperFunction,Conductor*
%ADD16C,1.000000*%
G04 #@! TD*
G04 #@! TA.AperFunction,Conductor*
%ADD17C,0.254000*%
G04 #@! TD*
G04 APERTURE END LIST*
D10*
G04 #@! TO.P,Q3,1*
G04 #@! TO.N,GND*
X165100000Y-80010000D03*
D11*
G04 #@! TO.P,Q3,3*
G04 #@! TO.N,GREEN*
X162560000Y-80010000D03*
G04 #@! TO.P,Q3,2*
G04 #@! TO.N,GREEN_CTRL*
X163830000Y-80010000D03*
G04 #@! TD*
G04 #@! TO.P,Q2,2*
G04 #@! TO.N,RED_CTRL*
X163830000Y-87630000D03*
G04 #@! TO.P,Q2,3*
G04 #@! TO.N,RED*
X162560000Y-87630000D03*
D10*
G04 #@! TO.P,Q2,1*
G04 #@! TO.N,GND*
X165100000Y-87630000D03*
G04 #@! TD*
G04 #@! TO.P,Q1,1*
G04 #@! TO.N,GND*
X165100000Y-95250000D03*
D11*
G04 #@! TO.P,Q1,3*
G04 #@! TO.N,BLUE*
X162560000Y-95250000D03*
G04 #@! TO.P,Q1,2*
G04 #@! TO.N,BLUE_CTRL*
X163830000Y-95250000D03*
G04 #@! TD*
D12*
G04 #@! TO.P,J1,3*
G04 #@! TO.N,N/C*
X104950000Y-75820000D03*
G04 #@! TO.P,J1,2*
G04 #@! TO.N,GND*
X101950000Y-71120000D03*
G04 #@! TO.P,J1,1*
G04 #@! TO.N,+12V*
X107950000Y-71120000D03*
G04 #@! TD*
D13*
G04 #@! TO.P,J2,4*
G04 #@! TO.N,BLUE*
X156210000Y-90170000D03*
G04 #@! TO.P,J2,3*
G04 #@! TO.N,RED*
X156210000Y-87630000D03*
G04 #@! TO.P,J2,2*
G04 #@! TO.N,GREEN*
X156210000Y-85090000D03*
D14*
G04 #@! TO.P,J2,1*
G04 #@! TO.N,+12V*
X156210000Y-82550000D03*
G04 #@! TD*
G04 #@! TO.P,J3,1*
G04 #@! TO.N,3.3V*
X149860000Y-72390000D03*
G04 #@! TD*
D13*
G04 #@! TO.P,J4,6*
G04 #@! TO.N,A5*
X115570000Y-87630000D03*
G04 #@! TO.P,J4,5*
G04 #@! TO.N,A4*
X115570000Y-90170000D03*
G04 #@! TO.P,J4,4*
G04 #@! TO.N,A3*
X115570000Y-92710000D03*
G04 #@! TO.P,J4,3*
G04 #@! TO.N,A2*
X115570000Y-95250000D03*
G04 #@! TO.P,J4,2*
G04 #@! TO.N,A1*
X115570000Y-97790000D03*
D14*
G04 #@! TO.P,J4,1*
G04 #@! TO.N,A0*
X115570000Y-100330000D03*
G04 #@! TD*
G04 #@! TO.P,J5,1*
G04 #@! TO.N,GND*
X115570000Y-82550000D03*
G04 #@! TD*
D13*
G04 #@! TO.P,J6,5*
G04 #@! TO.N,D3*
X149860000Y-92710000D03*
G04 #@! TO.P,J6,4*
G04 #@! TO.N,D4*
X149860000Y-90170000D03*
G04 #@! TO.P,J6,3*
G04 #@! TO.N,D5*
X149860000Y-87630000D03*
G04 #@! TO.P,J6,2*
G04 #@! TO.N,D6*
X149860000Y-85090000D03*
D14*
G04 #@! TO.P,J6,1*
G04 #@! TO.N,D7*
X149860000Y-82550000D03*
G04 #@! TD*
D13*
G04 #@! TO.P,U1,3*
G04 #@! TO.N,Net-(U1-Pad3)*
X115570000Y-76200000D03*
G04 #@! TO.P,U1,2*
G04 #@! TO.N,GND*
X115570000Y-73660000D03*
D14*
G04 #@! TO.P,U1,1*
G04 #@! TO.N,+12V*
X115570000Y-71120000D03*
G04 #@! TD*
D15*
G04 #@! TO.P,U2,1*
G04 #@! TO.N,Net-(U1-Pad3)*
X124930002Y-72033002D03*
G04 #@! TO.P,U2,2*
G04 #@! TO.N,GND*
X124930002Y-74573002D03*
G04 #@! TO.P,U2,3*
G04 #@! TO.N,Net-(U2-Pad3)*
X124930002Y-77113002D03*
G04 #@! TO.P,U2,4*
G04 #@! TO.N,Net-(U2-Pad4)*
X124930002Y-79653002D03*
G04 #@! TO.P,U2,5*
G04 #@! TO.N,Net-(U2-Pad5)*
X124930002Y-82193002D03*
G04 #@! TO.P,U2,6*
G04 #@! TO.N,Net-(U2-Pad6)*
X124930002Y-84733002D03*
G04 #@! TO.P,U2,7*
G04 #@! TO.N,A5*
X124930002Y-87273002D03*
G04 #@! TO.P,U2,8*
G04 #@! TO.N,A4*
X124930002Y-89813002D03*
G04 #@! TO.P,U2,9*
G04 #@! TO.N,A3*
X124930002Y-92353002D03*
G04 #@! TO.P,U2,10*
G04 #@! TO.N,A2*
X124930002Y-94893002D03*
G04 #@! TO.P,U2,11*
G04 #@! TO.N,A1*
X124930002Y-97433002D03*
G04 #@! TO.P,U2,12*
G04 #@! TO.N,A0*
X124930002Y-99973002D03*
G04 #@! TO.P,U2,24*
G04 #@! TO.N,3.3V*
X142710002Y-72033002D03*
G04 #@! TO.P,U2,23*
G04 #@! TO.N,Net-(U2-Pad23)*
X142710002Y-74573002D03*
G04 #@! TO.P,U2,22*
G04 #@! TO.N,Net-(U2-Pad22)*
X142710002Y-77113002D03*
G04 #@! TO.P,U2,21*
G04 #@! TO.N,N/C*
X142710002Y-79653002D03*
G04 #@! TO.P,U2,20*
G04 #@! TO.N,D7*
X142710002Y-82193002D03*
G04 #@! TO.P,U2,19*
G04 #@! TO.N,D6*
X142710002Y-84733002D03*
G04 #@! TO.P,U2,18*
G04 #@! TO.N,D5*
X142710002Y-87273002D03*
G04 #@! TO.P,U2,17*
G04 #@! TO.N,D4*
X142710002Y-89813002D03*
G04 #@! TO.P,U2,16*
G04 #@! TO.N,D3*
X142710002Y-92353002D03*
G04 #@! TO.P,U2,15*
G04 #@! TO.N,GREEN_CTRL*
X142710002Y-94893002D03*
G04 #@! TO.P,U2,14*
G04 #@! TO.N,RED_CTRL*
X142710002Y-97433002D03*
G04 #@! TO.P,U2,13*
G04 #@! TO.N,BLUE_CTRL*
X142710002Y-99973002D03*
G04 #@! TD*
D16*
G04 #@! TO.N,+12V*
X107950000Y-71120000D02*
X107950000Y-68370000D01*
X107950000Y-68370000D02*
X111550000Y-64770000D01*
X115570000Y-71120000D02*
X115570000Y-64770000D01*
X111550000Y-64770000D02*
X115570000Y-64770000D01*
X156210000Y-67310000D02*
X156210000Y-82550000D01*
X115570000Y-64770000D02*
X153670000Y-64770000D01*
X153670000Y-64770000D02*
X156210000Y-67310000D01*
G04 #@! TO.N,BLUE*
X161290000Y-95250000D02*
X162379990Y-95250000D01*
X156210000Y-90170000D02*
X161290000Y-95250000D01*
G04 #@! TO.N,RED*
X156210000Y-87630000D02*
X162379990Y-87630000D01*
G04 #@! TO.N,GREEN*
X157480000Y-85090000D02*
X162379990Y-80190010D01*
X156210000Y-85090000D02*
X157480000Y-85090000D01*
G04 #@! TO.N,3.3V*
X149503002Y-72033002D02*
X149860000Y-72390000D01*
X142710002Y-72033002D02*
X149503002Y-72033002D01*
G04 #@! TO.N,A5*
X115926998Y-87273002D02*
X115570000Y-87630000D01*
X124930002Y-87273002D02*
X115926998Y-87273002D01*
G04 #@! TO.N,A4*
X115926998Y-89813002D02*
X115570000Y-90170000D01*
X124930002Y-89813002D02*
X115926998Y-89813002D01*
G04 #@! TO.N,A3*
X115926998Y-92353002D02*
X115570000Y-92710000D01*
X124930002Y-92353002D02*
X115926998Y-92353002D01*
G04 #@! TO.N,A2*
X115926998Y-94893002D02*
X115570000Y-95250000D01*
X124930002Y-94893002D02*
X115926998Y-94893002D01*
G04 #@! TO.N,A1*
X115926998Y-97433002D02*
X115570000Y-97790000D01*
X124930002Y-97433002D02*
X115926998Y-97433002D01*
G04 #@! TO.N,A0*
X115926998Y-99973002D02*
X115570000Y-100330000D01*
X124930002Y-99973002D02*
X115926998Y-99973002D01*
G04 #@! TO.N,D3*
X149503002Y-92353002D02*
X149860000Y-92710000D01*
X142710002Y-92353002D02*
X149503002Y-92353002D01*
G04 #@! TO.N,D4*
X149503002Y-89813002D02*
X149860000Y-90170000D01*
X142710002Y-89813002D02*
X149503002Y-89813002D01*
G04 #@! TO.N,D5*
X149503002Y-87273002D02*
X149860000Y-87630000D01*
X142710002Y-87273002D02*
X149503002Y-87273002D01*
G04 #@! TO.N,D6*
X149503002Y-84733002D02*
X149860000Y-85090000D01*
X142710002Y-84733002D02*
X149503002Y-84733002D01*
G04 #@! TO.N,D7*
X149503002Y-82193002D02*
X149860000Y-82550000D01*
X142710002Y-82193002D02*
X149503002Y-82193002D01*
G04 #@! TO.N,Net-(U1-Pad3)*
X123586500Y-72033002D02*
X124930002Y-72033002D01*
X120939079Y-72033002D02*
X123586500Y-72033002D01*
X116772081Y-76200000D02*
X120939079Y-72033002D01*
X115570000Y-76200000D02*
X116772081Y-76200000D01*
G04 #@! TO.N,GREEN_CTRL*
X142710002Y-94893002D02*
X138786998Y-94893002D01*
X138786998Y-94893002D02*
X134620000Y-99060000D01*
X134620000Y-99060000D02*
X134620000Y-104140000D01*
X134620000Y-104140000D02*
X138430000Y-107950000D01*
X138430000Y-107950000D02*
X167640000Y-107950000D01*
X167640000Y-107950000D02*
X171450000Y-104140000D01*
X171450000Y-104140000D02*
X171450000Y-88900000D01*
X163830000Y-81760000D02*
X163830000Y-80010000D01*
X170970000Y-88900000D02*
X163830000Y-81760000D01*
X171450000Y-88900000D02*
X170970000Y-88900000D01*
G04 #@! TO.N,RED_CTRL*
X142710002Y-97433002D02*
X141326998Y-97433002D01*
X141326998Y-97433002D02*
X139700000Y-99060000D01*
X139700000Y-99060000D02*
X139700000Y-99479002D01*
X139700000Y-99479002D02*
X139700000Y-102870000D01*
X139700000Y-102870000D02*
X140970000Y-104140000D01*
X140970000Y-104140000D02*
X165100000Y-104140000D01*
X165100000Y-104140000D02*
X168910000Y-100330000D01*
X168910000Y-100330000D02*
X168910000Y-95250000D01*
X168910000Y-95250000D02*
X163830000Y-90170000D01*
X163830000Y-90170000D02*
X163830000Y-87630000D01*
G04 #@! TO.N,BLUE_CTRL*
X142710002Y-99973002D02*
X161646998Y-99973002D01*
X163830000Y-97790000D02*
X163830000Y-95250000D01*
X161646998Y-99973002D02*
X163830000Y-97790000D01*
G04 #@! TD*
D17*
G04 #@! TO.N,GND*
G36*
X173863000Y-111633000D02*
X90297000Y-111633000D01*
X90297000Y-87630000D01*
X114055908Y-87630000D01*
X114171161Y-88209418D01*
X114499375Y-88700625D01*
X114797761Y-88900000D01*
X114499375Y-89099375D01*
X114171161Y-89590582D01*
X114055908Y-90170000D01*
X114171161Y-90749418D01*
X114499375Y-91240625D01*
X114797761Y-91440000D01*
X114499375Y-91639375D01*
X114171161Y-92130582D01*
X114055908Y-92710000D01*
X114171161Y-93289418D01*
X114499375Y-93780625D01*
X114797761Y-93980000D01*
X114499375Y-94179375D01*
X114171161Y-94670582D01*
X114055908Y-95250000D01*
X114171161Y-95829418D01*
X114499375Y-96320625D01*
X114797761Y-96520000D01*
X114499375Y-96719375D01*
X114171161Y-97210582D01*
X114055908Y-97790000D01*
X114171161Y-98369418D01*
X114499375Y-98860625D01*
X114517619Y-98872816D01*
X114472235Y-98881843D01*
X114262191Y-99022191D01*
X114121843Y-99232235D01*
X114072560Y-99480000D01*
X114072560Y-101180000D01*
X114121843Y-101427765D01*
X114262191Y-101637809D01*
X114472235Y-101778157D01*
X114720000Y-101827440D01*
X116420000Y-101827440D01*
X116667765Y-101778157D01*
X116877809Y-101637809D01*
X117018157Y-101427765D01*
X117067440Y-101180000D01*
X117067440Y-101108002D01*
X123823474Y-101108002D01*
X124032172Y-101316700D01*
X124614726Y-101558002D01*
X125245278Y-101558002D01*
X125827832Y-101316700D01*
X126273700Y-100870832D01*
X126515002Y-100288278D01*
X126515002Y-99657726D01*
X126273700Y-99075172D01*
X125901530Y-98703002D01*
X126273700Y-98330832D01*
X126515002Y-97748278D01*
X126515002Y-97117726D01*
X126273700Y-96535172D01*
X125901530Y-96163002D01*
X126273700Y-95790832D01*
X126515002Y-95208278D01*
X126515002Y-94577726D01*
X126273700Y-93995172D01*
X125901530Y-93623002D01*
X126273700Y-93250832D01*
X126515002Y-92668278D01*
X126515002Y-92037726D01*
X126273700Y-91455172D01*
X125901530Y-91083002D01*
X126273700Y-90710832D01*
X126515002Y-90128278D01*
X126515002Y-89497726D01*
X126273700Y-88915172D01*
X125901530Y-88543002D01*
X126273700Y-88170832D01*
X126515002Y-87588278D01*
X126515002Y-86957726D01*
X126273700Y-86375172D01*
X125901530Y-86003002D01*
X126273700Y-85630832D01*
X126515002Y-85048278D01*
X126515002Y-84417726D01*
X126273700Y-83835172D01*
X125901530Y-83463002D01*
X126273700Y-83090832D01*
X126515002Y-82508278D01*
X126515002Y-81877726D01*
X126273700Y-81295172D01*
X125901530Y-80923002D01*
X126273700Y-80550832D01*
X126515002Y-79968278D01*
X126515002Y-79337726D01*
X126273700Y-78755172D01*
X125901530Y-78383002D01*
X126273700Y-78010832D01*
X126515002Y-77428278D01*
X126515002Y-76797726D01*
X126273700Y-76215172D01*
X125835693Y-75777165D01*
X125866747Y-75689352D01*
X124930002Y-74752607D01*
X123993257Y-75689352D01*
X124024311Y-75777165D01*
X123586304Y-76215172D01*
X123345002Y-76797726D01*
X123345002Y-77428278D01*
X123586304Y-78010832D01*
X123958474Y-78383002D01*
X123586304Y-78755172D01*
X123345002Y-79337726D01*
X123345002Y-79968278D01*
X123586304Y-80550832D01*
X123958474Y-80923002D01*
X123586304Y-81295172D01*
X123345002Y-81877726D01*
X123345002Y-82508278D01*
X123586304Y-83090832D01*
X123958474Y-83463002D01*
X123586304Y-83835172D01*
X123345002Y-84417726D01*
X123345002Y-85048278D01*
X123586304Y-85630832D01*
X123958474Y-86003002D01*
X123823474Y-86138002D01*
X116038779Y-86138002D01*
X115926997Y-86115767D01*
X115815215Y-86138002D01*
X115748145Y-86151343D01*
X115716256Y-86145000D01*
X115423744Y-86145000D01*
X114990582Y-86231161D01*
X114499375Y-86559375D01*
X114171161Y-87050582D01*
X114055908Y-87630000D01*
X90297000Y-87630000D01*
X90297000Y-82835750D01*
X114085000Y-82835750D01*
X114085000Y-83526310D01*
X114181673Y-83759699D01*
X114360302Y-83938327D01*
X114593691Y-84035000D01*
X115284250Y-84035000D01*
X115443000Y-83876250D01*
X115443000Y-82677000D01*
X115697000Y-82677000D01*
X115697000Y-83876250D01*
X115855750Y-84035000D01*
X116546309Y-84035000D01*
X116779698Y-83938327D01*
X116958327Y-83759699D01*
X117055000Y-83526310D01*
X117055000Y-82835750D01*
X116896250Y-82677000D01*
X115697000Y-82677000D01*
X115443000Y-82677000D01*
X114243750Y-82677000D01*
X114085000Y-82835750D01*
X90297000Y-82835750D01*
X90297000Y-81573690D01*
X114085000Y-81573690D01*
X114085000Y-82264250D01*
X114243750Y-82423000D01*
X115443000Y-82423000D01*
X115443000Y-81223750D01*
X115697000Y-81223750D01*
X115697000Y-82423000D01*
X116896250Y-82423000D01*
X117055000Y-82264250D01*
X117055000Y-81573690D01*
X116958327Y-81340301D01*
X116779698Y-81161673D01*
X116546309Y-81065000D01*
X115855750Y-81065000D01*
X115697000Y-81223750D01*
X115443000Y-81223750D01*
X115284250Y-81065000D01*
X114593691Y-81065000D01*
X114360302Y-81161673D01*
X114181673Y-81340301D01*
X114085000Y-81573690D01*
X90297000Y-81573690D01*
X90297000Y-71405750D01*
X99565000Y-71405750D01*
X99565000Y-72996310D01*
X99661673Y-73229699D01*
X99840302Y-73408327D01*
X100073691Y-73505000D01*
X101664250Y-73505000D01*
X101823000Y-73346250D01*
X101823000Y-71247000D01*
X102077000Y-71247000D01*
X102077000Y-73346250D01*
X102235750Y-73505000D01*
X102902612Y-73505000D01*
X102742191Y-73612191D01*
X102601843Y-73822235D01*
X102552560Y-74070000D01*
X102552560Y-77570000D01*
X102601843Y-77817765D01*
X102742191Y-78027809D01*
X102952235Y-78168157D01*
X103200000Y-78217440D01*
X106700000Y-78217440D01*
X106947765Y-78168157D01*
X107157809Y-78027809D01*
X107298157Y-77817765D01*
X107347440Y-77570000D01*
X107347440Y-76200000D01*
X114055908Y-76200000D01*
X114171161Y-76779418D01*
X114499375Y-77270625D01*
X114990582Y-77598839D01*
X115423744Y-77685000D01*
X115716256Y-77685000D01*
X116149418Y-77598839D01*
X116544281Y-77335000D01*
X116660298Y-77335000D01*
X116772081Y-77357235D01*
X116883864Y-77335000D01*
X117214936Y-77269146D01*
X117590370Y-77018289D01*
X117653694Y-76923518D01*
X120256812Y-74320400D01*
X123333814Y-74320400D01*
X123358650Y-74950463D01*
X123551983Y-75417210D01*
X123813652Y-75509747D01*
X124750397Y-74573002D01*
X125109607Y-74573002D01*
X126046352Y-75509747D01*
X126308021Y-75417210D01*
X126526190Y-74825604D01*
X126501354Y-74195541D01*
X126308021Y-73728794D01*
X126046352Y-73636257D01*
X125109607Y-74573002D01*
X124750397Y-74573002D01*
X123813652Y-73636257D01*
X123551983Y-73728794D01*
X123333814Y-74320400D01*
X120256812Y-74320400D01*
X121409211Y-73168002D01*
X123823474Y-73168002D01*
X124024311Y-73368839D01*
X123993257Y-73456652D01*
X124930002Y-74393397D01*
X125866747Y-73456652D01*
X125835693Y-73368839D01*
X126273700Y-72930832D01*
X126515002Y-72348278D01*
X126515002Y-71717726D01*
X126273700Y-71135172D01*
X125827832Y-70689304D01*
X125245278Y-70448002D01*
X124614726Y-70448002D01*
X124032172Y-70689304D01*
X123823474Y-70898002D01*
X121050861Y-70898002D01*
X120939078Y-70875767D01*
X120606891Y-70941843D01*
X120496224Y-70963856D01*
X120120790Y-71214713D01*
X120057468Y-71309481D01*
X116399014Y-74967936D01*
X116321522Y-74916157D01*
X116451358Y-74855183D01*
X116841645Y-74426924D01*
X117011476Y-74016890D01*
X116890155Y-73787000D01*
X115697000Y-73787000D01*
X115697000Y-73807000D01*
X115443000Y-73807000D01*
X115443000Y-73787000D01*
X114249845Y-73787000D01*
X114128524Y-74016890D01*
X114298355Y-74426924D01*
X114688642Y-74855183D01*
X114818478Y-74916157D01*
X114499375Y-75129375D01*
X114171161Y-75620582D01*
X114055908Y-76200000D01*
X107347440Y-76200000D01*
X107347440Y-74070000D01*
X107298157Y-73822235D01*
X107157809Y-73612191D01*
X107016005Y-73517440D01*
X109700000Y-73517440D01*
X109947765Y-73468157D01*
X110157809Y-73327809D01*
X110298157Y-73117765D01*
X110347440Y-72870000D01*
X110347440Y-69370000D01*
X110298157Y-69122235D01*
X110157809Y-68912191D01*
X109947765Y-68771843D01*
X109700000Y-68722560D01*
X109202571Y-68722560D01*
X112020132Y-65905000D01*
X114435001Y-65905000D01*
X114435000Y-69696723D01*
X114262191Y-69812191D01*
X114121843Y-70022235D01*
X114072560Y-70270000D01*
X114072560Y-71970000D01*
X114121843Y-72217765D01*
X114262191Y-72427809D01*
X114472235Y-72568157D01*
X114575708Y-72588739D01*
X114298355Y-72893076D01*
X114128524Y-73303110D01*
X114249845Y-73533000D01*
X115443000Y-73533000D01*
X115443000Y-73513000D01*
X115697000Y-73513000D01*
X115697000Y-73533000D01*
X116890155Y-73533000D01*
X117011476Y-73303110D01*
X116841645Y-72893076D01*
X116564292Y-72588739D01*
X116667765Y-72568157D01*
X116877809Y-72427809D01*
X117018157Y-72217765D01*
X117067440Y-71970000D01*
X117067440Y-70270000D01*
X117018157Y-70022235D01*
X116877809Y-69812191D01*
X116705000Y-69696723D01*
X116705000Y-65905000D01*
X153199869Y-65905000D01*
X155075000Y-67780132D01*
X155075001Y-81126722D01*
X154902191Y-81242191D01*
X154761843Y-81452235D01*
X154712560Y-81700000D01*
X154712560Y-83400000D01*
X154761843Y-83647765D01*
X154902191Y-83857809D01*
X155112235Y-83998157D01*
X155157619Y-84007184D01*
X155139375Y-84019375D01*
X154811161Y-84510582D01*
X154695908Y-85090000D01*
X154811161Y-85669418D01*
X155139375Y-86160625D01*
X155437761Y-86360000D01*
X155139375Y-86559375D01*
X154811161Y-87050582D01*
X154695908Y-87630000D01*
X154811161Y-88209418D01*
X155139375Y-88700625D01*
X155437761Y-88900000D01*
X155139375Y-89099375D01*
X154811161Y-89590582D01*
X154695908Y-90170000D01*
X154811161Y-90749418D01*
X155139375Y-91240625D01*
X155630582Y-91568839D01*
X156063744Y-91655000D01*
X156089869Y-91655000D01*
X160408389Y-95973521D01*
X160471711Y-96068289D01*
X160723756Y-96236700D01*
X160847145Y-96319146D01*
X161290000Y-96407235D01*
X161401783Y-96385000D01*
X161856719Y-96385000D01*
X162136655Y-96572047D01*
X162560000Y-96656256D01*
X162695000Y-96629403D01*
X162695000Y-97319868D01*
X161176867Y-98838002D01*
X143816530Y-98838002D01*
X143681530Y-98703002D01*
X144053700Y-98330832D01*
X144295002Y-97748278D01*
X144295002Y-97117726D01*
X144053700Y-96535172D01*
X143681530Y-96163002D01*
X144053700Y-95790832D01*
X144295002Y-95208278D01*
X144295002Y-94577726D01*
X144053700Y-93995172D01*
X143681530Y-93623002D01*
X143816530Y-93488002D01*
X148593851Y-93488002D01*
X148789375Y-93780625D01*
X149280582Y-94108839D01*
X149713744Y-94195000D01*
X150006256Y-94195000D01*
X150439418Y-94108839D01*
X150930625Y-93780625D01*
X151258839Y-93289418D01*
X151374092Y-92710000D01*
X151258839Y-92130582D01*
X150930625Y-91639375D01*
X150632239Y-91440000D01*
X150930625Y-91240625D01*
X151258839Y-90749418D01*
X151374092Y-90170000D01*
X151258839Y-89590582D01*
X150930625Y-89099375D01*
X150632239Y-88900000D01*
X150930625Y-88700625D01*
X151258839Y-88209418D01*
X151374092Y-87630000D01*
X151258839Y-87050582D01*
X150930625Y-86559375D01*
X150632239Y-86360000D01*
X150930625Y-86160625D01*
X151258839Y-85669418D01*
X151374092Y-85090000D01*
X151258839Y-84510582D01*
X150930625Y-84019375D01*
X150912381Y-84007184D01*
X150957765Y-83998157D01*
X151167809Y-83857809D01*
X151308157Y-83647765D01*
X151357440Y-83400000D01*
X151357440Y-81700000D01*
X151308157Y-81452235D01*
X151167809Y-81242191D01*
X150957765Y-81101843D01*
X150710000Y-81052560D01*
X149587426Y-81052560D01*
X149503002Y-81035767D01*
X149418578Y-81052560D01*
X149010000Y-81052560D01*
X148982641Y-81058002D01*
X143816530Y-81058002D01*
X143681530Y-80923002D01*
X144053700Y-80550832D01*
X144295002Y-79968278D01*
X144295002Y-79337726D01*
X144053700Y-78755172D01*
X143681530Y-78383002D01*
X144053700Y-78010832D01*
X144295002Y-77428278D01*
X144295002Y-76797726D01*
X144053700Y-76215172D01*
X143681530Y-75843002D01*
X144053700Y-75470832D01*
X144295002Y-74888278D01*
X144295002Y-74257726D01*
X144053700Y-73675172D01*
X143681530Y-73303002D01*
X143816530Y-73168002D01*
X148362560Y-73168002D01*
X148362560Y-73240000D01*
X148411843Y-73487765D01*
X148552191Y-73697809D01*
X148762235Y-73838157D01*
X149010000Y-73887440D01*
X150710000Y-73887440D01*
X150957765Y-73838157D01*
X151167809Y-73697809D01*
X151308157Y-73487765D01*
X151357440Y-73240000D01*
X151357440Y-71540000D01*
X151308157Y-71292235D01*
X151167809Y-71082191D01*
X150957765Y-70941843D01*
X150710000Y-70892560D01*
X149587426Y-70892560D01*
X149503002Y-70875767D01*
X149418578Y-70892560D01*
X149010000Y-70892560D01*
X148982641Y-70898002D01*
X143816530Y-70898002D01*
X143607832Y-70689304D01*
X143025278Y-70448002D01*
X142394726Y-70448002D01*
X141812172Y-70689304D01*
X141366304Y-71135172D01*
X141125002Y-71717726D01*
X141125002Y-72348278D01*
X141366304Y-72930832D01*
X141738474Y-73303002D01*
X141366304Y-73675172D01*
X141125002Y-74257726D01*
X141125002Y-74888278D01*
X141366304Y-75470832D01*
X141738474Y-75843002D01*
X141366304Y-76215172D01*
X141125002Y-76797726D01*
X141125002Y-77428278D01*
X141366304Y-78010832D01*
X141738474Y-78383002D01*
X141366304Y-78755172D01*
X141125002Y-79337726D01*
X141125002Y-79968278D01*
X141366304Y-80550832D01*
X141738474Y-80923002D01*
X141366304Y-81295172D01*
X141125002Y-81877726D01*
X141125002Y-82508278D01*
X141366304Y-83090832D01*
X141738474Y-83463002D01*
X141366304Y-83835172D01*
X141125002Y-84417726D01*
X141125002Y-85048278D01*
X141366304Y-85630832D01*
X141738474Y-86003002D01*
X141366304Y-86375172D01*
X141125002Y-86957726D01*
X141125002Y-87588278D01*
X141366304Y-88170832D01*
X141738474Y-88543002D01*
X141366304Y-88915172D01*
X141125002Y-89497726D01*
X141125002Y-90128278D01*
X141366304Y-90710832D01*
X141738474Y-91083002D01*
X141366304Y-91455172D01*
X141125002Y-92037726D01*
X141125002Y-92668278D01*
X141366304Y-93250832D01*
X141738474Y-93623002D01*
X141603474Y-93758002D01*
X138898780Y-93758002D01*
X138786997Y-93735767D01*
X138344143Y-93823856D01*
X137968709Y-94074713D01*
X137905387Y-94169481D01*
X133896482Y-98178387D01*
X133801711Y-98241711D01*
X133620092Y-98513524D01*
X133550854Y-98617146D01*
X133462765Y-99060000D01*
X133485000Y-99171783D01*
X133485001Y-104028212D01*
X133462765Y-104140000D01*
X133550854Y-104582854D01*
X133550855Y-104582855D01*
X133801712Y-104958289D01*
X133896480Y-105021611D01*
X137548389Y-108673521D01*
X137611711Y-108768289D01*
X137987145Y-109019146D01*
X138430000Y-109107235D01*
X138541783Y-109085000D01*
X167528217Y-109085000D01*
X167640000Y-109107235D01*
X167751783Y-109085000D01*
X168082855Y-109019146D01*
X168458289Y-108768289D01*
X168521613Y-108673518D01*
X172173522Y-105021610D01*
X172268289Y-104958289D01*
X172519146Y-104582855D01*
X172585000Y-104251783D01*
X172585000Y-104251782D01*
X172607235Y-104140000D01*
X172585000Y-104028217D01*
X172585000Y-89011783D01*
X172607235Y-88900000D01*
X172519146Y-88457145D01*
X172268289Y-88081711D01*
X171892855Y-87830854D01*
X171561783Y-87765000D01*
X171450000Y-87742765D01*
X171423223Y-87748091D01*
X164965000Y-81289869D01*
X164965000Y-81244250D01*
X164973000Y-81236250D01*
X164973000Y-80137000D01*
X165227000Y-80137000D01*
X165227000Y-81236250D01*
X165385750Y-81395000D01*
X165676309Y-81395000D01*
X165909698Y-81298327D01*
X166088327Y-81119699D01*
X166185000Y-80886310D01*
X166185000Y-80295750D01*
X166026250Y-80137000D01*
X165227000Y-80137000D01*
X164973000Y-80137000D01*
X164965000Y-80137000D01*
X164965000Y-79898217D01*
X164961973Y-79883000D01*
X164973000Y-79883000D01*
X164973000Y-78783750D01*
X165227000Y-78783750D01*
X165227000Y-79883000D01*
X166026250Y-79883000D01*
X166185000Y-79724250D01*
X166185000Y-79133690D01*
X166088327Y-78900301D01*
X165909698Y-78721673D01*
X165676309Y-78625000D01*
X165385750Y-78625000D01*
X165227000Y-78783750D01*
X164973000Y-78783750D01*
X164814250Y-78625000D01*
X164523691Y-78625000D01*
X164298641Y-78718219D01*
X164253345Y-78687953D01*
X163830000Y-78603744D01*
X163406654Y-78687953D01*
X163195000Y-78829376D01*
X162983345Y-78687953D01*
X162560000Y-78603744D01*
X162136654Y-78687953D01*
X161777759Y-78927759D01*
X161537953Y-79286655D01*
X161503126Y-79461742D01*
X157707440Y-83257429D01*
X157707440Y-81700000D01*
X157658157Y-81452235D01*
X157517809Y-81242191D01*
X157345000Y-81126723D01*
X157345000Y-67421781D01*
X157367235Y-67309999D01*
X157345000Y-67198217D01*
X157279146Y-66867145D01*
X157028289Y-66491711D01*
X156933521Y-66428390D01*
X154551613Y-64046482D01*
X154488289Y-63951711D01*
X154112855Y-63700854D01*
X153781783Y-63635000D01*
X153670000Y-63612765D01*
X153558217Y-63635000D01*
X115681783Y-63635000D01*
X115570000Y-63612765D01*
X115458217Y-63635000D01*
X111661783Y-63635000D01*
X111550000Y-63612765D01*
X111438217Y-63635000D01*
X111107145Y-63700854D01*
X110731711Y-63951711D01*
X110668389Y-64046479D01*
X107226480Y-67488389D01*
X107131712Y-67551711D01*
X106997313Y-67752854D01*
X106880854Y-67927146D01*
X106792765Y-68370000D01*
X106815001Y-68481788D01*
X106815001Y-68722560D01*
X106200000Y-68722560D01*
X105952235Y-68771843D01*
X105742191Y-68912191D01*
X105601843Y-69122235D01*
X105552560Y-69370000D01*
X105552560Y-72870000D01*
X105601843Y-73117765D01*
X105742191Y-73327809D01*
X105883995Y-73422560D01*
X104025337Y-73422560D01*
X104059698Y-73408327D01*
X104238327Y-73229699D01*
X104335000Y-72996310D01*
X104335000Y-71405750D01*
X104176250Y-71247000D01*
X102077000Y-71247000D01*
X101823000Y-71247000D01*
X99723750Y-71247000D01*
X99565000Y-71405750D01*
X90297000Y-71405750D01*
X90297000Y-69243690D01*
X99565000Y-69243690D01*
X99565000Y-70834250D01*
X99723750Y-70993000D01*
X101823000Y-70993000D01*
X101823000Y-68893750D01*
X102077000Y-68893750D01*
X102077000Y-70993000D01*
X104176250Y-70993000D01*
X104335000Y-70834250D01*
X104335000Y-69243690D01*
X104238327Y-69010301D01*
X104059698Y-68831673D01*
X103826309Y-68735000D01*
X102235750Y-68735000D01*
X102077000Y-68893750D01*
X101823000Y-68893750D01*
X101664250Y-68735000D01*
X100073691Y-68735000D01*
X99840302Y-68831673D01*
X99661673Y-69010301D01*
X99565000Y-69243690D01*
X90297000Y-69243690D01*
X90297000Y-62357000D01*
X173863000Y-62357000D01*
X173863000Y-111633000D01*
X173863000Y-111633000D01*
G37*
X173863000Y-111633000D02*
X90297000Y-111633000D01*
X90297000Y-87630000D01*
X114055908Y-87630000D01*
X114171161Y-88209418D01*
X114499375Y-88700625D01*
X114797761Y-88900000D01*
X114499375Y-89099375D01*
X114171161Y-89590582D01*
X114055908Y-90170000D01*
X114171161Y-90749418D01*
X114499375Y-91240625D01*
X114797761Y-91440000D01*
X114499375Y-91639375D01*
X114171161Y-92130582D01*
X114055908Y-92710000D01*
X114171161Y-93289418D01*
X114499375Y-93780625D01*
X114797761Y-93980000D01*
X114499375Y-94179375D01*
X114171161Y-94670582D01*
X114055908Y-95250000D01*
X114171161Y-95829418D01*
X114499375Y-96320625D01*
X114797761Y-96520000D01*
X114499375Y-96719375D01*
X114171161Y-97210582D01*
X114055908Y-97790000D01*
X114171161Y-98369418D01*
X114499375Y-98860625D01*
X114517619Y-98872816D01*
X114472235Y-98881843D01*
X114262191Y-99022191D01*
X114121843Y-99232235D01*
X114072560Y-99480000D01*
X114072560Y-101180000D01*
X114121843Y-101427765D01*
X114262191Y-101637809D01*
X114472235Y-101778157D01*
X114720000Y-101827440D01*
X116420000Y-101827440D01*
X116667765Y-101778157D01*
X116877809Y-101637809D01*
X117018157Y-101427765D01*
X117067440Y-101180000D01*
X117067440Y-101108002D01*
X123823474Y-101108002D01*
X124032172Y-101316700D01*
X124614726Y-101558002D01*
X125245278Y-101558002D01*
X125827832Y-101316700D01*
X126273700Y-100870832D01*
X126515002Y-100288278D01*
X126515002Y-99657726D01*
X126273700Y-99075172D01*
X125901530Y-98703002D01*
X126273700Y-98330832D01*
X126515002Y-97748278D01*
X126515002Y-97117726D01*
X126273700Y-96535172D01*
X125901530Y-96163002D01*
X126273700Y-95790832D01*
X126515002Y-95208278D01*
X126515002Y-94577726D01*
X126273700Y-93995172D01*
X125901530Y-93623002D01*
X126273700Y-93250832D01*
X126515002Y-92668278D01*
X126515002Y-92037726D01*
X126273700Y-91455172D01*
X125901530Y-91083002D01*
X126273700Y-90710832D01*
X126515002Y-90128278D01*
X126515002Y-89497726D01*
X126273700Y-88915172D01*
X125901530Y-88543002D01*
X126273700Y-88170832D01*
X126515002Y-87588278D01*
X126515002Y-86957726D01*
X126273700Y-86375172D01*
X125901530Y-86003002D01*
X126273700Y-85630832D01*
X126515002Y-85048278D01*
X126515002Y-84417726D01*
X126273700Y-83835172D01*
X125901530Y-83463002D01*
X126273700Y-83090832D01*
X126515002Y-82508278D01*
X126515002Y-81877726D01*
X126273700Y-81295172D01*
X125901530Y-80923002D01*
X126273700Y-80550832D01*
X126515002Y-79968278D01*
X126515002Y-79337726D01*
X126273700Y-78755172D01*
X125901530Y-78383002D01*
X126273700Y-78010832D01*
X126515002Y-77428278D01*
X126515002Y-76797726D01*
X126273700Y-76215172D01*
X125835693Y-75777165D01*
X125866747Y-75689352D01*
X124930002Y-74752607D01*
X123993257Y-75689352D01*
X124024311Y-75777165D01*
X123586304Y-76215172D01*
X123345002Y-76797726D01*
X123345002Y-77428278D01*
X123586304Y-78010832D01*
X123958474Y-78383002D01*
X123586304Y-78755172D01*
X123345002Y-79337726D01*
X123345002Y-79968278D01*
X123586304Y-80550832D01*
X123958474Y-80923002D01*
X123586304Y-81295172D01*
X123345002Y-81877726D01*
X123345002Y-82508278D01*
X123586304Y-83090832D01*
X123958474Y-83463002D01*
X123586304Y-83835172D01*
X123345002Y-84417726D01*
X123345002Y-85048278D01*
X123586304Y-85630832D01*
X123958474Y-86003002D01*
X123823474Y-86138002D01*
X116038779Y-86138002D01*
X115926997Y-86115767D01*
X115815215Y-86138002D01*
X115748145Y-86151343D01*
X115716256Y-86145000D01*
X115423744Y-86145000D01*
X114990582Y-86231161D01*
X114499375Y-86559375D01*
X114171161Y-87050582D01*
X114055908Y-87630000D01*
X90297000Y-87630000D01*
X90297000Y-82835750D01*
X114085000Y-82835750D01*
X114085000Y-83526310D01*
X114181673Y-83759699D01*
X114360302Y-83938327D01*
X114593691Y-84035000D01*
X115284250Y-84035000D01*
X115443000Y-83876250D01*
X115443000Y-82677000D01*
X115697000Y-82677000D01*
X115697000Y-83876250D01*
X115855750Y-84035000D01*
X116546309Y-84035000D01*
X116779698Y-83938327D01*
X116958327Y-83759699D01*
X117055000Y-83526310D01*
X117055000Y-82835750D01*
X116896250Y-82677000D01*
X115697000Y-82677000D01*
X115443000Y-82677000D01*
X114243750Y-82677000D01*
X114085000Y-82835750D01*
X90297000Y-82835750D01*
X90297000Y-81573690D01*
X114085000Y-81573690D01*
X114085000Y-82264250D01*
X114243750Y-82423000D01*
X115443000Y-82423000D01*
X115443000Y-81223750D01*
X115697000Y-81223750D01*
X115697000Y-82423000D01*
X116896250Y-82423000D01*
X117055000Y-82264250D01*
X117055000Y-81573690D01*
X116958327Y-81340301D01*
X116779698Y-81161673D01*
X116546309Y-81065000D01*
X115855750Y-81065000D01*
X115697000Y-81223750D01*
X115443000Y-81223750D01*
X115284250Y-81065000D01*
X114593691Y-81065000D01*
X114360302Y-81161673D01*
X114181673Y-81340301D01*
X114085000Y-81573690D01*
X90297000Y-81573690D01*
X90297000Y-71405750D01*
X99565000Y-71405750D01*
X99565000Y-72996310D01*
X99661673Y-73229699D01*
X99840302Y-73408327D01*
X100073691Y-73505000D01*
X101664250Y-73505000D01*
X101823000Y-73346250D01*
X101823000Y-71247000D01*
X102077000Y-71247000D01*
X102077000Y-73346250D01*
X102235750Y-73505000D01*
X102902612Y-73505000D01*
X102742191Y-73612191D01*
X102601843Y-73822235D01*
X102552560Y-74070000D01*
X102552560Y-77570000D01*
X102601843Y-77817765D01*
X102742191Y-78027809D01*
X102952235Y-78168157D01*
X103200000Y-78217440D01*
X106700000Y-78217440D01*
X106947765Y-78168157D01*
X107157809Y-78027809D01*
X107298157Y-77817765D01*
X107347440Y-77570000D01*
X107347440Y-76200000D01*
X114055908Y-76200000D01*
X114171161Y-76779418D01*
X114499375Y-77270625D01*
X114990582Y-77598839D01*
X115423744Y-77685000D01*
X115716256Y-77685000D01*
X116149418Y-77598839D01*
X116544281Y-77335000D01*
X116660298Y-77335000D01*
X116772081Y-77357235D01*
X116883864Y-77335000D01*
X117214936Y-77269146D01*
X117590370Y-77018289D01*
X117653694Y-76923518D01*
X120256812Y-74320400D01*
X123333814Y-74320400D01*
X123358650Y-74950463D01*
X123551983Y-75417210D01*
X123813652Y-75509747D01*
X124750397Y-74573002D01*
X125109607Y-74573002D01*
X126046352Y-75509747D01*
X126308021Y-75417210D01*
X126526190Y-74825604D01*
X126501354Y-74195541D01*
X126308021Y-73728794D01*
X126046352Y-73636257D01*
X125109607Y-74573002D01*
X124750397Y-74573002D01*
X123813652Y-73636257D01*
X123551983Y-73728794D01*
X123333814Y-74320400D01*
X120256812Y-74320400D01*
X121409211Y-73168002D01*
X123823474Y-73168002D01*
X124024311Y-73368839D01*
X123993257Y-73456652D01*
X124930002Y-74393397D01*
X125866747Y-73456652D01*
X125835693Y-73368839D01*
X126273700Y-72930832D01*
X126515002Y-72348278D01*
X126515002Y-71717726D01*
X126273700Y-71135172D01*
X125827832Y-70689304D01*
X125245278Y-70448002D01*
X124614726Y-70448002D01*
X124032172Y-70689304D01*
X123823474Y-70898002D01*
X121050861Y-70898002D01*
X120939078Y-70875767D01*
X120606891Y-70941843D01*
X120496224Y-70963856D01*
X120120790Y-71214713D01*
X120057468Y-71309481D01*
X116399014Y-74967936D01*
X116321522Y-74916157D01*
X116451358Y-74855183D01*
X116841645Y-74426924D01*
X117011476Y-74016890D01*
X116890155Y-73787000D01*
X115697000Y-73787000D01*
X115697000Y-73807000D01*
X115443000Y-73807000D01*
X115443000Y-73787000D01*
X114249845Y-73787000D01*
X114128524Y-74016890D01*
X114298355Y-74426924D01*
X114688642Y-74855183D01*
X114818478Y-74916157D01*
X114499375Y-75129375D01*
X114171161Y-75620582D01*
X114055908Y-76200000D01*
X107347440Y-76200000D01*
X107347440Y-74070000D01*
X107298157Y-73822235D01*
X107157809Y-73612191D01*
X107016005Y-73517440D01*
X109700000Y-73517440D01*
X109947765Y-73468157D01*
X110157809Y-73327809D01*
X110298157Y-73117765D01*
X110347440Y-72870000D01*
X110347440Y-69370000D01*
X110298157Y-69122235D01*
X110157809Y-68912191D01*
X109947765Y-68771843D01*
X109700000Y-68722560D01*
X109202571Y-68722560D01*
X112020132Y-65905000D01*
X114435001Y-65905000D01*
X114435000Y-69696723D01*
X114262191Y-69812191D01*
X114121843Y-70022235D01*
X114072560Y-70270000D01*
X114072560Y-71970000D01*
X114121843Y-72217765D01*
X114262191Y-72427809D01*
X114472235Y-72568157D01*
X114575708Y-72588739D01*
X114298355Y-72893076D01*
X114128524Y-73303110D01*
X114249845Y-73533000D01*
X115443000Y-73533000D01*
X115443000Y-73513000D01*
X115697000Y-73513000D01*
X115697000Y-73533000D01*
X116890155Y-73533000D01*
X117011476Y-73303110D01*
X116841645Y-72893076D01*
X116564292Y-72588739D01*
X116667765Y-72568157D01*
X116877809Y-72427809D01*
X117018157Y-72217765D01*
X117067440Y-71970000D01*
X117067440Y-70270000D01*
X117018157Y-70022235D01*
X116877809Y-69812191D01*
X116705000Y-69696723D01*
X116705000Y-65905000D01*
X153199869Y-65905000D01*
X155075000Y-67780132D01*
X155075001Y-81126722D01*
X154902191Y-81242191D01*
X154761843Y-81452235D01*
X154712560Y-81700000D01*
X154712560Y-83400000D01*
X154761843Y-83647765D01*
X154902191Y-83857809D01*
X155112235Y-83998157D01*
X155157619Y-84007184D01*
X155139375Y-84019375D01*
X154811161Y-84510582D01*
X154695908Y-85090000D01*
X154811161Y-85669418D01*
X155139375Y-86160625D01*
X155437761Y-86360000D01*
X155139375Y-86559375D01*
X154811161Y-87050582D01*
X154695908Y-87630000D01*
X154811161Y-88209418D01*
X155139375Y-88700625D01*
X155437761Y-88900000D01*
X155139375Y-89099375D01*
X154811161Y-89590582D01*
X154695908Y-90170000D01*
X154811161Y-90749418D01*
X155139375Y-91240625D01*
X155630582Y-91568839D01*
X156063744Y-91655000D01*
X156089869Y-91655000D01*
X160408389Y-95973521D01*
X160471711Y-96068289D01*
X160723756Y-96236700D01*
X160847145Y-96319146D01*
X161290000Y-96407235D01*
X161401783Y-96385000D01*
X161856719Y-96385000D01*
X162136655Y-96572047D01*
X162560000Y-96656256D01*
X162695000Y-96629403D01*
X162695000Y-97319868D01*
X161176867Y-98838002D01*
X143816530Y-98838002D01*
X143681530Y-98703002D01*
X144053700Y-98330832D01*
X144295002Y-97748278D01*
X144295002Y-97117726D01*
X144053700Y-96535172D01*
X143681530Y-96163002D01*
X144053700Y-95790832D01*
X144295002Y-95208278D01*
X144295002Y-94577726D01*
X144053700Y-93995172D01*
X143681530Y-93623002D01*
X143816530Y-93488002D01*
X148593851Y-93488002D01*
X148789375Y-93780625D01*
X149280582Y-94108839D01*
X149713744Y-94195000D01*
X150006256Y-94195000D01*
X150439418Y-94108839D01*
X150930625Y-93780625D01*
X151258839Y-93289418D01*
X151374092Y-92710000D01*
X151258839Y-92130582D01*
X150930625Y-91639375D01*
X150632239Y-91440000D01*
X150930625Y-91240625D01*
X151258839Y-90749418D01*
X151374092Y-90170000D01*
X151258839Y-89590582D01*
X150930625Y-89099375D01*
X150632239Y-88900000D01*
X150930625Y-88700625D01*
X151258839Y-88209418D01*
X151374092Y-87630000D01*
X151258839Y-87050582D01*
X150930625Y-86559375D01*
X150632239Y-86360000D01*
X150930625Y-86160625D01*
X151258839Y-85669418D01*
X151374092Y-85090000D01*
X151258839Y-84510582D01*
X150930625Y-84019375D01*
X150912381Y-84007184D01*
X150957765Y-83998157D01*
X151167809Y-83857809D01*
X151308157Y-83647765D01*
X151357440Y-83400000D01*
X151357440Y-81700000D01*
X151308157Y-81452235D01*
X151167809Y-81242191D01*
X150957765Y-81101843D01*
X150710000Y-81052560D01*
X149587426Y-81052560D01*
X149503002Y-81035767D01*
X149418578Y-81052560D01*
X149010000Y-81052560D01*
X148982641Y-81058002D01*
X143816530Y-81058002D01*
X143681530Y-80923002D01*
X144053700Y-80550832D01*
X144295002Y-79968278D01*
X144295002Y-79337726D01*
X144053700Y-78755172D01*
X143681530Y-78383002D01*
X144053700Y-78010832D01*
X144295002Y-77428278D01*
X144295002Y-76797726D01*
X144053700Y-76215172D01*
X143681530Y-75843002D01*
X144053700Y-75470832D01*
X144295002Y-74888278D01*
X144295002Y-74257726D01*
X144053700Y-73675172D01*
X143681530Y-73303002D01*
X143816530Y-73168002D01*
X148362560Y-73168002D01*
X148362560Y-73240000D01*
X148411843Y-73487765D01*
X148552191Y-73697809D01*
X148762235Y-73838157D01*
X149010000Y-73887440D01*
X150710000Y-73887440D01*
X150957765Y-73838157D01*
X151167809Y-73697809D01*
X151308157Y-73487765D01*
X151357440Y-73240000D01*
X151357440Y-71540000D01*
X151308157Y-71292235D01*
X151167809Y-71082191D01*
X150957765Y-70941843D01*
X150710000Y-70892560D01*
X149587426Y-70892560D01*
X149503002Y-70875767D01*
X149418578Y-70892560D01*
X149010000Y-70892560D01*
X148982641Y-70898002D01*
X143816530Y-70898002D01*
X143607832Y-70689304D01*
X143025278Y-70448002D01*
X142394726Y-70448002D01*
X141812172Y-70689304D01*
X141366304Y-71135172D01*
X141125002Y-71717726D01*
X141125002Y-72348278D01*
X141366304Y-72930832D01*
X141738474Y-73303002D01*
X141366304Y-73675172D01*
X141125002Y-74257726D01*
X141125002Y-74888278D01*
X141366304Y-75470832D01*
X141738474Y-75843002D01*
X141366304Y-76215172D01*
X141125002Y-76797726D01*
X141125002Y-77428278D01*
X141366304Y-78010832D01*
X141738474Y-78383002D01*
X141366304Y-78755172D01*
X141125002Y-79337726D01*
X141125002Y-79968278D01*
X141366304Y-80550832D01*
X141738474Y-80923002D01*
X141366304Y-81295172D01*
X141125002Y-81877726D01*
X141125002Y-82508278D01*
X141366304Y-83090832D01*
X141738474Y-83463002D01*
X141366304Y-83835172D01*
X141125002Y-84417726D01*
X141125002Y-85048278D01*
X141366304Y-85630832D01*
X141738474Y-86003002D01*
X141366304Y-86375172D01*
X141125002Y-86957726D01*
X141125002Y-87588278D01*
X141366304Y-88170832D01*
X141738474Y-88543002D01*
X141366304Y-88915172D01*
X141125002Y-89497726D01*
X141125002Y-90128278D01*
X141366304Y-90710832D01*
X141738474Y-91083002D01*
X141366304Y-91455172D01*
X141125002Y-92037726D01*
X141125002Y-92668278D01*
X141366304Y-93250832D01*
X141738474Y-93623002D01*
X141603474Y-93758002D01*
X138898780Y-93758002D01*
X138786997Y-93735767D01*
X138344143Y-93823856D01*
X137968709Y-94074713D01*
X137905387Y-94169481D01*
X133896482Y-98178387D01*
X133801711Y-98241711D01*
X133620092Y-98513524D01*
X133550854Y-98617146D01*
X133462765Y-99060000D01*
X133485000Y-99171783D01*
X133485001Y-104028212D01*
X133462765Y-104140000D01*
X133550854Y-104582854D01*
X133550855Y-104582855D01*
X133801712Y-104958289D01*
X133896480Y-105021611D01*
X137548389Y-108673521D01*
X137611711Y-108768289D01*
X137987145Y-109019146D01*
X138430000Y-109107235D01*
X138541783Y-109085000D01*
X167528217Y-109085000D01*
X167640000Y-109107235D01*
X167751783Y-109085000D01*
X168082855Y-109019146D01*
X168458289Y-108768289D01*
X168521613Y-108673518D01*
X172173522Y-105021610D01*
X172268289Y-104958289D01*
X172519146Y-104582855D01*
X172585000Y-104251783D01*
X172585000Y-104251782D01*
X172607235Y-104140000D01*
X172585000Y-104028217D01*
X172585000Y-89011783D01*
X172607235Y-88900000D01*
X172519146Y-88457145D01*
X172268289Y-88081711D01*
X171892855Y-87830854D01*
X171561783Y-87765000D01*
X171450000Y-87742765D01*
X171423223Y-87748091D01*
X164965000Y-81289869D01*
X164965000Y-81244250D01*
X164973000Y-81236250D01*
X164973000Y-80137000D01*
X165227000Y-80137000D01*
X165227000Y-81236250D01*
X165385750Y-81395000D01*
X165676309Y-81395000D01*
X165909698Y-81298327D01*
X166088327Y-81119699D01*
X166185000Y-80886310D01*
X166185000Y-80295750D01*
X166026250Y-80137000D01*
X165227000Y-80137000D01*
X164973000Y-80137000D01*
X164965000Y-80137000D01*
X164965000Y-79898217D01*
X164961973Y-79883000D01*
X164973000Y-79883000D01*
X164973000Y-78783750D01*
X165227000Y-78783750D01*
X165227000Y-79883000D01*
X166026250Y-79883000D01*
X166185000Y-79724250D01*
X166185000Y-79133690D01*
X166088327Y-78900301D01*
X165909698Y-78721673D01*
X165676309Y-78625000D01*
X165385750Y-78625000D01*
X165227000Y-78783750D01*
X164973000Y-78783750D01*
X164814250Y-78625000D01*
X164523691Y-78625000D01*
X164298641Y-78718219D01*
X164253345Y-78687953D01*
X163830000Y-78603744D01*
X163406654Y-78687953D01*
X163195000Y-78829376D01*
X162983345Y-78687953D01*
X162560000Y-78603744D01*
X162136654Y-78687953D01*
X161777759Y-78927759D01*
X161537953Y-79286655D01*
X161503126Y-79461742D01*
X157707440Y-83257429D01*
X157707440Y-81700000D01*
X157658157Y-81452235D01*
X157517809Y-81242191D01*
X157345000Y-81126723D01*
X157345000Y-67421781D01*
X157367235Y-67309999D01*
X157345000Y-67198217D01*
X157279146Y-66867145D01*
X157028289Y-66491711D01*
X156933521Y-66428390D01*
X154551613Y-64046482D01*
X154488289Y-63951711D01*
X154112855Y-63700854D01*
X153781783Y-63635000D01*
X153670000Y-63612765D01*
X153558217Y-63635000D01*
X115681783Y-63635000D01*
X115570000Y-63612765D01*
X115458217Y-63635000D01*
X111661783Y-63635000D01*
X111550000Y-63612765D01*
X111438217Y-63635000D01*
X111107145Y-63700854D01*
X110731711Y-63951711D01*
X110668389Y-64046479D01*
X107226480Y-67488389D01*
X107131712Y-67551711D01*
X106997313Y-67752854D01*
X106880854Y-67927146D01*
X106792765Y-68370000D01*
X106815001Y-68481788D01*
X106815001Y-68722560D01*
X106200000Y-68722560D01*
X105952235Y-68771843D01*
X105742191Y-68912191D01*
X105601843Y-69122235D01*
X105552560Y-69370000D01*
X105552560Y-72870000D01*
X105601843Y-73117765D01*
X105742191Y-73327809D01*
X105883995Y-73422560D01*
X104025337Y-73422560D01*
X104059698Y-73408327D01*
X104238327Y-73229699D01*
X104335000Y-72996310D01*
X104335000Y-71405750D01*
X104176250Y-71247000D01*
X102077000Y-71247000D01*
X101823000Y-71247000D01*
X99723750Y-71247000D01*
X99565000Y-71405750D01*
X90297000Y-71405750D01*
X90297000Y-69243690D01*
X99565000Y-69243690D01*
X99565000Y-70834250D01*
X99723750Y-70993000D01*
X101823000Y-70993000D01*
X101823000Y-68893750D01*
X102077000Y-68893750D01*
X102077000Y-70993000D01*
X104176250Y-70993000D01*
X104335000Y-70834250D01*
X104335000Y-69243690D01*
X104238327Y-69010301D01*
X104059698Y-68831673D01*
X103826309Y-68735000D01*
X102235750Y-68735000D01*
X102077000Y-68893750D01*
X101823000Y-68893750D01*
X101664250Y-68735000D01*
X100073691Y-68735000D01*
X99840302Y-68831673D01*
X99661673Y-69010301D01*
X99565000Y-69243690D01*
X90297000Y-69243690D01*
X90297000Y-62357000D01*
X173863000Y-62357000D01*
X173863000Y-111633000D01*
G36*
X162695000Y-81648217D02*
X162672765Y-81760000D01*
X162695000Y-81871782D01*
X162760854Y-82202854D01*
X163011711Y-82578289D01*
X163106482Y-82641613D01*
X170088389Y-89623521D01*
X170151711Y-89718289D01*
X170315001Y-89827396D01*
X170315000Y-103669868D01*
X167169869Y-106815000D01*
X138900132Y-106815000D01*
X135755000Y-103669869D01*
X135755000Y-99530131D01*
X139257130Y-96028002D01*
X141603474Y-96028002D01*
X141738474Y-96163002D01*
X141603474Y-96298002D01*
X141438781Y-96298002D01*
X141326998Y-96275767D01*
X141108916Y-96319146D01*
X140884143Y-96363856D01*
X140508709Y-96614713D01*
X140445387Y-96709481D01*
X138976482Y-98178387D01*
X138881711Y-98241711D01*
X138700092Y-98513524D01*
X138630854Y-98617146D01*
X138542765Y-99060000D01*
X138565000Y-99171783D01*
X138565000Y-99367220D01*
X138565001Y-102758212D01*
X138542765Y-102870000D01*
X138630854Y-103312854D01*
X138630855Y-103312855D01*
X138881712Y-103688289D01*
X138976480Y-103751611D01*
X140088389Y-104863521D01*
X140151711Y-104958289D01*
X140527145Y-105209146D01*
X140969999Y-105297235D01*
X141081782Y-105275000D01*
X164988217Y-105275000D01*
X165100000Y-105297235D01*
X165211783Y-105275000D01*
X165542855Y-105209146D01*
X165918289Y-104958289D01*
X165981613Y-104863518D01*
X169633522Y-101211610D01*
X169728289Y-101148289D01*
X169979146Y-100772855D01*
X170045000Y-100441783D01*
X170045000Y-100441782D01*
X170067235Y-100330000D01*
X170045000Y-100218217D01*
X170045000Y-95361783D01*
X170067235Y-95250000D01*
X169979146Y-94807145D01*
X169728289Y-94431711D01*
X169633521Y-94368389D01*
X164965000Y-89699869D01*
X164965000Y-88864250D01*
X164973000Y-88856250D01*
X164973000Y-87757000D01*
X165227000Y-87757000D01*
X165227000Y-88856250D01*
X165385750Y-89015000D01*
X165676309Y-89015000D01*
X165909698Y-88918327D01*
X166088327Y-88739699D01*
X166185000Y-88506310D01*
X166185000Y-87915750D01*
X166026250Y-87757000D01*
X165227000Y-87757000D01*
X164973000Y-87757000D01*
X164965000Y-87757000D01*
X164965000Y-87518217D01*
X164961973Y-87503000D01*
X164973000Y-87503000D01*
X164973000Y-86403750D01*
X165227000Y-86403750D01*
X165227000Y-87503000D01*
X166026250Y-87503000D01*
X166185000Y-87344250D01*
X166185000Y-86753690D01*
X166088327Y-86520301D01*
X165909698Y-86341673D01*
X165676309Y-86245000D01*
X165385750Y-86245000D01*
X165227000Y-86403750D01*
X164973000Y-86403750D01*
X164814250Y-86245000D01*
X164523691Y-86245000D01*
X164298641Y-86338219D01*
X164253345Y-86307953D01*
X163830000Y-86223744D01*
X163406654Y-86307953D01*
X163195000Y-86449376D01*
X162983345Y-86307953D01*
X162560000Y-86223744D01*
X162136654Y-86307953D01*
X161856718Y-86495000D01*
X157184281Y-86495000D01*
X156982239Y-86360000D01*
X157184281Y-86225000D01*
X157368217Y-86225000D01*
X157480000Y-86247235D01*
X157591783Y-86225000D01*
X157922855Y-86159146D01*
X158298289Y-85908289D01*
X158361613Y-85813518D01*
X162695000Y-81480132D01*
X162695000Y-81648217D01*
X162695000Y-81648217D01*
G37*
X162695000Y-81648217D02*
X162672765Y-81760000D01*
X162695000Y-81871782D01*
X162760854Y-82202854D01*
X163011711Y-82578289D01*
X163106482Y-82641613D01*
X170088389Y-89623521D01*
X170151711Y-89718289D01*
X170315001Y-89827396D01*
X170315000Y-103669868D01*
X167169869Y-106815000D01*
X138900132Y-106815000D01*
X135755000Y-103669869D01*
X135755000Y-99530131D01*
X139257130Y-96028002D01*
X141603474Y-96028002D01*
X141738474Y-96163002D01*
X141603474Y-96298002D01*
X141438781Y-96298002D01*
X141326998Y-96275767D01*
X141108916Y-96319146D01*
X140884143Y-96363856D01*
X140508709Y-96614713D01*
X140445387Y-96709481D01*
X138976482Y-98178387D01*
X138881711Y-98241711D01*
X138700092Y-98513524D01*
X138630854Y-98617146D01*
X138542765Y-99060000D01*
X138565000Y-99171783D01*
X138565000Y-99367220D01*
X138565001Y-102758212D01*
X138542765Y-102870000D01*
X138630854Y-103312854D01*
X138630855Y-103312855D01*
X138881712Y-103688289D01*
X138976480Y-103751611D01*
X140088389Y-104863521D01*
X140151711Y-104958289D01*
X140527145Y-105209146D01*
X140969999Y-105297235D01*
X141081782Y-105275000D01*
X164988217Y-105275000D01*
X165100000Y-105297235D01*
X165211783Y-105275000D01*
X165542855Y-105209146D01*
X165918289Y-104958289D01*
X165981613Y-104863518D01*
X169633522Y-101211610D01*
X169728289Y-101148289D01*
X169979146Y-100772855D01*
X170045000Y-100441783D01*
X170045000Y-100441782D01*
X170067235Y-100330000D01*
X170045000Y-100218217D01*
X170045000Y-95361783D01*
X170067235Y-95250000D01*
X169979146Y-94807145D01*
X169728289Y-94431711D01*
X169633521Y-94368389D01*
X164965000Y-89699869D01*
X164965000Y-88864250D01*
X164973000Y-88856250D01*
X164973000Y-87757000D01*
X165227000Y-87757000D01*
X165227000Y-88856250D01*
X165385750Y-89015000D01*
X165676309Y-89015000D01*
X165909698Y-88918327D01*
X166088327Y-88739699D01*
X166185000Y-88506310D01*
X166185000Y-87915750D01*
X166026250Y-87757000D01*
X165227000Y-87757000D01*
X164973000Y-87757000D01*
X164965000Y-87757000D01*
X164965000Y-87518217D01*
X164961973Y-87503000D01*
X164973000Y-87503000D01*
X164973000Y-86403750D01*
X165227000Y-86403750D01*
X165227000Y-87503000D01*
X166026250Y-87503000D01*
X166185000Y-87344250D01*
X166185000Y-86753690D01*
X166088327Y-86520301D01*
X165909698Y-86341673D01*
X165676309Y-86245000D01*
X165385750Y-86245000D01*
X165227000Y-86403750D01*
X164973000Y-86403750D01*
X164814250Y-86245000D01*
X164523691Y-86245000D01*
X164298641Y-86338219D01*
X164253345Y-86307953D01*
X163830000Y-86223744D01*
X163406654Y-86307953D01*
X163195000Y-86449376D01*
X162983345Y-86307953D01*
X162560000Y-86223744D01*
X162136654Y-86307953D01*
X161856718Y-86495000D01*
X157184281Y-86495000D01*
X156982239Y-86360000D01*
X157184281Y-86225000D01*
X157368217Y-86225000D01*
X157480000Y-86247235D01*
X157591783Y-86225000D01*
X157922855Y-86159146D01*
X158298289Y-85908289D01*
X158361613Y-85813518D01*
X162695000Y-81480132D01*
X162695000Y-81648217D01*
G36*
X162136655Y-88952047D02*
X162560000Y-89036256D01*
X162695000Y-89009403D01*
X162695000Y-90058217D01*
X162672765Y-90170000D01*
X162695000Y-90281782D01*
X162760854Y-90612854D01*
X163011711Y-90988289D01*
X163106482Y-91051613D01*
X167775001Y-95720133D01*
X167775000Y-99859868D01*
X164629869Y-103005000D01*
X141440132Y-103005000D01*
X140835000Y-102399869D01*
X140835000Y-99530131D01*
X141700302Y-98664830D01*
X141738474Y-98703002D01*
X141366304Y-99075172D01*
X141125002Y-99657726D01*
X141125002Y-100288278D01*
X141366304Y-100870832D01*
X141812172Y-101316700D01*
X142394726Y-101558002D01*
X143025278Y-101558002D01*
X143607832Y-101316700D01*
X143816530Y-101108002D01*
X161535215Y-101108002D01*
X161646998Y-101130237D01*
X161758781Y-101108002D01*
X162089853Y-101042148D01*
X162465287Y-100791291D01*
X162528611Y-100696520D01*
X164553521Y-98671611D01*
X164648289Y-98608289D01*
X164899146Y-98232855D01*
X164965000Y-97901783D01*
X164965000Y-97901782D01*
X164987235Y-97790001D01*
X164965000Y-97678218D01*
X164965000Y-96484250D01*
X164973000Y-96476250D01*
X164973000Y-95377000D01*
X165227000Y-95377000D01*
X165227000Y-96476250D01*
X165385750Y-96635000D01*
X165676309Y-96635000D01*
X165909698Y-96538327D01*
X166088327Y-96359699D01*
X166185000Y-96126310D01*
X166185000Y-95535750D01*
X166026250Y-95377000D01*
X165227000Y-95377000D01*
X164973000Y-95377000D01*
X164965000Y-95377000D01*
X164965000Y-95138217D01*
X164961973Y-95123000D01*
X164973000Y-95123000D01*
X164973000Y-94023750D01*
X165227000Y-94023750D01*
X165227000Y-95123000D01*
X166026250Y-95123000D01*
X166185000Y-94964250D01*
X166185000Y-94373690D01*
X166088327Y-94140301D01*
X165909698Y-93961673D01*
X165676309Y-93865000D01*
X165385750Y-93865000D01*
X165227000Y-94023750D01*
X164973000Y-94023750D01*
X164814250Y-93865000D01*
X164523691Y-93865000D01*
X164298641Y-93958219D01*
X164253345Y-93927953D01*
X163830000Y-93843744D01*
X163406654Y-93927953D01*
X163195000Y-94069376D01*
X162983345Y-93927953D01*
X162560000Y-93843744D01*
X162136654Y-93927953D01*
X161856718Y-94115000D01*
X161760132Y-94115000D01*
X157701487Y-90056356D01*
X157608839Y-89590582D01*
X157280625Y-89099375D01*
X156982239Y-88900000D01*
X157184281Y-88765000D01*
X161856719Y-88765000D01*
X162136655Y-88952047D01*
X162136655Y-88952047D01*
G37*
X162136655Y-88952047D02*
X162560000Y-89036256D01*
X162695000Y-89009403D01*
X162695000Y-90058217D01*
X162672765Y-90170000D01*
X162695000Y-90281782D01*
X162760854Y-90612854D01*
X163011711Y-90988289D01*
X163106482Y-91051613D01*
X167775001Y-95720133D01*
X167775000Y-99859868D01*
X164629869Y-103005000D01*
X141440132Y-103005000D01*
X140835000Y-102399869D01*
X140835000Y-99530131D01*
X141700302Y-98664830D01*
X141738474Y-98703002D01*
X141366304Y-99075172D01*
X141125002Y-99657726D01*
X141125002Y-100288278D01*
X141366304Y-100870832D01*
X141812172Y-101316700D01*
X142394726Y-101558002D01*
X143025278Y-101558002D01*
X143607832Y-101316700D01*
X143816530Y-101108002D01*
X161535215Y-101108002D01*
X161646998Y-101130237D01*
X161758781Y-101108002D01*
X162089853Y-101042148D01*
X162465287Y-100791291D01*
X162528611Y-100696520D01*
X164553521Y-98671611D01*
X164648289Y-98608289D01*
X164899146Y-98232855D01*
X164965000Y-97901783D01*
X164965000Y-97901782D01*
X164987235Y-97790001D01*
X164965000Y-97678218D01*
X164965000Y-96484250D01*
X164973000Y-96476250D01*
X164973000Y-95377000D01*
X165227000Y-95377000D01*
X165227000Y-96476250D01*
X165385750Y-96635000D01*
X165676309Y-96635000D01*
X165909698Y-96538327D01*
X166088327Y-96359699D01*
X166185000Y-96126310D01*
X166185000Y-95535750D01*
X166026250Y-95377000D01*
X165227000Y-95377000D01*
X164973000Y-95377000D01*
X164965000Y-95377000D01*
X164965000Y-95138217D01*
X164961973Y-95123000D01*
X164973000Y-95123000D01*
X164973000Y-94023750D01*
X165227000Y-94023750D01*
X165227000Y-95123000D01*
X166026250Y-95123000D01*
X166185000Y-94964250D01*
X166185000Y-94373690D01*
X166088327Y-94140301D01*
X165909698Y-93961673D01*
X165676309Y-93865000D01*
X165385750Y-93865000D01*
X165227000Y-94023750D01*
X164973000Y-94023750D01*
X164814250Y-93865000D01*
X164523691Y-93865000D01*
X164298641Y-93958219D01*
X164253345Y-93927953D01*
X163830000Y-93843744D01*
X163406654Y-93927953D01*
X163195000Y-94069376D01*
X162983345Y-93927953D01*
X162560000Y-93843744D01*
X162136654Y-93927953D01*
X161856718Y-94115000D01*
X161760132Y-94115000D01*
X157701487Y-90056356D01*
X157608839Y-89590582D01*
X157280625Y-89099375D01*
X156982239Y-88900000D01*
X157184281Y-88765000D01*
X161856719Y-88765000D01*
X162136655Y-88952047D01*
G04 #@! TD*
M02*
