M48
;DRILL file {KiCad (5.0.2)-1} date 4/13/2019 12:16:24 AM
;FORMAT={-:-/ absolute / metric / decimal}
FMAT,2
METRIC,TZ
T1C0.600
T2C1.000
T3C1.020
%
G90
G05
T1
X162.56Y-87.63
X163.83Y-87.63
X165.1Y-87.63
X162.56Y-80.01
X163.83Y-80.01
X165.1Y-80.01
X162.56Y-95.25
X163.83Y-95.25
X165.1Y-95.25
T2
X115.57Y-71.12
X115.57Y-73.66
X115.57Y-76.2
X149.86Y-72.39
X149.86Y-82.55
X149.86Y-85.09
X149.86Y-87.63
X149.86Y-90.17
X149.86Y-92.71
X115.57Y-87.63
X115.57Y-90.17
X115.57Y-92.71
X115.57Y-95.25
X115.57Y-97.79
X115.57Y-100.33
X115.57Y-82.55
X156.21Y-82.55
X156.21Y-85.09
X156.21Y-87.63
X156.21Y-90.17
T3
X124.93Y-72.033
X124.93Y-74.573
X124.93Y-77.113
X124.93Y-79.653
X124.93Y-82.193
X124.93Y-84.733
X124.93Y-87.273
X124.93Y-89.813
X124.93Y-92.353
X124.93Y-94.893
X124.93Y-97.433
X124.93Y-99.973
X142.71Y-72.033
X142.71Y-74.573
X142.71Y-77.113
X142.71Y-79.653
X142.71Y-82.193
X142.71Y-84.733
X142.71Y-87.273
X142.71Y-89.813
X142.71Y-92.353
X142.71Y-94.893
X142.71Y-97.433
X142.71Y-99.973
T2
X101.95Y-70.12G85X101.95Y-72.12
G05
X103.95Y-75.82G85X105.95Y-75.82
G05
X107.95Y-70.12G85X107.95Y-72.12
G05
T0
M30
